<ttFont>
    <TTGlyph name=".notdef" xMin="30" yMin="-259" xMax="682" yMax="989">
      <contour>
        <pt x="30" y="-259" on="1"/>
        <pt x="30" y="989" on="1"/>
        <pt x="682" y="989" on="1"/>
        <pt x="682" y="-259" on="1"/>
      </contour>
      <contour>
        <pt x="100" y="-189" on="1"/>
        <pt x="612" y="-189" on="1"/>
        <pt x="612" y="918" on="1"/>
        <pt x="100" y="918" on="1"/>
      </contour>
      <contour>
        <pt x="328" y="244" on="1"/>
        <pt x="328" y="309" on="0"/>
        <pt x="365" y="393" on="0"/>
        <pt x="410" y="457" on="0"/>
        <pt x="447" y="517" on="0"/>
        <pt x="447" y="558" on="1"/>
        <pt x="447" y="600" on="0"/>
        <pt x="404" y="653" on="0"/>
        <pt x="363" y="653" on="1"/>
        <pt x="328" y="653" on="0"/>
        <pt x="280" y="608" on="0"/>
        <pt x="280" y="574" on="1"/>
        <pt x="280" y="551" on="0"/>
        <pt x="290" y="521" on="0"/>
        <pt x="297" y="513" on="1"/>
        <pt x="304" y="503" on="0"/>
        <pt x="314" y="498" on="1"/>
        <pt x="314" y="492" on="1"/>
        <pt x="300" y="492" on="0"/>
        <pt x="265" y="498" on="0"/>
        <pt x="234" y="517" on="0"/>
        <pt x="213" y="553" on="0"/>
        <pt x="213" y="584" on="1"/>
        <pt x="213" y="628" on="0"/>
        <pt x="256" y="666" on="0"/>
        <pt x="291" y="666" on="1"/>
        <pt x="291" y="676" on="0"/>
        <pt x="303" y="688" on="0"/>
        <pt x="321" y="694" on="0"/>
        <pt x="342" y="695" on="0"/>
        <pt x="351" y="695" on="1"/>
        <pt x="377" y="695" on="0"/>
        <pt x="438" y="684" on="0"/>
        <pt x="490" y="654" on="0"/>
        <pt x="524" y="600" on="0"/>
        <pt x="524" y="557" on="1"/>
        <pt x="524" y="526" on="0"/>
        <pt x="502" y="478" on="0"/>
        <pt x="470" y="435" on="0"/>
        <pt x="431" y="393" on="0"/>
        <pt x="399" y="344" on="0"/>
        <pt x="377" y="284" on="0"/>
        <pt x="377" y="244" on="1"/>
      </contour>
      <contour>
        <pt x="309" y="129" on="1"/>
        <pt x="309" y="148" on="0"/>
        <pt x="335" y="174" on="0"/>
        <pt x="353" y="174" on="1"/>
        <pt x="372" y="174" on="0"/>
        <pt x="397" y="148" on="0"/>
        <pt x="397" y="129" on="1"/>
        <pt x="397" y="110" on="0"/>
        <pt x="372" y="84" on="0"/>
        <pt x="353" y="84" on="1"/>
        <pt x="335" y="84" on="0"/>
        <pt x="309" y="110" on="0"/>
      </contour>
    </TTGlyph>
    <TTGlyph name="A" xMin="17" yMin="0" xMax="774" yMax="820">
      <contour>
        <pt x="485" y="354" on="1"/>
        <pt x="456" y="460" on="0"/>
        <pt x="419" y="598" on="0"/>
        <pt x="397" y="682" on="0"/>
        <pt x="386" y="722" on="0"/>
        <pt x="383" y="730" on="1"/>
        <pt x="262" y="320" on="1"/>
        <pt x="279" y="318" on="0"/>
        <pt x="309" y="316" on="0"/>
        <pt x="322" y="316" on="1"/>
        <pt x="354" y="316" on="0"/>
        <pt x="434" y="330" on="0"/>
      </contour>
      <contour>
        <pt x="659" y="99" on="1"/>
        <pt x="667" y="70" on="0"/>
        <pt x="729" y="42" on="0"/>
        <pt x="774" y="42" on="1"/>
        <pt x="774" y="0" on="1"/>
        <pt x="762" y="0" on="0"/>
        <pt x="727" y="3" on="0"/>
        <pt x="686" y="7" on="0"/>
        <pt x="643" y="10" on="0"/>
        <pt x="624" y="10" on="1"/>
        <pt x="604" y="10" on="0"/>
        <pt x="556" y="7" on="0"/>
        <pt x="509" y="3" on="0"/>
        <pt x="468" y="0" on="0"/>
        <pt x="456" y="0" on="1"/>
        <pt x="456" y="42" on="1"/>
        <pt x="471" y="42" on="0"/>
        <pt x="505" y="44" on="0"/>
        <pt x="534" y="53" on="0"/>
        <pt x="553" y="70" on="0"/>
        <pt x="553" y="85" on="1"/>
        <pt x="553" y="89" on="0"/>
        <pt x="550" y="105" on="0"/>
        <pt x="538" y="149" on="0"/>
        <pt x="517" y="230" on="0"/>
        <pt x="499" y="299" on="1"/>
        <pt x="439" y="278" on="0"/>
        <pt x="348" y="264" on="0"/>
        <pt x="310" y="264" on="1"/>
        <pt x="296" y="264" on="0"/>
        <pt x="264" y="266" on="0"/>
        <pt x="247" y="268" on="1"/>
        <pt x="211" y="138" on="1"/>
        <pt x="206" y="122" on="0"/>
        <pt x="200" y="99" on="0"/>
        <pt x="201" y="91" on="1"/>
        <pt x="201" y="73" on="0"/>
        <pt x="220" y="54" on="0"/>
        <pt x="250" y="44" on="0"/>
        <pt x="287" y="42" on="0"/>
        <pt x="305" y="42" on="1"/>
        <pt x="305" y="0" on="1"/>
        <pt x="293" y="0" on="0"/>
        <pt x="257" y="3" on="0"/>
        <pt x="214" y="7" on="0"/>
        <pt x="170" y="10" on="0"/>
        <pt x="151" y="10" on="1"/>
        <pt x="113" y="10" on="0"/>
        <pt x="40" y="0" on="0"/>
        <pt x="17" y="0" on="1"/>
        <pt x="17" y="42" on="1"/>
        <pt x="62" y="42" on="0"/>
        <pt x="119" y="70" on="0"/>
        <pt x="128" y="99" on="1"/>
        <pt x="185" y="280" on="1"/>
        <pt x="128" y="297" on="0"/>
        <pt x="49" y="370" on="0"/>
        <pt x="49" y="429" on="1"/>
        <pt x="49" y="445" on="0"/>
        <pt x="56" y="459" on="0"/>
        <pt x="63" y="465" on="1"/>
        <pt x="47" y="484" on="0"/>
        <pt x="47" y="512" on="1"/>
        <pt x="47" y="529" on="0"/>
        <pt x="60" y="562" on="0"/>
        <pt x="83" y="587" on="0"/>
        <pt x="115" y="602" on="0"/>
        <pt x="135" y="602" on="1"/>
        <pt x="145" y="602" on="0"/>
        <pt x="162" y="597" on="0"/>
        <pt x="177" y="588" on="0"/>
        <pt x="194" y="573" on="0"/>
        <pt x="205" y="564" on="1"/>
        <pt x="167" y="548" on="0"/>
        <pt x="133" y="484" on="0"/>
        <pt x="133" y="449" on="1"/>
        <pt x="133" y="401" on="0"/>
        <pt x="173" y="347" on="0"/>
        <pt x="202" y="334" on="1"/>
        <pt x="352" y="786" on="1"/>
        <pt x="403" y="786" on="0"/>
        <pt x="509" y="808" on="0"/>
        <pt x="557" y="820" on="1"/>
        <pt x="577" y="785" on="1"/>
        <pt x="556" y="781" on="0"/>
        <pt x="529" y="772" on="0"/>
        <pt x="514" y="759" on="0"/>
        <pt x="509" y="740" on="0"/>
        <pt x="509" y="726" on="1"/>
        <pt x="509" y="716" on="0"/>
        <pt x="512" y="686" on="0"/>
        <pt x="523" y="631" on="0"/>
        <pt x="543" y="545" on="0"/>
        <pt x="576" y="412" on="0"/>
        <pt x="625" y="226" on="0"/>
      </contour>
    </TTGlyph>
    <TTGlyph name="AE" xMin="-233" yMin="-254" xMax="876" yMax="815">
      <contour>
        <pt x="530" y="799" on="1"/>
        <pt x="570" y="799" on="0"/>
        <pt x="661" y="802" on="0"/>
        <pt x="741" y="806" on="0"/>
        <pt x="798" y="809" on="0"/>
        <pt x="805" y="809" on="1"/>
        <pt x="829" y="809" on="0"/>
        <pt x="829" y="783" on="1"/>
        <pt x="829" y="772" on="0"/>
        <pt x="823" y="703" on="0"/>
        <pt x="823" y="654" on="1"/>
        <pt x="783" y="654" on="1"/>
        <pt x="783" y="675" on="0"/>
        <pt x="778" y="712" on="0"/>
        <pt x="763" y="740" on="0"/>
        <pt x="735" y="757" on="0"/>
        <pt x="711" y="757" on="1"/>
        <pt x="530" y="757" on="1"/>
        <pt x="530" y="441" on="1"/>
        <pt x="558" y="437" on="0"/>
        <pt x="634" y="430" on="0"/>
        <pt x="664" y="430" on="1"/>
        <pt x="699" y="430" on="0"/>
        <pt x="769" y="445" on="0"/>
        <pt x="794" y="467" on="1"/>
        <pt x="799" y="462" on="0"/>
        <pt x="808" y="444" on="0"/>
        <pt x="808" y="433" on="1"/>
        <pt x="808" y="407" on="0"/>
        <pt x="750" y="372" on="0"/>
        <pt x="688" y="372" on="1"/>
        <pt x="646" y="372" on="0"/>
        <pt x="562" y="386" on="0"/>
        <pt x="530" y="394" on="1"/>
        <pt x="530" y="101" on="1"/>
        <pt x="530" y="61" on="0"/>
        <pt x="569" y="6" on="0"/>
        <pt x="625" y="-29" on="0"/>
        <pt x="688" y="-44" on="0"/>
        <pt x="712" y="-44" on="1"/>
        <pt x="738" y="-44" on="0"/>
        <pt x="772" y="-29" on="0"/>
        <pt x="791" y="-5" on="0"/>
        <pt x="799" y="26" on="0"/>
        <pt x="799" y="43" on="1"/>
        <pt x="799" y="69" on="0"/>
        <pt x="782" y="102" on="0"/>
        <pt x="764" y="116" on="1"/>
        <pt x="764" y="120" on="1"/>
        <pt x="793" y="120" on="0"/>
        <pt x="827" y="107" on="0"/>
        <pt x="845" y="85" on="0"/>
        <pt x="850" y="56" on="0"/>
        <pt x="850" y="39" on="1"/>
        <pt x="862" y="39" on="0"/>
        <pt x="876" y="16" on="0"/>
        <pt x="876" y="-4" on="1"/>
        <pt x="876" y="-22" on="0"/>
        <pt x="861" y="-55" on="0"/>
        <pt x="827" y="-80" on="0"/>
        <pt x="772" y="-95" on="0"/>
        <pt x="732" y="-95" on="1"/>
        <pt x="672" y="-95" on="0"/>
        <pt x="579" y="-65" on="0"/>
        <pt x="499" y="-30" on="0"/>
        <pt x="424" y="0" on="0"/>
        <pt x="382" y="0" on="1"/>
        <pt x="351" y="0" on="1"/>
        <pt x="351" y="42" on="1"/>
        <pt x="364" y="42" on="0"/>
        <pt x="396" y="45" on="0"/>
        <pt x="422" y="61" on="0"/>
        <pt x="440" y="96" on="0"/>
        <pt x="440" y="128" on="1"/>
        <pt x="440" y="300" on="1"/>
        <pt x="401" y="290" on="0"/>
        <pt x="333" y="284" on="0"/>
        <pt x="306" y="284" on="1"/>
        <pt x="286" y="284" on="0"/>
        <pt x="240" y="287" on="0"/>
        <pt x="217" y="292" on="1"/>
        <pt x="49" y="-59" on="1"/>
        <pt x="14" y="-132" on="0"/>
        <pt x="-53" y="-207" on="0"/>
        <pt x="-82" y="-207" on="1"/>
        <pt x="-86" y="-207" on="0"/>
        <pt x="-92" y="-205" on="0"/>
        <pt x="-96" y="-203" on="1"/>
        <pt x="-97" y="-215" on="0"/>
        <pt x="-112" y="-233" on="0"/>
        <pt x="-135" y="-247" on="0"/>
        <pt x="-163" y="-254" on="0"/>
        <pt x="-177" y="-254" on="1"/>
        <pt x="-201" y="-254" on="0"/>
        <pt x="-233" y="-232" on="0"/>
        <pt x="-233" y="-206" on="1"/>
        <pt x="-197" y="-202" on="0"/>
        <pt x="-139" y="-189" on="0"/>
        <pt x="-81" y="-142" on="0"/>
        <pt x="-17" y="-47" on="0"/>
        <pt x="24" y="38" on="1"/>
        <pt x="154" y="307" on="1"/>
        <pt x="128" y="316" on="0"/>
        <pt x="81" y="342" on="0"/>
        <pt x="46" y="377" on="0"/>
        <pt x="25" y="421" on="0"/>
        <pt x="25" y="449" on="1"/>
        <pt x="25" y="465" on="0"/>
        <pt x="32" y="479" on="0"/>
        <pt x="39" y="485" on="1"/>
        <pt x="23" y="505" on="0"/>
        <pt x="23" y="532" on="1"/>
        <pt x="23" y="549" on="0"/>
        <pt x="36" y="582" on="0"/>
        <pt x="59" y="607" on="0"/>
        <pt x="91" y="622" on="0"/>
        <pt x="111" y="622" on="1"/>
        <pt x="121" y="622" on="0"/>
        <pt x="138" y="617" on="0"/>
        <pt x="153" y="608" on="0"/>
        <pt x="170" y="593" on="0"/>
        <pt x="181" y="584" on="1"/>
        <pt x="143" y="568" on="0"/>
        <pt x="109" y="504" on="0"/>
        <pt x="109" y="469" on="1"/>
        <pt x="109" y="428" on="0"/>
        <pt x="150" y="377" on="0"/>
        <pt x="181" y="362" on="1"/>
        <pt x="400" y="815" on="1"/>
        <pt x="430" y="805" on="0"/>
        <pt x="498" y="799" on="0"/>
      </contour>
      <contour>
        <pt x="440" y="757" on="1"/>
        <pt x="241" y="343" on="1"/>
        <pt x="261" y="339" on="0"/>
        <pt x="301" y="336" on="0"/>
        <pt x="318" y="336" on="1"/>
        <pt x="342" y="336" on="0"/>
        <pt x="405" y="344" on="0"/>
        <pt x="440" y="355" on="1"/>
      </contour>
    </TTGlyph>
    <TTGlyph name="AEacute" xMin="-233" yMin="-254" xMax="876" yMax="990">
      <contour>
        <pt x="530" y="799" on="1"/>
        <pt x="570" y="799" on="0"/>
        <pt x="661" y="802" on="0"/>
        <pt x="741" y="806" on="0"/>
        <pt x="798" y="809" on="0"/>
        <pt x="805" y="809" on="1"/>
        <pt x="829" y="809" on="0"/>
        <pt x="829" y="783" on="1"/>
        <pt x="829" y="772" on="0"/>
        <pt x="823" y="703" on="0"/>
        <pt x="823" y="654" on="1"/>
        <pt x="783" y="654" on="1"/>
        <pt x="783" y="675" on="0"/>
        <pt x="778" y="712" on="0"/>
        <pt x="763" y="740" on="0"/>
        <pt x="735" y="757" on="0"/>
        <pt x="711" y="757" on="1"/>
        <pt x="530" y="757" on="1"/>
        <pt x="530" y="441" on="1"/>
        <pt x="558" y="437" on="0"/>
        <pt x="634" y="430" on="0"/>
        <pt x="664" y="430" on="1"/>
        <pt x="699" y="430" on="0"/>
        <pt x="769" y="445" on="0"/>
        <pt x="794" y="467" on="1"/>
        <pt x="799" y="462" on="0"/>
        <pt x="808" y="444" on="0"/>
        <pt x="808" y="433" on="1"/>
        <pt x="808" y="407" on="0"/>
        <pt x="750" y="372" on="0"/>
        <pt x="688" y="372" on="1"/>
        <pt x="646" y="372" on="0"/>
        <pt x="562" y="386" on="0"/>
        <pt x="530" y="394" on="1"/>
        <pt x="530" y="101" on="1"/>
        <pt x="530" y="61" on="0"/>
        <pt x="569" y="6" on="0"/>
        <pt x="625" y="-29" on="0"/>
        <pt x="688" y="-44" on="0"/>
        <pt x="712" y="-44" on="1"/>
        <pt x="738" y="-44" on="0"/>
        <pt x="772" y="-29" on="0"/>
        <pt x="791" y="-5" on="0"/>
        <pt x="799" y="26" on="0"/>
        <pt x="799" y="43" on="1"/>
        <pt x="799" y="69" on="0"/>
        <pt x="782" y="102" on="0"/>
        <pt x="764" y="116" on="1"/>
        <pt x="764" y="120" on="1"/>
        <pt x="793" y="120" on="0"/>
        <pt x="827" y="107" on="0"/>
        <pt x="845" y="85" on="0"/>
        <pt x="850" y="56" on="0"/>
        <pt x="850" y="39" on="1"/>
        <pt x="862" y="39" on="0"/>
        <pt x="876" y="16" on="0"/>
        <pt x="876" y="-4" on="1"/>
        <pt x="876" y="-22" on="0"/>
        <pt x="861" y="-55" on="0"/>
        <pt x="827" y="-80" on="0"/>
        <pt x="772" y="-95" on="0"/>
        <pt x="732" y="-95" on="1"/>
        <pt x="672" y="-95" on="0"/>
        <pt x="579" y="-65" on="0"/>
        <pt x="499" y="-30" on="0"/>
        <pt x="424" y="0" on="0"/>
        <pt x="382" y="0" on="1"/>
        <pt x="351" y="0" on="1"/>
        <pt x="351" y="42" on="1"/>
        <pt x="364" y="42" on="0"/>
        <pt x="396" y="45" on="0"/>
        <pt x="422" y="61" on="0"/>
        <pt x="440" y="96" on="0"/>
        <pt x="440" y="128" on="1"/>
        <pt x="440" y="300" on="1"/>
        <pt x="401" y="290" on="0"/>
        <pt x="333" y="284" on="0"/>
        <pt x="306" y="284" on="1"/>
        <pt x="286" y="284" on="0"/>
        <pt x="240" y="287" on="0"/>
        <pt x="217" y="292" on="1"/>
        <pt x="49" y="-59" on="1"/>
        <pt x="14" y="-132" on="0"/>
        <pt x="-53" y="-207" on="0"/>
        <pt x="-82" y="-207" on="1"/>
        <pt x="-86" y="-207" on="0"/>
        <pt x="-92" y="-205" on="0"/>
        <pt x="-96" y="-203" on="1"/>
        <pt x="-97" y="-215" on="0"/>
        <pt x="-112" y="-233" on="0"/>
        <pt x="-135" y="-247" on="0"/>
        <pt x="-163" y="-254" on="0"/>
        <pt x="-177" y="-254" on="1"/>
        <pt x="-201" y="-254" on="0"/>
        <pt x="-233" y="-232" on="0"/>
        <pt x="-233" y="-206" on="1"/>
        <pt x="-197" y="-202" on="0"/>
        <pt x="-139" y="-189" on="0"/>
        <pt x="-81" y="-142" on="0"/>
        <pt x="-17" y="-47" on="0"/>
        <pt x="24" y="38" on="1"/>
        <pt x="154" y="307" on="1"/>
        <pt x="128" y="316" on="0"/>
        <pt x="81" y="342" on="0"/>
        <pt x="46" y="377" on="0"/>
        <pt x="25" y="421" on="0"/>
        <pt x="25" y="449" on="1"/>
        <pt x="25" y="465" on="0"/>
        <pt x="32" y="479" on="0"/>
        <pt x="39" y="485" on="1"/>
        <pt x="23" y="505" on="0"/>
        <pt x="23" y="532" on="1"/>
        <pt x="23" y="549" on="0"/>
        <pt x="36" y="582" on="0"/>
        <pt x="59" y="607" on="0"/>
        <pt x="91" y="622" on="0"/>
        <pt x="111" y="622" on="1"/>
        <pt x="121" y="622" on="0"/>
        <pt x="138" y="617" on="0"/>
        <pt x="153" y="608" on="0"/>
        <pt x="170" y="593" on="0"/>
        <pt x="181" y="584" on="1"/>
        <pt x="143" y="568" on="0"/>
        <pt x="109" y="504" on="0"/>
        <pt x="109" y="469" on="1"/>
        <pt x="109" y="428" on="0"/>
        <pt x="150" y="377" on="0"/>
        <pt x="181" y="362" on="1"/>
        <pt x="400" y="815" on="1"/>
        <pt x="430" y="805" on="0"/>
        <pt x="498" y="799" on="0"/>
      </contour>
      <contour>
        <pt x="440" y="757" on="1"/>
        <pt x="241" y="343" on="1"/>
        <pt x="261" y="339" on="0"/>
        <pt x="301" y="336" on="0"/>
        <pt x="318" y="336" on="1"/>
        <pt x="342" y="336" on="0"/>
        <pt x="405" y="344" on="0"/>
        <pt x="440" y="355" on="1"/>
      </contour>
      <contour>
        <pt x="572" y="981" on="1"/>
        <pt x="579" y="985" on="0"/>
        <pt x="588" y="985" on="1"/>
        <pt x="599" y="985" on="0"/>
        <pt x="620" y="970" on="0"/>
        <pt x="620" y="958" on="1"/>
        <pt x="620" y="949" on="0"/>
        <pt x="608" y="932" on="0"/>
        <pt x="599" y="928" on="1"/>
        <pt x="600" y="926" on="0"/>
        <pt x="600" y="921" on="1"/>
        <pt x="600" y="904" on="0"/>
        <pt x="582" y="892" on="0"/>
        <pt x="545" y="884" on="0"/>
        <pt x="486" y="874" on="0"/>
        <pt x="445" y="861" on="1"/>
        <pt x="439" y="859" on="0"/>
        <pt x="435" y="859" on="1"/>
        <pt x="421" y="859" on="0"/>
        <pt x="409" y="877" on="0"/>
        <pt x="409" y="885" on="1"/>
        <pt x="409" y="899" on="0"/>
        <pt x="423" y="907" on="1"/>
        <pt x="451" y="922" on="0"/>
        <pt x="490" y="951" on="0"/>
        <pt x="519" y="975" on="0"/>
        <pt x="541" y="990" on="0"/>
        <pt x="552" y="990" on="1"/>
        <pt x="557" y="990" on="0"/>
        <pt x="568" y="986" on="0"/>
      </contour>
    </TTGlyph>
    <TTGlyph name="Aacute" xMin="17" yMin="0" xMax="774" yMax="990">
      <contour>
        <pt x="485" y="354" on="1"/>
        <pt x="456" y="460" on="0"/>
        <pt x="420" y="598" on="0"/>
        <pt x="398" y="682" on="0"/>
        <pt x="386" y="722" on="0"/>
        <pt x="383" y="730" on="1"/>
        <pt x="262" y="320" on="1"/>
        <pt x="279" y="318" on="0"/>
        <pt x="309" y="316" on="0"/>
        <pt x="322" y="316" on="1"/>
        <pt x="354" y="316" on="0"/>
        <pt x="435" y="330" on="0"/>
      </contour>
      <contour>
        <pt x="659" y="99" on="1"/>
        <pt x="667" y="70" on="0"/>
        <pt x="729" y="42" on="0"/>
        <pt x="774" y="42" on="1"/>
        <pt x="774" y="0" on="1"/>
        <pt x="762" y="0" on="0"/>
        <pt x="727" y="3" on="0"/>
        <pt x="686" y="7" on="0"/>
        <pt x="643" y="10" on="0"/>
        <pt x="624" y="10" on="1"/>
        <pt x="605" y="10" on="0"/>
        <pt x="556" y="7" on="0"/>
        <pt x="509" y="3" on="0"/>
        <pt x="468" y="0" on="0"/>
        <pt x="456" y="0" on="1"/>
        <pt x="456" y="42" on="1"/>
        <pt x="471" y="42" on="0"/>
        <pt x="505" y="44" on="0"/>
        <pt x="534" y="53" on="0"/>
        <pt x="553" y="70" on="0"/>
        <pt x="553" y="85" on="1"/>
        <pt x="553" y="89" on="0"/>
        <pt x="550" y="105" on="0"/>
        <pt x="538" y="149" on="0"/>
        <pt x="517" y="230" on="0"/>
        <pt x="499" y="299" on="1"/>
        <pt x="439" y="278" on="0"/>
        <pt x="348" y="264" on="0"/>
        <pt x="310" y="264" on="1"/>
        <pt x="296" y="264" on="0"/>
        <pt x="264" y="266" on="0"/>
        <pt x="247" y="268" on="1"/>
        <pt x="211" y="138" on="1"/>
        <pt x="206" y="121" on="0"/>
        <pt x="201" y="93" on="0"/>
        <pt x="201" y="85" on="1"/>
        <pt x="201" y="70" on="0"/>
        <pt x="223" y="53" on="0"/>
        <pt x="254" y="44" on="0"/>
        <pt x="290" y="42" on="0"/>
        <pt x="305" y="42" on="1"/>
        <pt x="305" y="0" on="1"/>
        <pt x="293" y="0" on="0"/>
        <pt x="257" y="3" on="0"/>
        <pt x="214" y="7" on="0"/>
        <pt x="170" y="10" on="0"/>
        <pt x="151" y="10" on="1"/>
        <pt x="113" y="10" on="0"/>
        <pt x="40" y="0" on="0"/>
        <pt x="17" y="0" on="1"/>
        <pt x="17" y="42" on="1"/>
        <pt x="62" y="42" on="0"/>
        <pt x="119" y="70" on="0"/>
        <pt x="128" y="99" on="1"/>
        <pt x="185" y="280" on="1"/>
        <pt x="157" y="288" on="0"/>
        <pt x="107" y="315" on="0"/>
        <pt x="70" y="352" on="0"/>
        <pt x="49" y="399" on="0"/>
        <pt x="49" y="429" on="1"/>
        <pt x="49" y="445" on="0"/>
        <pt x="56" y="459" on="0"/>
        <pt x="63" y="465" on="1"/>
        <pt x="47" y="485" on="0"/>
        <pt x="47" y="512" on="1"/>
        <pt x="47" y="529" on="0"/>
        <pt x="60" y="562" on="0"/>
        <pt x="83" y="587" on="0"/>
        <pt x="115" y="602" on="0"/>
        <pt x="135" y="602" on="1"/>
        <pt x="145" y="602" on="0"/>
        <pt x="162" y="597" on="0"/>
        <pt x="177" y="588" on="0"/>
        <pt x="194" y="573" on="0"/>
        <pt x="205" y="564" on="1"/>
        <pt x="167" y="548" on="0"/>
        <pt x="133" y="484" on="0"/>
        <pt x="133" y="449" on="1"/>
        <pt x="133" y="401" on="0"/>
        <pt x="173" y="347" on="0"/>
        <pt x="202" y="334" on="1"/>
        <pt x="352" y="786" on="1"/>
        <pt x="403" y="786" on="0"/>
        <pt x="509" y="808" on="0"/>
        <pt x="557" y="820" on="1"/>
        <pt x="577" y="785" on="1"/>
        <pt x="535" y="777" on="0"/>
        <pt x="509" y="754" on="0"/>
        <pt x="509" y="726" on="1"/>
        <pt x="509" y="716" on="0"/>
        <pt x="512" y="686" on="0"/>
        <pt x="523" y="631" on="0"/>
        <pt x="543" y="545" on="0"/>
        <pt x="576" y="412" on="0"/>
        <pt x="625" y="226" on="0"/>
      </contour>
      <contour>
        <pt x="529" y="981" on="1"/>
        <pt x="536" y="985" on="0"/>
        <pt x="545" y="985" on="1"/>
        <pt x="556" y="985" on="0"/>
        <pt x="577" y="970" on="0"/>
        <pt x="577" y="958" on="1"/>
        <pt x="577" y="949" on="0"/>
        <pt x="565" y="932" on="0"/>
        <pt x="556" y="928" on="1"/>
        <pt x="557" y="926" on="0"/>
        <pt x="557" y="921" on="1"/>
        <pt x="557" y="904" on="0"/>
        <pt x="539" y="892" on="0"/>
        <pt x="502" y="884" on="0"/>
        <pt x="443" y="874" on="0"/>
        <pt x="402" y="861" on="1"/>
        <pt x="396" y="859" on="0"/>
        <pt x="392" y="859" on="1"/>
        <pt x="378" y="859" on="0"/>
        <pt x="366" y="877" on="0"/>
        <pt x="366" y="885" on="1"/>
        <pt x="366" y="899" on="0"/>
        <pt x="380" y="907" on="1"/>
        <pt x="408" y="922" on="0"/>
        <pt x="447" y="951" on="0"/>
        <pt x="476" y="975" on="0"/>
        <pt x="498" y="990" on="0"/>
        <pt x="509" y="990" on="1"/>
        <pt x="514" y="990" on="0"/>
        <pt x="525" y="986" on="0"/>
      </contour>
    </TTGlyph>
    <TTGlyph name="Abreve" xMin="17" yMin="0" xMax="774" yMax="990">
      <contour>
        <pt x="485" y="354" on="1"/>
        <pt x="456" y="460" on="0"/>
        <pt x="420" y="598" on="0"/>
        <pt x="398" y="682" on="0"/>
        <pt x="386" y="722" on="0"/>
        <pt x="383" y="730" on="1"/>
        <pt x="262" y="320" on="1"/>
        <pt x="279" y="318" on="0"/>
        <pt x="309" y="316" on="0"/>
        <pt x="322" y="316" on="1"/>
        <pt x="354" y="316" on="0"/>
        <pt x="435" y="330" on="0"/>
      </contour>
      <contour>
        <pt x="659" y="99" on="1"/>
        <pt x="667" y="70" on="0"/>
        <pt x="729" y="42" on="0"/>
        <pt x="774" y="42" on="1"/>
        <pt x="774" y="0" on="1"/>
        <pt x="762" y="0" on="0"/>
        <pt x="727" y="3" on="0"/>
        <pt x="686" y="7" on="0"/>
        <pt x="643" y="10" on="0"/>
        <pt x="624" y="10" on="1"/>
        <pt x="605" y="10" on="0"/>
        <pt x="556" y="7" on="0"/>
        <pt x="509" y="3" on="0"/>
        <pt x="468" y="0" on="0"/>
        <pt x="456" y="0" on="1"/>
        <pt x="456" y="42" on="1"/>
        <pt x="471" y="42" on="0"/>
        <pt x="505" y="44" on="0"/>
        <pt x="534" y="53" on="0"/>
        <pt x="553" y="70" on="0"/>
        <pt x="553" y="85" on="1"/>
        <pt x="553" y="89" on="0"/>
        <pt x="550" y="105" on="0"/>
        <pt x="538" y="149" on="0"/>
        <pt x="517" y="230" on="0"/>
        <pt x="499" y="299" on="1"/>
        <pt x="439" y="278" on="0"/>
        <pt x="348" y="264" on="0"/>
        <pt x="310" y="264" on="1"/>
        <pt x="296" y="264" on="0"/>
        <pt x="264" y="266" on="0"/>
        <pt x="247" y="268" on="1"/>
        <pt x="211" y="138" on="1"/>
        <pt x="206" y="121" on="0"/>
        <pt x="201" y="93" on="0"/>
        <pt x="201" y="85" on="1"/>
        <pt x="201" y="70" on="0"/>
        <pt x="223" y="53" on="0"/>
        <pt x="254" y="44" on="0"/>
        <pt x="290" y="42" on="0"/>
        <pt x="305" y="42" on="1"/>
        <pt x="305" y="0" on="1"/>
        <pt x="293" y="0" on="0"/>
        <pt x="257" y="3" on="0"/>
        <pt x="214" y="7" on="0"/>
        <pt x="170" y="10" on="0"/>
        <pt x="151" y="10" on="1"/>
        <pt x="113" y="10" on="0"/>
        <pt x="40" y="0" on="0"/>
        <pt x="17" y="0" on="1"/>
        <pt x="17" y="42" on="1"/>
        <pt x="62" y="42" on="0"/>
        <pt x="119" y="70" on="0"/>
        <pt x="128" y="99" on="1"/>
        <pt x="185" y="280" on="1"/>
        <pt x="157" y="288" on="0"/>
        <pt x="107" y="315" on="0"/>
        <pt x="70" y="352" on="0"/>
        <pt x="49" y="399" on="0"/>
        <pt x="49" y="429" on="1"/>
        <pt x="49" y="445" on="0"/>
        <pt x="56" y="459" on="0"/>
        <pt x="63" y="465" on="1"/>
        <pt x="47" y="485" on="0"/>
        <pt x="47" y="512" on="1"/>
        <pt x="47" y="529" on="0"/>
        <pt x="60" y="562" on="0"/>
        <pt x="83" y="587" on="0"/>
        <pt x="115" y="602" on="0"/>
        <pt x="135" y="602" on="1"/>
        <pt x="145" y="602" on="0"/>
        <pt x="162" y="597" on="0"/>
        <pt x="177" y="588" on="0"/>
        <pt x="194" y="573" on="0"/>
        <pt x="205" y="564" on="1"/>
        <pt x="167" y="548" on="0"/>
        <pt x="133" y="484" on="0"/>
        <pt x="133" y="449" on="1"/>
        <pt x="133" y="401" on="0"/>
        <pt x="173" y="347" on="0"/>
        <pt x="202" y="334" on="1"/>
        <pt x="352" y="786" on="1"/>
        <pt x="403" y="786" on="0"/>
        <pt x="509" y="808" on="0"/>
        <pt x="557" y="820" on="1"/>
        <pt x="577" y="785" on="1"/>
        <pt x="535" y="777" on="0"/>
        <pt x="509" y="754" on="0"/>
        <pt x="509" y="726" on="1"/>
        <pt x="509" y="716" on="0"/>
        <pt x="512" y="686" on="0"/>
        <pt x="523" y="631" on="0"/>
        <pt x="543" y="545" on="0"/>
        <pt x="576" y="412" on="0"/>
        <pt x="625" y="226" on="0"/>
      </contour>
      <contour>
        <pt x="522" y="990" on="1"/>
        <pt x="522" y="956" on="0"/>
        <pt x="502" y="910" on="0"/>
        <pt x="466" y="881" on="0"/>
        <pt x="414" y="869" on="0"/>
        <pt x="383" y="869" on="1"/>
        <pt x="351" y="869" on="0"/>
        <pt x="300" y="881" on="0"/>
        <pt x="264" y="910" on="0"/>
        <pt x="245" y="956" on="0"/>
        <pt x="245" y="990" on="1"/>
        <pt x="328" y="990" on="1"/>
        <pt x="326" y="980" on="0"/>
        <pt x="326" y="973" on="1"/>
        <pt x="326" y="956" on="0"/>
        <pt x="350" y="921" on="0"/>
        <pt x="383" y="921" on="1"/>
        <pt x="400" y="921" on="0"/>
        <pt x="422" y="931" on="0"/>
        <pt x="434" y="946" on="0"/>
        <pt x="439" y="964" on="0"/>
        <pt x="439" y="973" on="1"/>
        <pt x="439" y="980" on="0"/>
        <pt x="437" y="990" on="1"/>
      </contour>
    </TTGlyph>
    <TTGlyph name="Acircumflex" xMin="17" yMin="0" xMax="774" yMax="990">
      <contour>
        <pt x="485" y="354" on="1"/>
        <pt x="456" y="460" on="0"/>
        <pt x="420" y="598" on="0"/>
        <pt x="398" y="682" on="0"/>
        <pt x="386" y="722" on="0"/>
        <pt x="383" y="730" on="1"/>
        <pt x="262" y="320" on="1"/>
        <pt x="279" y="318" on="0"/>
        <pt x="309" y="316" on="0"/>
        <pt x="322" y="316" on="1"/>
        <pt x="354" y="316" on="0"/>
        <pt x="435" y="330" on="0"/>
      </contour>
      <contour>
        <pt x="659" y="99" on="1"/>
        <pt x="667" y="70" on="0"/>
        <pt x="729" y="42" on="0"/>
        <pt x="774" y="42" on="1"/>
        <pt x="774" y="0" on="1"/>
        <pt x="762" y="0" on="0"/>
        <pt x="727" y="3" on="0"/>
        <pt x="686" y="7" on="0"/>
        <pt x="643" y="10" on="0"/>
        <pt x="624" y="10" on="1"/>
        <pt x="605" y="10" on="0"/>
        <pt x="556" y="7" on="0"/>
        <pt x="509" y="3" on="0"/>
        <pt x="468" y="0" on="0"/>
        <pt x="456" y="0" on="1"/>
        <pt x="456" y="42" on="1"/>
        <pt x="471" y="42" on="0"/>
        <pt x="505" y="44" on="0"/>
        <pt x="534" y="53" on="0"/>
        <pt x="553" y="70" on="0"/>
        <pt x="553" y="85" on="1"/>
        <pt x="553" y="89" on="0"/>
        <pt x="550" y="105" on="0"/>
        <pt x="538" y="149" on="0"/>
        <pt x="517" y="230" on="0"/>
        <pt x="499" y="299" on="1"/>
        <pt x="439" y="278" on="0"/>
        <pt x="348" y="264" on="0"/>
        <pt x="310" y="264" on="1"/>
        <pt x="296" y="264" on="0"/>
        <pt x="264" y="266" on="0"/>
        <pt x="247" y="268" on="1"/>
        <pt x="211" y="138" on="1"/>
        <pt x="206" y="121" on="0"/>
        <pt x="201" y="93" on="0"/>
        <pt x="201" y="85" on="1"/>
        <pt x="201" y="70" on="0"/>
        <pt x="223" y="53" on="0"/>
        <pt x="254" y="44" on="0"/>
        <pt x="290" y="42" on="0"/>
        <pt x="305" y="42" on="1"/>
        <pt x="305" y="0" on="1"/>
        <pt x="293" y="0" on="0"/>
        <pt x="257" y="3" on="0"/>
        <pt x="214" y="7" on="0"/>
        <pt x="170" y="10" on="0"/>
        <pt x="151" y="10" on="1"/>
        <pt x="113" y="10" on="0"/>
        <pt x="40" y="0" on="0"/>
        <pt x="17" y="0" on="1"/>
        <pt x="17" y="42" on="1"/>
        <pt x="62" y="42" on="0"/>
        <pt x="119" y="70" on="0"/>
        <pt x="128" y="99" on="1"/>
        <pt x="185" y="280" on="1"/>
        <pt x="157" y="288" on="0"/>
        <pt x="107" y="315" on="0"/>
        <pt x="70" y="352" on="0"/>
        <pt x="49" y="399" on="0"/>
        <pt x="49" y="429" on="1"/>
        <pt x="49" y="445" on="0"/>
        <pt x="56" y="459" on="0"/>
        <pt x="63" y="465" on="1"/>
        <pt x="47" y="485" on="0"/>
        <pt x="47" y="512" on="1"/>
        <pt x="47" y="529" on="0"/>
        <pt x="60" y="562" on="0"/>
        <pt x="83" y="587" on="0"/>
        <pt x="115" y="602" on="0"/>
        <pt x="135" y="602" on="1"/>
        <pt x="145" y="602" on="0"/>
        <pt x="162" y="597" on="0"/>
        <pt x="177" y="588" on="0"/>
        <pt x="194" y="573" on="0"/>
        <pt x="205" y="564" on="1"/>
        <pt x="167" y="548" on="0"/>
        <pt x="133" y="484" on="0"/>
        <pt x="133" y="449" on="1"/>
        <pt x="133" y="401" on="0"/>
        <pt x="173" y="347" on="0"/>
        <pt x="202" y="334" on="1"/>
        <pt x="352" y="786" on="1"/>
        <pt x="403" y="786" on="0"/>
        <pt x="509" y="808" on="0"/>
        <pt x="557" y="820" on="1"/>
        <pt x="577" y="785" on="1"/>
        <pt x="535" y="777" on="0"/>
        <pt x="509" y="754" on="0"/>
        <pt x="509" y="726" on="1"/>
        <pt x="509" y="716" on="0"/>
        <pt x="512" y="686" on="0"/>
        <pt x="523" y="631" on="0"/>
        <pt x="543" y="545" on="0"/>
        <pt x="576" y="412" on="0"/>
        <pt x="625" y="226" on="0"/>
      </contour>
      <contour>
        <pt x="411" y="972" on="1"/>
        <pt x="415" y="974" on="0"/>
        <pt x="420" y="974" on="1"/>
        <pt x="436" y="974" on="0"/>
        <pt x="452" y="958" on="0"/>
        <pt x="470" y="932" on="0"/>
        <pt x="500" y="902" on="0"/>
        <pt x="531" y="887" on="1"/>
        <pt x="534" y="885" on="0"/>
        <pt x="537" y="875" on="0"/>
        <pt x="537" y="870" on="1"/>
        <pt x="537" y="856" on="0"/>
        <pt x="519" y="845" on="0"/>
        <pt x="509" y="845" on="1"/>
        <pt x="501" y="845" on="0"/>
        <pt x="493" y="852" on="1"/>
        <pt x="453" y="871" on="0"/>
        <pt x="395" y="915" on="0"/>
        <pt x="384" y="922" on="1"/>
        <pt x="373" y="915" on="0"/>
        <pt x="316" y="871" on="0"/>
        <pt x="276" y="852" on="1"/>
        <pt x="268" y="845" on="0"/>
        <pt x="257" y="845" on="1"/>
        <pt x="246" y="845" on="0"/>
        <pt x="232" y="860" on="0"/>
        <pt x="232" y="871" on="1"/>
        <pt x="232" y="875" on="0"/>
        <pt x="233" y="884" on="0"/>
        <pt x="238" y="887" on="1"/>
        <pt x="269" y="902" on="0"/>
        <pt x="299" y="932" on="0"/>
        <pt x="317" y="958" on="0"/>
        <pt x="332" y="974" on="0"/>
        <pt x="349" y="974" on="1"/>
        <pt x="354" y="974" on="0"/>
        <pt x="358" y="972" on="1"/>
        <pt x="360" y="980" on="0"/>
        <pt x="374" y="990" on="0"/>
        <pt x="383" y="990" on="1"/>
        <pt x="393" y="990" on="0"/>
        <pt x="409" y="980" on="0"/>
      </contour>
    </TTGlyph>
    <TTGlyph name="Adieresis" xMin="17" yMin="0" xMax="774" yMax="990">
      <contour>
        <pt x="485" y="354" on="1"/>
        <pt x="456" y="460" on="0"/>
        <pt x="420" y="598" on="0"/>
        <pt x="398" y="682" on="0"/>
        <pt x="386" y="722" on="0"/>
        <pt x="383" y="730" on="1"/>
        <pt x="262" y="320" on="1"/>
        <pt x="279" y="318" on="0"/>
        <pt x="309" y="316" on="0"/>
        <pt x="322" y="316" on="1"/>
        <pt x="354" y="316" on="0"/>
        <pt x="435" y="330" on="0"/>
      </contour>
      <contour>
        <pt x="659" y="99" on="1"/>
        <pt x="667" y="70" on="0"/>
        <pt x="729" y="42" on="0"/>
        <pt x="774" y="42" on="1"/>
        <pt x="774" y="0" on="1"/>
        <pt x="762" y="0" on="0"/>
        <pt x="727" y="3" on="0"/>
        <pt x="686" y="7" on="0"/>
        <pt x="643" y="10" on="0"/>
        <pt x="624" y="10" on="1"/>
        <pt x="605" y="10" on="0"/>
        <pt x="556" y="7" on="0"/>
        <pt x="509" y="3" on="0"/>
        <pt x="468" y="0" on="0"/>
        <pt x="456" y="0" on="1"/>
        <pt x="456" y="42" on="1"/>
        <pt x="471" y="42" on="0"/>
        <pt x="505" y="44" on="0"/>
        <pt x="534" y="53" on="0"/>
        <pt x="553" y="70" on="0"/>
        <pt x="553" y="85" on="1"/>
        <pt x="553" y="89" on="0"/>
        <pt x="550" y="105" on="0"/>
        <pt x="538" y="149" on="0"/>
        <pt x="517" y="230" on="0"/>
        <pt x="499" y="299" on="1"/>
        <pt x="439" y="278" on="0"/>
        <pt x="348" y="264" on="0"/>
        <pt x="310" y="264" on="1"/>
        <pt x="296" y="264" on="0"/>
        <pt x="264" y="266" on="0"/>
        <pt x="247" y="268" on="1"/>
        <pt x="211" y="138" on="1"/>
        <pt x="206" y="121" on="0"/>
        <pt x="201" y="93" on="0"/>
        <pt x="201" y="85" on="1"/>
        <pt x="201" y="70" on="0"/>
        <pt x="223" y="53" on="0"/>
        <pt x="254" y="44" on="0"/>
        <pt x="290" y="42" on="0"/>
        <pt x="305" y="42" on="1"/>
        <pt x="305" y="0" on="1"/>
        <pt x="293" y="0" on="0"/>
        <pt x="257" y="3" on="0"/>
        <pt x="214" y="7" on="0"/>
        <pt x="170" y="10" on="0"/>
        <pt x="151" y="10" on="1"/>
        <pt x="113" y="10" on="0"/>
        <pt x="40" y="0" on="0"/>
        <pt x="17" y="0" on="1"/>
        <pt x="17" y="42" on="1"/>
        <pt x="62" y="42" on="0"/>
        <pt x="119" y="70" on="0"/>
        <pt x="128" y="99" on="1"/>
        <pt x="185" y="280" on="1"/>
        <pt x="157" y="288" on="0"/>
        <pt x="107" y="315" on="0"/>
        <pt x="70" y="352" on="0"/>
        <pt x="49" y="399" on="0"/>
        <pt x="49" y="429" on="1"/>
        <pt x="49" y="445" on="0"/>
        <pt x="56" y="459" on="0"/>
        <pt x="63" y="465" on="1"/>
        <pt x="47" y="485" on="0"/>
        <pt x="47" y="512" on="1"/>
        <pt x="47" y="529" on="0"/>
        <pt x="60" y="562" on="0"/>
        <pt x="83" y="587" on="0"/>
        <pt x="115" y="602" on="0"/>
        <pt x="135" y="602" on="1"/>
        <pt x="145" y="602" on="0"/>
        <pt x="162" y="597" on="0"/>
        <pt x="177" y="588" on="0"/>
        <pt x="194" y="573" on="0"/>
        <pt x="205" y="564" on="1"/>
        <pt x="167" y="548" on="0"/>
        <pt x="133" y="484" on="0"/>
        <pt x="133" y="449" on="1"/>
        <pt x="133" y="401" on="0"/>
        <pt x="173" y="347" on="0"/>
        <pt x="202" y="334" on="1"/>
        <pt x="352" y="786" on="1"/>
        <pt x="403" y="786" on="0"/>
        <pt x="509" y="808" on="0"/>
        <pt x="557" y="820" on="1"/>
        <pt x="577" y="785" on="1"/>
        <pt x="535" y="777" on="0"/>
        <pt x="509" y="754" on="0"/>
        <pt x="509" y="726" on="1"/>
        <pt x="509" y="716" on="0"/>
        <pt x="512" y="686" on="0"/>
        <pt x="523" y="631" on="0"/>
        <pt x="543" y="545" on="0"/>
        <pt x="576" y="412" on="0"/>
        <pt x="625" y="226" on="0"/>
      </contour>
      <contour>
        <pt x="210" y="925" on="1"/>
        <pt x="210" y="953" on="0"/>
        <pt x="248" y="990" on="0"/>
        <pt x="274" y="990" on="1"/>
        <pt x="300" y="990" on="0"/>
        <pt x="338" y="953" on="0"/>
        <pt x="338" y="925" on="1"/>
        <pt x="338" y="898" on="0"/>
        <pt x="300" y="861" on="0"/>
        <pt x="274" y="861" on="1"/>
        <pt x="248" y="861" on="0"/>
        <pt x="210" y="898" on="0"/>
      </contour>
      <contour>
        <pt x="428" y="925" on="1"/>
        <pt x="428" y="953" on="0"/>
        <pt x="466" y="990" on="0"/>
        <pt x="492" y="990" on="1"/>
        <pt x="518" y="990" on="0"/>
        <pt x="556" y="953" on="0"/>
        <pt x="556" y="925" on="1"/>
        <pt x="556" y="898" on="0"/>
        <pt x="518" y="861" on="0"/>
        <pt x="492" y="861" on="1"/>
        <pt x="466" y="861" on="0"/>
        <pt x="428" y="898" on="0"/>
      </contour>
    </TTGlyph>
    <TTGlyph name="Agrave" xMin="17" yMin="0" xMax="774" yMax="990">
      <contour>
        <pt x="485" y="354" on="1"/>
        <pt x="456" y="460" on="0"/>
        <pt x="420" y="598" on="0"/>
        <pt x="398" y="682" on="0"/>
        <pt x="386" y="722" on="0"/>
        <pt x="383" y="730" on="1"/>
        <pt x="262" y="320" on="1"/>
        <pt x="279" y="318" on="0"/>
        <pt x="309" y="316" on="0"/>
        <pt x="322" y="316" on="1"/>
        <pt x="354" y="316" on="0"/>
        <pt x="435" y="330" on="0"/>
      </contour>
      <contour>
        <pt x="659" y="99" on="1"/>
        <pt x="667" y="70" on="0"/>
        <pt x="729" y="42" on="0"/>
        <pt x="774" y="42" on="1"/>
        <pt x="774" y="0" on="1"/>
        <pt x="762" y="0" on="0"/>
        <pt x="727" y="3" on="0"/>
        <pt x="686" y="7" on="0"/>
        <pt x="643" y="10" on="0"/>
        <pt x="624" y="10" on="1"/>
        <pt x="605" y="10" on="0"/>
        <pt x="556" y="7" on="0"/>
        <pt x="509" y="3" on="0"/>
        <pt x="468" y="0" on="0"/>
        <pt x="456" y="0" on="1"/>
        <pt x="456" y="42" on="1"/>
        <pt x="471" y="42" on="0"/>
        <pt x="505" y="44" on="0"/>
        <pt x="534" y="53" on="0"/>
        <pt x="553" y="70" on="0"/>
        <pt x="553" y="85" on="1"/>
        <pt x="553" y="89" on="0"/>
        <pt x="550" y="105" on="0"/>
        <pt x="538" y="149" on="0"/>
        <pt x="517" y="230" on="0"/>
        <pt x="499" y="299" on="1"/>
        <pt x="439" y="278" on="0"/>
        <pt x="348" y="264" on="0"/>
        <pt x="310" y="264" on="1"/>
        <pt x="296" y="264" on="0"/>
        <pt x="264" y="266" on="0"/>
        <pt x="247" y="268" on="1"/>
        <pt x="211" y="138" on="1"/>
        <pt x="206" y="121" on="0"/>
        <pt x="201" y="93" on="0"/>
        <pt x="201" y="85" on="1"/>
        <pt x="201" y="70" on="0"/>
        <pt x="223" y="53" on="0"/>
        <pt x="254" y="44" on="0"/>
        <pt x="290" y="42" on="0"/>
        <pt x="305" y="42" on="1"/>
        <pt x="305" y="0" on="1"/>
        <pt x="293" y="0" on="0"/>
        <pt x="257" y="3" on="0"/>
        <pt x="214" y="7" on="0"/>
        <pt x="170" y="10" on="0"/>
        <pt x="151" y="10" on="1"/>
        <pt x="113" y="10" on="0"/>
        <pt x="40" y="0" on="0"/>
        <pt x="17" y="0" on="1"/>
        <pt x="17" y="42" on="1"/>
        <pt x="62" y="42" on="0"/>
        <pt x="119" y="70" on="0"/>
        <pt x="128" y="99" on="1"/>
        <pt x="185" y="280" on="1"/>
        <pt x="157" y="288" on="0"/>
        <pt x="107" y="315" on="0"/>
        <pt x="70" y="352" on="0"/>
        <pt x="49" y="399" on="0"/>
        <pt x="49" y="429" on="1"/>
        <pt x="49" y="445" on="0"/>
        <pt x="56" y="459" on="0"/>
        <pt x="63" y="465" on="1"/>
        <pt x="47" y="485" on="0"/>
        <pt x="47" y="512" on="1"/>
        <pt x="47" y="529" on="0"/>
        <pt x="60" y="562" on="0"/>
        <pt x="83" y="587" on="0"/>
        <pt x="115" y="602" on="0"/>
        <pt x="135" y="602" on="1"/>
        <pt x="145" y="602" on="0"/>
        <pt x="162" y="597" on="0"/>
        <pt x="177" y="588" on="0"/>
        <pt x="194" y="573" on="0"/>
        <pt x="205" y="564" on="1"/>
        <pt x="167" y="548" on="0"/>
        <pt x="133" y="484" on="0"/>
        <pt x="133" y="449" on="1"/>
        <pt x="133" y="401" on="0"/>
        <pt x="173" y="347" on="0"/>
        <pt x="202" y="334" on="1"/>
        <pt x="352" y="786" on="1"/>
        <pt x="403" y="786" on="0"/>
        <pt x="509" y="808" on="0"/>
        <pt x="557" y="820" on="1"/>
        <pt x="577" y="785" on="1"/>
        <pt x="535" y="777" on="0"/>
        <pt x="509" y="754" on="0"/>
        <pt x="509" y="726" on="1"/>
        <pt x="509" y="716" on="0"/>
        <pt x="512" y="686" on="0"/>
        <pt x="523" y="631" on="0"/>
        <pt x="543" y="545" on="0"/>
        <pt x="576" y="412" on="0"/>
        <pt x="625" y="226" on="0"/>
      </contour>
      <contour>
        <pt x="273" y="981" on="1"/>
        <pt x="277" y="986" on="0"/>
        <pt x="288" y="990" on="0"/>
        <pt x="293" y="990" on="1"/>
        <pt x="304" y="990" on="0"/>
        <pt x="326" y="975" on="0"/>
        <pt x="355" y="951" on="0"/>
        <pt x="394" y="922" on="0"/>
        <pt x="422" y="907" on="1"/>
        <pt x="436" y="899" on="0"/>
        <pt x="436" y="885" on="1"/>
        <pt x="436" y="877" on="0"/>
        <pt x="424" y="859" on="0"/>
        <pt x="410" y="859" on="1"/>
        <pt x="406" y="859" on="0"/>
        <pt x="400" y="861" on="1"/>
        <pt x="359" y="874" on="0"/>
        <pt x="300" y="884" on="0"/>
        <pt x="263" y="892" on="0"/>
        <pt x="245" y="904" on="0"/>
        <pt x="245" y="921" on="1"/>
        <pt x="245" y="926" on="0"/>
        <pt x="246" y="928" on="1"/>
        <pt x="237" y="932" on="0"/>
        <pt x="225" y="949" on="0"/>
        <pt x="225" y="958" on="1"/>
        <pt x="225" y="970" on="0"/>
        <pt x="246" y="985" on="0"/>
        <pt x="257" y="985" on="1"/>
        <pt x="266" y="985" on="0"/>
      </contour>
    </TTGlyph>
    <TTGlyph name="Amacron" xMin="17" yMin="0" xMax="774" yMax="970">
      <contour>
        <pt x="485" y="354" on="1"/>
        <pt x="456" y="460" on="0"/>
        <pt x="420" y="598" on="0"/>
        <pt x="398" y="682" on="0"/>
        <pt x="386" y="722" on="0"/>
        <pt x="383" y="730" on="1"/>
        <pt x="262" y="320" on="1"/>
        <pt x="279" y="318" on="0"/>
        <pt x="309" y="316" on="0"/>
        <pt x="322" y="316" on="1"/>
        <pt x="354" y="316" on="0"/>
        <pt x="435" y="330" on="0"/>
      </contour>
      <contour>
        <pt x="659" y="99" on="1"/>
        <pt x="667" y="70" on="0"/>
        <pt x="729" y="42" on="0"/>
        <pt x="774" y="42" on="1"/>
        <pt x="774" y="0" on="1"/>
        <pt x="762" y="0" on="0"/>
        <pt x="727" y="3" on="0"/>
        <pt x="686" y="7" on="0"/>
        <pt x="643" y="10" on="0"/>
        <pt x="624" y="10" on="1"/>
        <pt x="605" y="10" on="0"/>
        <pt x="556" y="7" on="0"/>
        <pt x="509" y="3" on="0"/>
        <pt x="468" y="0" on="0"/>
        <pt x="456" y="0" on="1"/>
        <pt x="456" y="42" on="1"/>
        <pt x="471" y="42" on="0"/>
        <pt x="505" y="44" on="0"/>
        <pt x="534" y="53" on="0"/>
        <pt x="553" y="70" on="0"/>
        <pt x="553" y="85" on="1"/>
        <pt x="553" y="89" on="0"/>
        <pt x="550" y="105" on="0"/>
        <pt x="538" y="149" on="0"/>
        <pt x="517" y="230" on="0"/>
        <pt x="499" y="299" on="1"/>
        <pt x="439" y="278" on="0"/>
        <pt x="348" y="264" on="0"/>
        <pt x="310" y="264" on="1"/>
        <pt x="296" y="264" on="0"/>
        <pt x="264" y="266" on="0"/>
        <pt x="247" y="268" on="1"/>
        <pt x="211" y="138" on="1"/>
        <pt x="206" y="121" on="0"/>
        <pt x="201" y="93" on="0"/>
        <pt x="201" y="85" on="1"/>
        <pt x="201" y="70" on="0"/>
        <pt x="223" y="53" on="0"/>
        <pt x="254" y="44" on="0"/>
        <pt x="290" y="42" on="0"/>
        <pt x="305" y="42" on="1"/>
        <pt x="305" y="0" on="1"/>
        <pt x="293" y="0" on="0"/>
        <pt x="257" y="3" on="0"/>
        <pt x="214" y="7" on="0"/>
        <pt x="170" y="10" on="0"/>
        <pt x="151" y="10" on="1"/>
        <pt x="113" y="10" on="0"/>
        <pt x="40" y="0" on="0"/>
        <pt x="17" y="0" on="1"/>
        <pt x="17" y="42" on="1"/>
        <pt x="62" y="42" on="0"/>
        <pt x="119" y="70" on="0"/>
        <pt x="128" y="99" on="1"/>
        <pt x="185" y="280" on="1"/>
        <pt x="157" y="288" on="0"/>
        <pt x="107" y="315" on="0"/>
        <pt x="70" y="352" on="0"/>
        <pt x="49" y="399" on="0"/>
        <pt x="49" y="429" on="1"/>
        <pt x="49" y="445" on="0"/>
        <pt x="56" y="459" on="0"/>
        <pt x="63" y="465" on="1"/>
        <pt x="47" y="485" on="0"/>
        <pt x="47" y="512" on="1"/>
        <pt x="47" y="529" on="0"/>
        <pt x="60" y="562" on="0"/>
        <pt x="83" y="587" on="0"/>
        <pt x="115" y="602" on="0"/>
        <pt x="135" y="602" on="1"/>
        <pt x="145" y="602" on="0"/>
        <pt x="162" y="597" on="0"/>
        <pt x="177" y="588" on="0"/>
        <pt x="194" y="573" on="0"/>
        <pt x="205" y="564" on="1"/>
        <pt x="167" y="548" on="0"/>
        <pt x="133" y="484" on="0"/>
        <pt x="133" y="449" on="1"/>
        <pt x="133" y="401" on="0"/>
        <pt x="173" y="347" on="0"/>
        <pt x="202" y="334" on="1"/>
        <pt x="352" y="786" on="1"/>
        <pt x="403" y="786" on="0"/>
        <pt x="509" y="808" on="0"/>
        <pt x="557" y="820" on="1"/>
        <pt x="577" y="785" on="1"/>
        <pt x="535" y="777" on="0"/>
        <pt x="509" y="754" on="0"/>
        <pt x="509" y="726" on="1"/>
        <pt x="509" y="716" on="0"/>
        <pt x="512" y="686" on="0"/>
        <pt x="523" y="631" on="0"/>
        <pt x="543" y="545" on="0"/>
        <pt x="576" y="412" on="0"/>
        <pt x="625" y="226" on="0"/>
      </contour>
      <contour>
        <pt x="324" y="902" on="1"/>
        <pt x="309" y="902" on="0"/>
        <pt x="290" y="901" on="0"/>
        <pt x="274" y="899" on="0"/>
        <pt x="256" y="896" on="0"/>
        <pt x="243" y="895" on="1"/>
        <pt x="238" y="901" on="0"/>
        <pt x="229" y="925" on="0"/>
        <pt x="229" y="936" on="1"/>
        <pt x="229" y="970" on="0"/>
        <pt x="304" y="970" on="1"/>
        <pt x="346" y="970" on="0"/>
        <pt x="430" y="958" on="0"/>
        <pt x="458" y="958" on="1"/>
        <pt x="475" y="958" on="0"/>
        <pt x="518" y="961" on="0"/>
        <pt x="540" y="965" on="1"/>
        <pt x="545" y="959" on="0"/>
        <pt x="554" y="936" on="0"/>
        <pt x="554" y="926" on="1"/>
        <pt x="554" y="906" on="0"/>
        <pt x="512" y="890" on="0"/>
        <pt x="470" y="890" on="1"/>
        <pt x="447" y="890" on="0"/>
        <pt x="412" y="894" on="0"/>
        <pt x="379" y="898" on="0"/>
        <pt x="346" y="902" on="0"/>
      </contour>
    </TTGlyph>
    <TTGlyph name="Aogonek" xMin="17" yMin="-235" xMax="774" yMax="820">
      <contour>
        <pt x="659" y="99" on="1"/>
        <pt x="667" y="70" on="0"/>
        <pt x="729" y="42" on="0"/>
        <pt x="774" y="42" on="1"/>
        <pt x="774" y="0" on="1"/>
        <pt x="754" y="0" on="0"/>
        <pt x="680" y="7" on="0"/>
        <pt x="645" y="9" on="1"/>
        <pt x="633" y="-13" on="0"/>
        <pt x="610" y="-49" on="0"/>
        <pt x="594" y="-83" on="0"/>
        <pt x="584" y="-115" on="0"/>
        <pt x="584" y="-133" on="1"/>
        <pt x="584" y="-165" on="0"/>
        <pt x="621" y="-199" on="0"/>
        <pt x="647" y="-199" on="1"/>
        <pt x="655" y="-199" on="0"/>
        <pt x="688" y="-193" on="0"/>
        <pt x="694" y="-185" on="1"/>
        <pt x="697" y="-190" on="1"/>
        <pt x="690" y="-204" on="0"/>
        <pt x="667" y="-221" on="0"/>
        <pt x="641" y="-231" on="0"/>
        <pt x="615" y="-235" on="0"/>
        <pt x="605" y="-235" on="1"/>
        <pt x="572" y="-235" on="0"/>
        <pt x="532" y="-200" on="0"/>
        <pt x="532" y="-175" on="1"/>
        <pt x="516" y="-166" on="0"/>
        <pt x="507" y="-140" on="0"/>
        <pt x="507" y="-124" on="1"/>
        <pt x="507" y="-101" on="0"/>
        <pt x="519" y="-67" on="0"/>
        <pt x="541" y="-37" on="0"/>
        <pt x="571" y="-8" on="0"/>
        <pt x="588" y="9" on="1"/>
        <pt x="570" y="8" on="0"/>
        <pt x="531" y="5" on="0"/>
        <pt x="495" y="2" on="0"/>
        <pt x="465" y="0" on="0"/>
        <pt x="456" y="0" on="1"/>
        <pt x="456" y="42" on="1"/>
        <pt x="471" y="42" on="0"/>
        <pt x="505" y="44" on="0"/>
        <pt x="534" y="53" on="0"/>
        <pt x="553" y="70" on="0"/>
        <pt x="553" y="85" on="1"/>
        <pt x="553" y="89" on="0"/>
        <pt x="550" y="105" on="0"/>
        <pt x="538" y="149" on="0"/>
        <pt x="517" y="230" on="0"/>
        <pt x="499" y="299" on="1"/>
        <pt x="439" y="278" on="0"/>
        <pt x="348" y="264" on="0"/>
        <pt x="310" y="264" on="1"/>
        <pt x="296" y="264" on="0"/>
        <pt x="264" y="266" on="0"/>
        <pt x="247" y="268" on="1"/>
        <pt x="211" y="138" on="1"/>
        <pt x="206" y="121" on="0"/>
        <pt x="201" y="93" on="0"/>
        <pt x="201" y="85" on="1"/>
        <pt x="201" y="70" on="0"/>
        <pt x="223" y="53" on="0"/>
        <pt x="254" y="44" on="0"/>
        <pt x="290" y="42" on="0"/>
        <pt x="305" y="42" on="1"/>
        <pt x="305" y="0" on="1"/>
        <pt x="293" y="0" on="0"/>
        <pt x="257" y="3" on="0"/>
        <pt x="214" y="7" on="0"/>
        <pt x="170" y="10" on="0"/>
        <pt x="151" y="10" on="1"/>
        <pt x="113" y="10" on="0"/>
        <pt x="40" y="0" on="0"/>
        <pt x="17" y="0" on="1"/>
        <pt x="17" y="42" on="1"/>
        <pt x="62" y="42" on="0"/>
        <pt x="119" y="70" on="0"/>
        <pt x="128" y="99" on="1"/>
        <pt x="185" y="280" on="1"/>
        <pt x="157" y="288" on="0"/>
        <pt x="107" y="315" on="0"/>
        <pt x="70" y="352" on="0"/>
        <pt x="49" y="399" on="0"/>
        <pt x="49" y="429" on="1"/>
        <pt x="49" y="445" on="0"/>
        <pt x="56" y="459" on="0"/>
        <pt x="63" y="465" on="1"/>
        <pt x="47" y="485" on="0"/>
        <pt x="47" y="512" on="1"/>
        <pt x="47" y="529" on="0"/>
        <pt x="60" y="562" on="0"/>
        <pt x="83" y="587" on="0"/>
        <pt x="115" y="602" on="0"/>
        <pt x="135" y="602" on="1"/>
        <pt x="145" y="602" on="0"/>
        <pt x="162" y="597" on="0"/>
        <pt x="177" y="588" on="0"/>
        <pt x="194" y="573" on="0"/>
        <pt x="205" y="564" on="1"/>
        <pt x="167" y="548" on="0"/>
        <pt x="133" y="484" on="0"/>
        <pt x="133" y="449" on="1"/>
        <pt x="133" y="401" on="0"/>
        <pt x="173" y="347" on="0"/>
        <pt x="202" y="334" on="1"/>
        <pt x="352" y="786" on="1"/>
        <pt x="403" y="786" on="0"/>
        <pt x="509" y="808" on="0"/>
        <pt x="557" y="820" on="1"/>
        <pt x="577" y="785" on="1"/>
        <pt x="535" y="777" on="0"/>
        <pt x="509" y="754" on="0"/>
        <pt x="509" y="726" on="1"/>
        <pt x="509" y="716" on="0"/>
        <pt x="512" y="686" on="0"/>
        <pt x="523" y="631" on="0"/>
        <pt x="543" y="545" on="0"/>
        <pt x="576" y="412" on="0"/>
        <pt x="625" y="226" on="0"/>
      </contour>
      <contour>
        <pt x="485" y="354" on="1"/>
        <pt x="456" y="460" on="0"/>
        <pt x="420" y="598" on="0"/>
        <pt x="398" y="682" on="0"/>
        <pt x="386" y="722" on="0"/>
        <pt x="383" y="730" on="1"/>
        <pt x="262" y="320" on="1"/>
        <pt x="279" y="318" on="0"/>
        <pt x="309" y="316" on="0"/>
        <pt x="322" y="316" on="1"/>
        <pt x="354" y="316" on="0"/>
        <pt x="435" y="330" on="0"/>
      </contour>
    </TTGlyph>
    <TTGlyph name="Aring" xMin="17" yMin="0" xMax="774" yMax="990">
      <contour>
        <pt x="485" y="354" on="1"/>
        <pt x="456" y="460" on="0"/>
        <pt x="420" y="598" on="0"/>
        <pt x="398" y="682" on="0"/>
        <pt x="386" y="722" on="0"/>
        <pt x="383" y="730" on="1"/>
        <pt x="262" y="320" on="1"/>
        <pt x="279" y="318" on="0"/>
        <pt x="309" y="316" on="0"/>
        <pt x="322" y="316" on="1"/>
        <pt x="354" y="316" on="0"/>
        <pt x="435" y="330" on="0"/>
      </contour>
      <contour>
        <pt x="659" y="99" on="1"/>
        <pt x="667" y="70" on="0"/>
        <pt x="729" y="42" on="0"/>
        <pt x="774" y="42" on="1"/>
        <pt x="774" y="0" on="1"/>
        <pt x="762" y="0" on="0"/>
        <pt x="727" y="3" on="0"/>
        <pt x="686" y="7" on="0"/>
        <pt x="643" y="10" on="0"/>
        <pt x="624" y="10" on="1"/>
        <pt x="605" y="10" on="0"/>
        <pt x="556" y="7" on="0"/>
        <pt x="509" y="3" on="0"/>
        <pt x="468" y="0" on="0"/>
        <pt x="456" y="0" on="1"/>
        <pt x="456" y="42" on="1"/>
        <pt x="471" y="42" on="0"/>
        <pt x="505" y="44" on="0"/>
        <pt x="534" y="53" on="0"/>
        <pt x="553" y="70" on="0"/>
        <pt x="553" y="85" on="1"/>
        <pt x="553" y="89" on="0"/>
        <pt x="550" y="105" on="0"/>
        <pt x="538" y="149" on="0"/>
        <pt x="517" y="230" on="0"/>
        <pt x="499" y="299" on="1"/>
        <pt x="439" y="278" on="0"/>
        <pt x="348" y="264" on="0"/>
        <pt x="310" y="264" on="1"/>
        <pt x="296" y="264" on="0"/>
        <pt x="264" y="266" on="0"/>
        <pt x="247" y="268" on="1"/>
        <pt x="211" y="138" on="1"/>
        <pt x="206" y="121" on="0"/>
        <pt x="201" y="93" on="0"/>
        <pt x="201" y="85" on="1"/>
        <pt x="201" y="70" on="0"/>
        <pt x="223" y="53" on="0"/>
        <pt x="254" y="44" on="0"/>
        <pt x="290" y="42" on="0"/>
        <pt x="305" y="42" on="1"/>
        <pt x="305" y="0" on="1"/>
        <pt x="293" y="0" on="0"/>
        <pt x="257" y="3" on="0"/>
        <pt x="214" y="7" on="0"/>
        <pt x="170" y="10" on="0"/>
        <pt x="151" y="10" on="1"/>
        <pt x="113" y="10" on="0"/>
        <pt x="40" y="0" on="0"/>
        <pt x="17" y="0" on="1"/>
        <pt x="17" y="42" on="1"/>
        <pt x="62" y="42" on="0"/>
        <pt x="119" y="70" on="0"/>
        <pt x="128" y="99" on="1"/>
        <pt x="185" y="280" on="1"/>
        <pt x="157" y="288" on="0"/>
        <pt x="107" y="315" on="0"/>
        <pt x="70" y="352" on="0"/>
        <pt x="49" y="399" on="0"/>
        <pt x="49" y="429" on="1"/>
        <pt x="49" y="445" on="0"/>
        <pt x="56" y="459" on="0"/>
        <pt x="63" y="465" on="1"/>
        <pt x="47" y="485" on="0"/>
        <pt x="47" y="512" on="1"/>
        <pt x="47" y="529" on="0"/>
        <pt x="60" y="562" on="0"/>
        <pt x="83" y="587" on="0"/>
        <pt x="115" y="602" on="0"/>
        <pt x="135" y="602" on="1"/>
        <pt x="145" y="602" on="0"/>
        <pt x="162" y="597" on="0"/>
        <pt x="177" y="588" on="0"/>
        <pt x="194" y="573" on="0"/>
        <pt x="205" y="564" on="1"/>
        <pt x="167" y="548" on="0"/>
        <pt x="133" y="484" on="0"/>
        <pt x="133" y="449" on="1"/>
        <pt x="133" y="401" on="0"/>
        <pt x="173" y="347" on="0"/>
        <pt x="202" y="334" on="1"/>
        <pt x="352" y="786" on="1"/>
        <pt x="403" y="786" on="0"/>
        <pt x="509" y="808" on="0"/>
        <pt x="557" y="820" on="1"/>
        <pt x="577" y="785" on="1"/>
        <pt x="535" y="777" on="0"/>
        <pt x="509" y="754" on="0"/>
        <pt x="509" y="726" on="1"/>
        <pt x="509" y="716" on="0"/>
        <pt x="512" y="686" on="0"/>
        <pt x="523" y="631" on="0"/>
        <pt x="543" y="545" on="0"/>
        <pt x="576" y="412" on="0"/>
        <pt x="625" y="226" on="0"/>
      </contour>
      <contour>
        <pt x="317" y="922" on="1"/>
        <pt x="317" y="951" on="0"/>
        <pt x="357" y="990" on="0"/>
        <pt x="385" y="990" on="1"/>
        <pt x="412" y="990" on="0"/>
        <pt x="451" y="951" on="0"/>
        <pt x="451" y="922" on="1"/>
        <pt x="451" y="893" on="0"/>
        <pt x="412" y="854" on="0"/>
        <pt x="385" y="854" on="1"/>
        <pt x="357" y="854" on="0"/>
        <pt x="317" y="893" on="0"/>
      </contour>
      <contour>
        <pt x="362" y="922" on="1"/>
        <pt x="362" y="913" on="0"/>
        <pt x="375" y="900" on="0"/>
        <pt x="384" y="900" on="1"/>
        <pt x="392" y="900" on="0"/>
        <pt x="405" y="913" on="0"/>
        <pt x="405" y="922" on="1"/>
        <pt x="405" y="930" on="0"/>
        <pt x="392" y="943" on="0"/>
        <pt x="384" y="943" on="1"/>
        <pt x="375" y="943" on="0"/>
        <pt x="362" y="930" on="0"/>
      </contour>
    </TTGlyph>
    <TTGlyph name="Aringacute" xMin="17" yMin="0" xMax="774" yMax="990">
      <contour>
        <pt x="485" y="354" on="1"/>
        <pt x="456" y="460" on="0"/>
        <pt x="420" y="598" on="0"/>
        <pt x="398" y="682" on="0"/>
        <pt x="386" y="722" on="0"/>
        <pt x="383" y="730" on="1"/>
        <pt x="262" y="320" on="1"/>
        <pt x="279" y="318" on="0"/>
        <pt x="309" y="316" on="0"/>
        <pt x="322" y="316" on="1"/>
        <pt x="354" y="316" on="0"/>
        <pt x="435" y="330" on="0"/>
      </contour>
      <contour>
        <pt x="659" y="99" on="1"/>
        <pt x="667" y="70" on="0"/>
        <pt x="729" y="42" on="0"/>
        <pt x="774" y="42" on="1"/>
        <pt x="774" y="0" on="1"/>
        <pt x="762" y="0" on="0"/>
        <pt x="727" y="3" on="0"/>
        <pt x="686" y="7" on="0"/>
        <pt x="643" y="10" on="0"/>
        <pt x="624" y="10" on="1"/>
        <pt x="605" y="10" on="0"/>
        <pt x="556" y="7" on="0"/>
        <pt x="509" y="3" on="0"/>
        <pt x="468" y="0" on="0"/>
        <pt x="456" y="0" on="1"/>
        <pt x="456" y="42" on="1"/>
        <pt x="471" y="42" on="0"/>
        <pt x="505" y="44" on="0"/>
        <pt x="534" y="53" on="0"/>
        <pt x="553" y="70" on="0"/>
        <pt x="553" y="85" on="1"/>
        <pt x="553" y="89" on="0"/>
        <pt x="550" y="105" on="0"/>
        <pt x="538" y="149" on="0"/>
        <pt x="517" y="230" on="0"/>
        <pt x="499" y="299" on="1"/>
        <pt x="439" y="278" on="0"/>
        <pt x="348" y="264" on="0"/>
        <pt x="310" y="264" on="1"/>
        <pt x="296" y="264" on="0"/>
        <pt x="264" y="266" on="0"/>
        <pt x="247" y="268" on="1"/>
        <pt x="211" y="138" on="1"/>
        <pt x="206" y="121" on="0"/>
        <pt x="201" y="93" on="0"/>
        <pt x="201" y="85" on="1"/>
        <pt x="201" y="70" on="0"/>
        <pt x="223" y="53" on="0"/>
        <pt x="254" y="44" on="0"/>
        <pt x="290" y="42" on="0"/>
        <pt x="305" y="42" on="1"/>
        <pt x="305" y="0" on="1"/>
        <pt x="293" y="0" on="0"/>
        <pt x="257" y="3" on="0"/>
        <pt x="214" y="7" on="0"/>
        <pt x="170" y="10" on="0"/>
        <pt x="151" y="10" on="1"/>
        <pt x="113" y="10" on="0"/>
        <pt x="40" y="0" on="0"/>
        <pt x="17" y="0" on="1"/>
        <pt x="17" y="42" on="1"/>
        <pt x="62" y="42" on="0"/>
        <pt x="119" y="70" on="0"/>
        <pt x="128" y="99" on="1"/>
        <pt x="185" y="280" on="1"/>
        <pt x="157" y="288" on="0"/>
        <pt x="107" y="315" on="0"/>
        <pt x="70" y="352" on="0"/>
        <pt x="49" y="399" on="0"/>
        <pt x="49" y="429" on="1"/>
        <pt x="49" y="445" on="0"/>
        <pt x="56" y="459" on="0"/>
        <pt x="63" y="465" on="1"/>
        <pt x="47" y="485" on="0"/>
        <pt x="47" y="512" on="1"/>
        <pt x="47" y="529" on="0"/>
        <pt x="60" y="562" on="0"/>
        <pt x="83" y="587" on="0"/>
        <pt x="115" y="602" on="0"/>
        <pt x="135" y="602" on="1"/>
        <pt x="145" y="602" on="0"/>
        <pt x="162" y="597" on="0"/>
        <pt x="177" y="588" on="0"/>
        <pt x="194" y="573" on="0"/>
        <pt x="205" y="564" on="1"/>
        <pt x="167" y="548" on="0"/>
        <pt x="133" y="484" on="0"/>
        <pt x="133" y="449" on="1"/>
        <pt x="133" y="401" on="0"/>
        <pt x="173" y="347" on="0"/>
        <pt x="202" y="334" on="1"/>
        <pt x="352" y="786" on="1"/>
        <pt x="403" y="786" on="0"/>
        <pt x="509" y="808" on="0"/>
        <pt x="557" y="820" on="1"/>
        <pt x="577" y="785" on="1"/>
        <pt x="535" y="777" on="0"/>
        <pt x="509" y="754" on="0"/>
        <pt x="509" y="726" on="1"/>
        <pt x="509" y="716" on="0"/>
        <pt x="512" y="686" on="0"/>
        <pt x="523" y="631" on="0"/>
        <pt x="543" y="545" on="0"/>
        <pt x="576" y="412" on="0"/>
        <pt x="625" y="226" on="0"/>
      </contour>
      <contour>
        <pt x="267" y="922" on="1"/>
        <pt x="267" y="951" on="0"/>
        <pt x="307" y="990" on="0"/>
        <pt x="335" y="990" on="1"/>
        <pt x="362" y="990" on="0"/>
        <pt x="401" y="951" on="0"/>
        <pt x="401" y="922" on="1"/>
        <pt x="401" y="893" on="0"/>
        <pt x="362" y="854" on="0"/>
        <pt x="335" y="854" on="1"/>
        <pt x="307" y="854" on="0"/>
        <pt x="267" y="893" on="0"/>
      </contour>
      <contour>
        <pt x="312" y="922" on="1"/>
        <pt x="312" y="913" on="0"/>
        <pt x="325" y="900" on="0"/>
        <pt x="334" y="900" on="1"/>
        <pt x="342" y="900" on="0"/>
        <pt x="355" y="913" on="0"/>
        <pt x="355" y="922" on="1"/>
        <pt x="355" y="930" on="0"/>
        <pt x="342" y="943" on="0"/>
        <pt x="334" y="943" on="1"/>
        <pt x="325" y="943" on="0"/>
        <pt x="312" y="930" on="0"/>
      </contour>
      <contour>
        <pt x="595" y="981" on="1"/>
        <pt x="602" y="985" on="0"/>
        <pt x="611" y="985" on="1"/>
        <pt x="622" y="985" on="0"/>
        <pt x="643" y="970" on="0"/>
        <pt x="643" y="958" on="1"/>
        <pt x="643" y="949" on="0"/>
        <pt x="631" y="932" on="0"/>
        <pt x="622" y="928" on="1"/>
        <pt x="623" y="926" on="0"/>
        <pt x="623" y="921" on="1"/>
        <pt x="623" y="904" on="0"/>
        <pt x="605" y="892" on="0"/>
        <pt x="568" y="884" on="0"/>
        <pt x="509" y="874" on="0"/>
        <pt x="468" y="861" on="1"/>
        <pt x="462" y="859" on="0"/>
        <pt x="458" y="859" on="1"/>
        <pt x="444" y="859" on="0"/>
        <pt x="432" y="877" on="0"/>
        <pt x="432" y="885" on="1"/>
        <pt x="432" y="899" on="0"/>
        <pt x="446" y="907" on="1"/>
        <pt x="474" y="922" on="0"/>
        <pt x="513" y="951" on="0"/>
        <pt x="542" y="975" on="0"/>
        <pt x="564" y="990" on="0"/>
        <pt x="575" y="990" on="1"/>
        <pt x="580" y="990" on="0"/>
        <pt x="591" y="986" on="0"/>
      </contour>
    </TTGlyph>
    <TTGlyph name="Atilde" xMin="17" yMin="0" xMax="774" yMax="990">
      <contour>
        <pt x="485" y="354" on="1"/>
        <pt x="456" y="460" on="0"/>
        <pt x="420" y="598" on="0"/>
        <pt x="398" y="682" on="0"/>
        <pt x="386" y="722" on="0"/>
        <pt x="383" y="730" on="1"/>
        <pt x="262" y="320" on="1"/>
        <pt x="279" y="318" on="0"/>
        <pt x="309" y="316" on="0"/>
        <pt x="322" y="316" on="1"/>
        <pt x="354" y="316" on="0"/>
        <pt x="435" y="330" on="0"/>
      </contour>
      <contour>
        <pt x="659" y="99" on="1"/>
        <pt x="667" y="70" on="0"/>
        <pt x="729" y="42" on="0"/>
        <pt x="774" y="42" on="1"/>
        <pt x="774" y="0" on="1"/>
        <pt x="762" y="0" on="0"/>
        <pt x="727" y="3" on="0"/>
        <pt x="686" y="7" on="0"/>
        <pt x="643" y="10" on="0"/>
        <pt x="624" y="10" on="1"/>
        <pt x="605" y="10" on="0"/>
        <pt x="556" y="7" on="0"/>
        <pt x="509" y="3" on="0"/>
        <pt x="468" y="0" on="0"/>
        <pt x="456" y="0" on="1"/>
        <pt x="456" y="42" on="1"/>
        <pt x="471" y="42" on="0"/>
        <pt x="505" y="44" on="0"/>
        <pt x="534" y="53" on="0"/>
        <pt x="553" y="70" on="0"/>
        <pt x="553" y="85" on="1"/>
        <pt x="553" y="89" on="0"/>
        <pt x="550" y="105" on="0"/>
        <pt x="538" y="149" on="0"/>
        <pt x="517" y="230" on="0"/>
        <pt x="499" y="299" on="1"/>
        <pt x="439" y="278" on="0"/>
        <pt x="348" y="264" on="0"/>
        <pt x="310" y="264" on="1"/>
        <pt x="296" y="264" on="0"/>
        <pt x="264" y="266" on="0"/>
        <pt x="247" y="268" on="1"/>
        <pt x="211" y="138" on="1"/>
        <pt x="206" y="121" on="0"/>
        <pt x="201" y="93" on="0"/>
        <pt x="201" y="85" on="1"/>
        <pt x="201" y="70" on="0"/>
        <pt x="223" y="53" on="0"/>
        <pt x="254" y="44" on="0"/>
        <pt x="290" y="42" on="0"/>
        <pt x="305" y="42" on="1"/>
        <pt x="305" y="0" on="1"/>
        <pt x="293" y="0" on="0"/>
        <pt x="257" y="3" on="0"/>
        <pt x="214" y="7" on="0"/>
        <pt x="170" y="10" on="0"/>
        <pt x="151" y="10" on="1"/>
        <pt x="113" y="10" on="0"/>
        <pt x="40" y="0" on="0"/>
        <pt x="17" y="0" on="1"/>
        <pt x="17" y="42" on="1"/>
        <pt x="62" y="42" on="0"/>
        <pt x="119" y="70" on="0"/>
        <pt x="128" y="99" on="1"/>
        <pt x="185" y="280" on="1"/>
        <pt x="157" y="288" on="0"/>
        <pt x="107" y="315" on="0"/>
        <pt x="70" y="352" on="0"/>
        <pt x="49" y="399" on="0"/>
        <pt x="49" y="429" on="1"/>
        <pt x="49" y="445" on="0"/>
        <pt x="56" y="459" on="0"/>
        <pt x="63" y="465" on="1"/>
        <pt x="47" y="485" on="0"/>
        <pt x="47" y="512" on="1"/>
        <pt x="47" y="529" on="0"/>
        <pt x="60" y="562" on="0"/>
        <pt x="83" y="587" on="0"/>
        <pt x="115" y="602" on="0"/>
        <pt x="135" y="602" on="1"/>
        <pt x="145" y="602" on="0"/>
        <pt x="162" y="597" on="0"/>
        <pt x="177" y="588" on="0"/>
        <pt x="194" y="573" on="0"/>
        <pt x="205" y="564" on="1"/>
        <pt x="167" y="548" on="0"/>
        <pt x="133" y="484" on="0"/>
        <pt x="133" y="449" on="1"/>
        <pt x="133" y="401" on="0"/>
        <pt x="173" y="347" on="0"/>
        <pt x="202" y="334" on="1"/>
        <pt x="352" y="786" on="1"/>
        <pt x="403" y="786" on="0"/>
        <pt x="509" y="808" on="0"/>
        <pt x="557" y="820" on="1"/>
        <pt x="577" y="785" on="1"/>
        <pt x="535" y="777" on="0"/>
        <pt x="509" y="754" on="0"/>
        <pt x="509" y="726" on="1"/>
        <pt x="509" y="716" on="0"/>
        <pt x="512" y="686" on="0"/>
        <pt x="523" y="631" on="0"/>
        <pt x="543" y="545" on="0"/>
        <pt x="576" y="412" on="0"/>
        <pt x="625" y="226" on="0"/>
      </contour>
      <contour>
        <pt x="253" y="885" on="1"/>
        <pt x="214" y="891" on="0"/>
        <pt x="214" y="927" on="1"/>
        <pt x="214" y="935" on="0"/>
        <pt x="221" y="946" on="0"/>
        <pt x="226" y="954" on="1"/>
        <pt x="226" y="971" on="0"/>
        <pt x="260" y="990" on="0"/>
        <pt x="289" y="990" on="1"/>
        <pt x="308" y="990" on="0"/>
        <pt x="351" y="976" on="0"/>
        <pt x="394" y="959" on="0"/>
        <pt x="437" y="945" on="0"/>
        <pt x="455" y="945" on="1"/>
        <pt x="478" y="945" on="0"/>
        <pt x="512" y="961" on="0"/>
        <pt x="520" y="983" on="1"/>
        <pt x="535" y="975" on="0"/>
        <pt x="552" y="947" on="0"/>
        <pt x="552" y="932" on="1"/>
        <pt x="552" y="922" on="0"/>
        <pt x="546" y="904" on="0"/>
        <pt x="538" y="899" on="1"/>
        <pt x="538" y="883" on="0"/>
        <pt x="492" y="871" on="0"/>
        <pt x="465" y="871" on="1"/>
        <pt x="442" y="871" on="0"/>
        <pt x="396" y="885" on="0"/>
        <pt x="353" y="902" on="0"/>
        <pt x="314" y="916" on="0"/>
        <pt x="298" y="916" on="1"/>
        <pt x="278" y="916" on="0"/>
        <pt x="254" y="902" on="0"/>
      </contour>
    </TTGlyph>
    <TTGlyph name="B" xMin="42" yMin="-149" xMax="765" yMax="820">
      <contour>
        <pt x="384" y="111" on="1"/>
        <pt x="384" y="91" on="0"/>
        <pt x="403" y="65" on="0"/>
        <pt x="430" y="49" on="0"/>
        <pt x="461" y="42" on="0"/>
        <pt x="473" y="42" on="1"/>
        <pt x="473" y="0" on="1"/>
        <pt x="461" y="0" on="0"/>
        <pt x="425" y="3" on="0"/>
        <pt x="387" y="7" on="0"/>
        <pt x="351" y="10" on="0"/>
        <pt x="339" y="10" on="1"/>
        <pt x="327" y="10" on="0"/>
        <pt x="291" y="7" on="0"/>
        <pt x="253" y="3" on="0"/>
        <pt x="217" y="0" on="0"/>
        <pt x="205" y="0" on="1"/>
        <pt x="205" y="42" on="1"/>
        <pt x="218" y="42" on="0"/>
        <pt x="250" y="49" on="0"/>
        <pt x="276" y="65" on="0"/>
        <pt x="294" y="91" on="0"/>
        <pt x="294" y="111" on="1"/>
        <pt x="294" y="507" on="1"/>
        <pt x="294" y="544" on="0"/>
        <pt x="291" y="593" on="0"/>
        <pt x="277" y="620" on="0"/>
        <pt x="251" y="631" on="0"/>
        <pt x="228" y="631" on="1"/>
        <pt x="228" y="666" on="1"/>
        <pt x="253" y="666" on="0"/>
        <pt x="290" y="672" on="0"/>
        <pt x="320" y="684" on="0"/>
        <pt x="345" y="700" on="0"/>
        <pt x="359" y="709" on="1"/>
        <pt x="384" y="709" on="1"/>
      </contour>
      <contour>
        <pt x="397" y="820" on="1"/>
        <pt x="418" y="820" on="0"/>
        <pt x="476" y="816" on="0"/>
        <pt x="538" y="801" on="0"/>
        <pt x="598" y="772" on="0"/>
        <pt x="646" y="724" on="0"/>
        <pt x="675" y="653" on="0"/>
        <pt x="675" y="603" on="1"/>
        <pt x="675" y="555" on="0"/>
        <pt x="648" y="487" on="0"/>
        <pt x="606" y="442" on="0"/>
        <pt x="556" y="419" on="0"/>
        <pt x="532" y="417" on="1"/>
        <pt x="532" y="413" on="1"/>
        <pt x="571" y="413" on="0"/>
        <pt x="654" y="381" on="0"/>
        <pt x="721" y="314" on="0"/>
        <pt x="765" y="211" on="0"/>
        <pt x="765" y="139" on="1"/>
        <pt x="765" y="58" on="0"/>
        <pt x="695" y="-52" on="0"/>
        <pt x="583" y="-120" on="0"/>
        <pt x="440" y="-149" on="0"/>
        <pt x="367" y="-149" on="1"/>
        <pt x="309" y="-149" on="0"/>
        <pt x="199" y="-131" on="0"/>
        <pt x="114" y="-95" on="0"/>
        <pt x="62" y="-42" on="0"/>
        <pt x="62" y="-8" on="1"/>
        <pt x="62" y="16" on="0"/>
        <pt x="77" y="21" on="1"/>
        <pt x="72" y="24" on="0"/>
        <pt x="60" y="44" on="0"/>
        <pt x="50" y="73" on="0"/>
        <pt x="42" y="110" on="0"/>
        <pt x="42" y="129" on="1"/>
        <pt x="42" y="144" on="0"/>
        <pt x="49" y="183" on="0"/>
        <pt x="70" y="220" on="0"/>
        <pt x="109" y="250" on="0"/>
        <pt x="141" y="256" on="1"/>
        <pt x="147" y="251" on="1"/>
        <pt x="136" y="226" on="0"/>
        <pt x="129" y="169" on="0"/>
        <pt x="129" y="143" on="1"/>
        <pt x="129" y="59" on="0"/>
        <pt x="184" y="-38" on="0"/>
        <pt x="262" y="-88" on="0"/>
        <pt x="345" y="-101" on="0"/>
        <pt x="374" y="-101" on="1"/>
        <pt x="427" y="-101" on="0"/>
        <pt x="529" y="-77" on="0"/>
        <pt x="610" y="-22" on="0"/>
        <pt x="660" y="65" on="0"/>
        <pt x="660" y="128" on="1"/>
        <pt x="660" y="195" on="0"/>
        <pt x="616" y="290" on="0"/>
        <pt x="548" y="351" on="0"/>
        <pt x="466" y="379" on="0"/>
        <pt x="428" y="379" on="1"/>
        <pt x="428" y="419" on="1"/>
        <pt x="461" y="419" on="0"/>
        <pt x="516" y="449" on="0"/>
        <pt x="554" y="500" on="0"/>
        <pt x="575" y="566" on="0"/>
        <pt x="575" y="602" on="1"/>
        <pt x="575" y="638" on="0"/>
        <pt x="552" y="700" on="0"/>
        <pt x="504" y="745" on="0"/>
        <pt x="429" y="770" on="0"/>
        <pt x="377" y="770" on="1"/>
        <pt x="306" y="770" on="0"/>
        <pt x="217" y="724" on="0"/>
        <pt x="166" y="649" on="0"/>
        <pt x="147" y="556" on="0"/>
        <pt x="147" y="508" on="1"/>
        <pt x="100" y="508" on="0"/>
        <pt x="60" y="544" on="0"/>
        <pt x="60" y="575" on="1"/>
        <pt x="60" y="604" on="0"/>
        <pt x="89" y="640" on="0"/>
        <pt x="108" y="640" on="1"/>
        <pt x="100" y="648" on="0"/>
        <pt x="96" y="675" on="0"/>
        <pt x="96" y="683" on="1"/>
        <pt x="96" y="717" on="0"/>
        <pt x="151" y="768" on="0"/>
        <pt x="237" y="803" on="0"/>
        <pt x="344" y="820" on="0"/>
      </contour>
    </TTGlyph>
    <TTGlyph name="C" xMin="57" yMin="-14" xMax="695" yMax="820">
      <contour>
        <pt x="428" y="820" on="1"/>
        <pt x="445" y="820" on="0"/>
        <pt x="498" y="818" on="0"/>
        <pt x="547" y="808" on="0"/>
        <pt x="583" y="786" on="0"/>
        <pt x="583" y="765" on="1"/>
        <pt x="605" y="765" on="0"/>
        <pt x="645" y="753" on="0"/>
        <pt x="676" y="725" on="0"/>
        <pt x="695" y="679" on="0"/>
        <pt x="695" y="645" on="1"/>
        <pt x="695" y="581" on="0"/>
        <pt x="630" y="519" on="0"/>
        <pt x="580" y="519" on="1"/>
        <pt x="569" y="519" on="0"/>
        <pt x="541" y="522" on="0"/>
        <pt x="530" y="524" on="1"/>
        <pt x="530" y="531" on="1"/>
        <pt x="553" y="539" on="0"/>
        <pt x="582" y="582" on="0"/>
        <pt x="582" y="624" on="1"/>
        <pt x="582" y="694" on="0"/>
        <pt x="497" y="770" on="0"/>
        <pt x="428" y="770" on="1"/>
        <pt x="372" y="770" on="0"/>
        <pt x="274" y="718" on="0"/>
        <pt x="200" y="620" on="0"/>
        <pt x="157" y="478" on="0"/>
        <pt x="157" y="387" on="1"/>
        <pt x="157" y="300" on="0"/>
        <pt x="197" y="169" on="0"/>
        <pt x="267" y="81" on="0"/>
        <pt x="364" y="36" on="0"/>
        <pt x="421" y="36" on="1"/>
        <pt x="471" y="36" on="0"/>
        <pt x="537" y="69" on="0"/>
        <pt x="576" y="126" on="0"/>
        <pt x="592" y="203" on="0"/>
        <pt x="594" y="247" on="1"/>
        <pt x="607" y="247" on="0"/>
        <pt x="640" y="239" on="0"/>
        <pt x="668" y="219" on="0"/>
        <pt x="688" y="186" on="0"/>
        <pt x="688" y="161" on="1"/>
        <pt x="688" y="147" on="0"/>
        <pt x="681" y="117" on="0"/>
        <pt x="663" y="93" on="0"/>
        <pt x="634" y="78" on="0"/>
        <pt x="613" y="78" on="1"/>
        <pt x="613" y="52" on="0"/>
        <pt x="577" y="17" on="0"/>
        <pt x="519" y="-4" on="0"/>
        <pt x="448" y="-14" on="0"/>
        <pt x="413" y="-14" on="1"/>
        <pt x="337" y="-14" on="0"/>
        <pt x="207" y="31" on="0"/>
        <pt x="111" y="127" on="0"/>
        <pt x="57" y="280" on="0"/>
        <pt x="57" y="388" on="1"/>
        <pt x="57" y="499" on="0"/>
        <pt x="114" y="662" on="0"/>
        <pt x="215" y="768" on="0"/>
        <pt x="350" y="820" on="0"/>
      </contour>
    </TTGlyph>
    <TTGlyph name="Cacute" xMin="57" yMin="-14" xMax="695" yMax="990">
      <contour>
        <pt x="428" y="820" on="1"/>
        <pt x="445" y="820" on="0"/>
        <pt x="498" y="818" on="0"/>
        <pt x="547" y="808" on="0"/>
        <pt x="583" y="786" on="0"/>
        <pt x="583" y="765" on="1"/>
        <pt x="605" y="765" on="0"/>
        <pt x="645" y="753" on="0"/>
        <pt x="676" y="725" on="0"/>
        <pt x="695" y="679" on="0"/>
        <pt x="695" y="645" on="1"/>
        <pt x="695" y="581" on="0"/>
        <pt x="630" y="519" on="0"/>
        <pt x="580" y="519" on="1"/>
        <pt x="569" y="519" on="0"/>
        <pt x="541" y="522" on="0"/>
        <pt x="530" y="524" on="1"/>
        <pt x="530" y="531" on="1"/>
        <pt x="553" y="539" on="0"/>
        <pt x="582" y="582" on="0"/>
        <pt x="582" y="624" on="1"/>
        <pt x="582" y="694" on="0"/>
        <pt x="497" y="770" on="0"/>
        <pt x="428" y="770" on="1"/>
        <pt x="372" y="770" on="0"/>
        <pt x="274" y="718" on="0"/>
        <pt x="200" y="620" on="0"/>
        <pt x="157" y="478" on="0"/>
        <pt x="157" y="387" on="1"/>
        <pt x="157" y="300" on="0"/>
        <pt x="197" y="169" on="0"/>
        <pt x="267" y="81" on="0"/>
        <pt x="364" y="36" on="0"/>
        <pt x="421" y="36" on="1"/>
        <pt x="471" y="36" on="0"/>
        <pt x="537" y="69" on="0"/>
        <pt x="576" y="126" on="0"/>
        <pt x="592" y="203" on="0"/>
        <pt x="594" y="247" on="1"/>
        <pt x="607" y="247" on="0"/>
        <pt x="640" y="239" on="0"/>
        <pt x="668" y="219" on="0"/>
        <pt x="688" y="186" on="0"/>
        <pt x="688" y="161" on="1"/>
        <pt x="688" y="147" on="0"/>
        <pt x="681" y="117" on="0"/>
        <pt x="663" y="93" on="0"/>
        <pt x="634" y="78" on="0"/>
        <pt x="613" y="78" on="1"/>
        <pt x="613" y="52" on="0"/>
        <pt x="577" y="17" on="0"/>
        <pt x="519" y="-4" on="0"/>
        <pt x="448" y="-14" on="0"/>
        <pt x="413" y="-14" on="1"/>
        <pt x="337" y="-14" on="0"/>
        <pt x="207" y="31" on="0"/>
        <pt x="111" y="127" on="0"/>
        <pt x="57" y="280" on="0"/>
        <pt x="57" y="388" on="1"/>
        <pt x="57" y="499" on="0"/>
        <pt x="114" y="662" on="0"/>
        <pt x="215" y="768" on="0"/>
        <pt x="350" y="820" on="0"/>
      </contour>
      <contour>
        <pt x="485" y="981" on="1"/>
        <pt x="492" y="985" on="0"/>
        <pt x="501" y="985" on="1"/>
        <pt x="512" y="985" on="0"/>
        <pt x="533" y="970" on="0"/>
        <pt x="533" y="958" on="1"/>
        <pt x="533" y="949" on="0"/>
        <pt x="521" y="932" on="0"/>
        <pt x="512" y="928" on="1"/>
        <pt x="513" y="926" on="0"/>
        <pt x="513" y="921" on="1"/>
        <pt x="513" y="904" on="0"/>
        <pt x="495" y="892" on="0"/>
        <pt x="458" y="884" on="0"/>
        <pt x="399" y="874" on="0"/>
        <pt x="358" y="861" on="1"/>
        <pt x="352" y="859" on="0"/>
        <pt x="348" y="859" on="1"/>
        <pt x="334" y="859" on="0"/>
        <pt x="322" y="877" on="0"/>
        <pt x="322" y="885" on="1"/>
        <pt x="322" y="899" on="0"/>
        <pt x="336" y="907" on="1"/>
        <pt x="364" y="922" on="0"/>
        <pt x="403" y="951" on="0"/>
        <pt x="432" y="975" on="0"/>
        <pt x="454" y="990" on="0"/>
        <pt x="465" y="990" on="1"/>
        <pt x="470" y="990" on="0"/>
        <pt x="481" y="986" on="0"/>
      </contour>
    </TTGlyph>
    <TTGlyph name="Ccaron" xMin="57" yMin="-14" xMax="695" yMax="990">
      <contour>
        <pt x="428" y="820" on="1"/>
        <pt x="445" y="820" on="0"/>
        <pt x="498" y="818" on="0"/>
        <pt x="547" y="808" on="0"/>
        <pt x="583" y="786" on="0"/>
        <pt x="583" y="765" on="1"/>
        <pt x="605" y="765" on="0"/>
        <pt x="645" y="753" on="0"/>
        <pt x="676" y="725" on="0"/>
        <pt x="695" y="679" on="0"/>
        <pt x="695" y="645" on="1"/>
        <pt x="695" y="581" on="0"/>
        <pt x="630" y="519" on="0"/>
        <pt x="580" y="519" on="1"/>
        <pt x="569" y="519" on="0"/>
        <pt x="541" y="522" on="0"/>
        <pt x="530" y="524" on="1"/>
        <pt x="530" y="531" on="1"/>
        <pt x="553" y="539" on="0"/>
        <pt x="582" y="582" on="0"/>
        <pt x="582" y="624" on="1"/>
        <pt x="582" y="694" on="0"/>
        <pt x="497" y="770" on="0"/>
        <pt x="428" y="770" on="1"/>
        <pt x="372" y="770" on="0"/>
        <pt x="274" y="718" on="0"/>
        <pt x="200" y="620" on="0"/>
        <pt x="157" y="478" on="0"/>
        <pt x="157" y="387" on="1"/>
        <pt x="157" y="300" on="0"/>
        <pt x="197" y="169" on="0"/>
        <pt x="267" y="81" on="0"/>
        <pt x="364" y="36" on="0"/>
        <pt x="421" y="36" on="1"/>
        <pt x="471" y="36" on="0"/>
        <pt x="537" y="69" on="0"/>
        <pt x="576" y="126" on="0"/>
        <pt x="592" y="203" on="0"/>
        <pt x="594" y="247" on="1"/>
        <pt x="607" y="247" on="0"/>
        <pt x="640" y="239" on="0"/>
        <pt x="668" y="219" on="0"/>
        <pt x="688" y="186" on="0"/>
        <pt x="688" y="161" on="1"/>
        <pt x="688" y="147" on="0"/>
        <pt x="681" y="117" on="0"/>
        <pt x="663" y="93" on="0"/>
        <pt x="634" y="78" on="0"/>
        <pt x="613" y="78" on="1"/>
        <pt x="613" y="52" on="0"/>
        <pt x="577" y="17" on="0"/>
        <pt x="519" y="-4" on="0"/>
        <pt x="448" y="-14" on="0"/>
        <pt x="413" y="-14" on="1"/>
        <pt x="337" y="-14" on="0"/>
        <pt x="207" y="31" on="0"/>
        <pt x="111" y="127" on="0"/>
        <pt x="57" y="280" on="0"/>
        <pt x="57" y="388" on="1"/>
        <pt x="57" y="499" on="0"/>
        <pt x="114" y="662" on="0"/>
        <pt x="215" y="768" on="0"/>
        <pt x="350" y="820" on="0"/>
      </contour>
      <contour>
        <pt x="455" y="863" on="1"/>
        <pt x="453" y="855" on="0"/>
        <pt x="437" y="845" on="0"/>
        <pt x="427" y="845" on="1"/>
        <pt x="418" y="845" on="0"/>
        <pt x="404" y="855" on="0"/>
        <pt x="402" y="863" on="1"/>
        <pt x="398" y="861" on="0"/>
        <pt x="393" y="861" on="1"/>
        <pt x="376" y="861" on="0"/>
        <pt x="361" y="877" on="0"/>
        <pt x="343" y="903" on="0"/>
        <pt x="313" y="933" on="0"/>
        <pt x="282" y="948" on="1"/>
        <pt x="277" y="951" on="0"/>
        <pt x="276" y="960" on="0"/>
        <pt x="276" y="964" on="1"/>
        <pt x="276" y="975" on="0"/>
        <pt x="290" y="990" on="0"/>
        <pt x="301" y="990" on="1"/>
        <pt x="312" y="990" on="0"/>
        <pt x="320" y="983" on="1"/>
        <pt x="360" y="964" on="0"/>
        <pt x="417" y="920" on="0"/>
        <pt x="428" y="913" on="1"/>
        <pt x="439" y="920" on="0"/>
        <pt x="497" y="964" on="0"/>
        <pt x="537" y="983" on="1"/>
        <pt x="545" y="990" on="0"/>
        <pt x="553" y="990" on="1"/>
        <pt x="563" y="990" on="0"/>
        <pt x="581" y="979" on="0"/>
        <pt x="581" y="965" on="1"/>
        <pt x="581" y="960" on="0"/>
        <pt x="578" y="950" on="0"/>
        <pt x="575" y="948" on="1"/>
        <pt x="544" y="933" on="0"/>
        <pt x="514" y="903" on="0"/>
        <pt x="496" y="877" on="0"/>
        <pt x="480" y="861" on="0"/>
        <pt x="464" y="861" on="1"/>
        <pt x="459" y="861" on="0"/>
      </contour>
    </TTGlyph>
    <TTGlyph name="Ccedilla" xMin="57" yMin="-239" xMax="695" yMax="820">
      <contour>
        <pt x="428" y="820" on="1"/>
        <pt x="445" y="820" on="0"/>
        <pt x="498" y="818" on="0"/>
        <pt x="547" y="808" on="0"/>
        <pt x="583" y="786" on="0"/>
        <pt x="583" y="765" on="1"/>
        <pt x="605" y="765" on="0"/>
        <pt x="645" y="753" on="0"/>
        <pt x="676" y="725" on="0"/>
        <pt x="695" y="679" on="0"/>
        <pt x="695" y="645" on="1"/>
        <pt x="695" y="581" on="0"/>
        <pt x="630" y="519" on="0"/>
        <pt x="580" y="519" on="1"/>
        <pt x="569" y="519" on="0"/>
        <pt x="541" y="522" on="0"/>
        <pt x="530" y="524" on="1"/>
        <pt x="530" y="531" on="1"/>
        <pt x="553" y="539" on="0"/>
        <pt x="582" y="582" on="0"/>
        <pt x="582" y="624" on="1"/>
        <pt x="582" y="694" on="0"/>
        <pt x="497" y="770" on="0"/>
        <pt x="428" y="770" on="1"/>
        <pt x="372" y="770" on="0"/>
        <pt x="274" y="718" on="0"/>
        <pt x="200" y="620" on="0"/>
        <pt x="157" y="478" on="0"/>
        <pt x="157" y="387" on="1"/>
        <pt x="157" y="300" on="0"/>
        <pt x="197" y="169" on="0"/>
        <pt x="267" y="81" on="0"/>
        <pt x="364" y="36" on="0"/>
        <pt x="421" y="36" on="1"/>
        <pt x="471" y="36" on="0"/>
        <pt x="537" y="69" on="0"/>
        <pt x="576" y="126" on="0"/>
        <pt x="592" y="203" on="0"/>
        <pt x="594" y="247" on="1"/>
        <pt x="607" y="247" on="0"/>
        <pt x="640" y="239" on="0"/>
        <pt x="668" y="219" on="0"/>
        <pt x="688" y="186" on="0"/>
        <pt x="688" y="161" on="1"/>
        <pt x="688" y="147" on="0"/>
        <pt x="681" y="117" on="0"/>
        <pt x="663" y="93" on="0"/>
        <pt x="634" y="78" on="0"/>
        <pt x="613" y="78" on="1"/>
        <pt x="613" y="55" on="0"/>
        <pt x="583" y="22" on="0"/>
        <pt x="535" y="0" on="0"/>
        <pt x="473" y="-12" on="0"/>
        <pt x="441" y="-13" on="1"/>
        <pt x="441" y="-59" on="1"/>
        <pt x="456" y="-53" on="0"/>
        <pt x="469" y="-53" on="1"/>
        <pt x="485" y="-53" on="0"/>
        <pt x="511" y="-67" on="0"/>
        <pt x="529" y="-90" on="0"/>
        <pt x="538" y="-118" on="0"/>
        <pt x="538" y="-132" on="1"/>
        <pt x="538" y="-147" on="0"/>
        <pt x="526" y="-172" on="0"/>
        <pt x="513" y="-179" on="1"/>
        <pt x="513" y="-204" on="0"/>
        <pt x="472" y="-239" on="0"/>
        <pt x="443" y="-239" on="1"/>
        <pt x="432" y="-239" on="0"/>
        <pt x="405" y="-235" on="0"/>
        <pt x="378" y="-225" on="0"/>
        <pt x="355" y="-208" on="0"/>
        <pt x="348" y="-194" on="1"/>
        <pt x="351" y="-189" on="1"/>
        <pt x="357" y="-197" on="0"/>
        <pt x="390" y="-203" on="0"/>
        <pt x="399" y="-203" on="1"/>
        <pt x="434" y="-203" on="0"/>
        <pt x="461" y="-168" on="0"/>
        <pt x="461" y="-146" on="1"/>
        <pt x="461" y="-126" on="0"/>
        <pt x="434" y="-92" on="0"/>
        <pt x="408" y="-92" on="1"/>
        <pt x="403" y="-92" on="0"/>
        <pt x="395" y="-93" on="0"/>
        <pt x="390" y="-94" on="1"/>
        <pt x="379" y="-84" on="1"/>
        <pt x="393" y="-13" on="1"/>
        <pt x="321" y="-10" on="0"/>
        <pt x="198" y="37" on="0"/>
        <pt x="108" y="134" on="0"/>
        <pt x="57" y="283" on="0"/>
        <pt x="57" y="388" on="1"/>
        <pt x="57" y="499" on="0"/>
        <pt x="114" y="662" on="0"/>
        <pt x="215" y="768" on="0"/>
        <pt x="350" y="820" on="0"/>
      </contour>
    </TTGlyph>
    <TTGlyph name="Ccircumflex" xMin="57" yMin="-14" xMax="695" yMax="990">
      <contour>
        <pt x="428" y="820" on="1"/>
        <pt x="445" y="820" on="0"/>
        <pt x="498" y="818" on="0"/>
        <pt x="547" y="808" on="0"/>
        <pt x="583" y="786" on="0"/>
        <pt x="583" y="765" on="1"/>
        <pt x="605" y="765" on="0"/>
        <pt x="645" y="753" on="0"/>
        <pt x="676" y="725" on="0"/>
        <pt x="695" y="679" on="0"/>
        <pt x="695" y="645" on="1"/>
        <pt x="695" y="581" on="0"/>
        <pt x="630" y="519" on="0"/>
        <pt x="580" y="519" on="1"/>
        <pt x="569" y="519" on="0"/>
        <pt x="541" y="522" on="0"/>
        <pt x="530" y="524" on="1"/>
        <pt x="530" y="531" on="1"/>
        <pt x="553" y="539" on="0"/>
        <pt x="582" y="582" on="0"/>
        <pt x="582" y="624" on="1"/>
        <pt x="582" y="694" on="0"/>
        <pt x="497" y="770" on="0"/>
        <pt x="428" y="770" on="1"/>
        <pt x="372" y="770" on="0"/>
        <pt x="274" y="718" on="0"/>
        <pt x="200" y="620" on="0"/>
        <pt x="157" y="478" on="0"/>
        <pt x="157" y="387" on="1"/>
        <pt x="157" y="300" on="0"/>
        <pt x="197" y="169" on="0"/>
        <pt x="267" y="81" on="0"/>
        <pt x="364" y="36" on="0"/>
        <pt x="421" y="36" on="1"/>
        <pt x="471" y="36" on="0"/>
        <pt x="537" y="69" on="0"/>
        <pt x="576" y="126" on="0"/>
        <pt x="592" y="203" on="0"/>
        <pt x="594" y="247" on="1"/>
        <pt x="607" y="247" on="0"/>
        <pt x="640" y="239" on="0"/>
        <pt x="668" y="219" on="0"/>
        <pt x="688" y="186" on="0"/>
        <pt x="688" y="161" on="1"/>
        <pt x="688" y="147" on="0"/>
        <pt x="681" y="117" on="0"/>
        <pt x="663" y="93" on="0"/>
        <pt x="634" y="78" on="0"/>
        <pt x="613" y="78" on="1"/>
        <pt x="613" y="52" on="0"/>
        <pt x="577" y="17" on="0"/>
        <pt x="519" y="-4" on="0"/>
        <pt x="448" y="-14" on="0"/>
        <pt x="413" y="-14" on="1"/>
        <pt x="337" y="-14" on="0"/>
        <pt x="207" y="31" on="0"/>
        <pt x="111" y="127" on="0"/>
        <pt x="57" y="280" on="0"/>
        <pt x="57" y="388" on="1"/>
        <pt x="57" y="499" on="0"/>
        <pt x="114" y="662" on="0"/>
        <pt x="215" y="768" on="0"/>
        <pt x="350" y="820" on="0"/>
      </contour>
      <contour>
        <pt x="454" y="972" on="1"/>
        <pt x="458" y="974" on="0"/>
        <pt x="463" y="974" on="1"/>
        <pt x="479" y="974" on="0"/>
        <pt x="495" y="958" on="0"/>
        <pt x="513" y="932" on="0"/>
        <pt x="543" y="902" on="0"/>
        <pt x="574" y="887" on="1"/>
        <pt x="577" y="885" on="0"/>
        <pt x="580" y="875" on="0"/>
        <pt x="580" y="870" on="1"/>
        <pt x="580" y="856" on="0"/>
        <pt x="562" y="845" on="0"/>
        <pt x="552" y="845" on="1"/>
        <pt x="544" y="845" on="0"/>
        <pt x="536" y="852" on="1"/>
        <pt x="496" y="871" on="0"/>
        <pt x="438" y="915" on="0"/>
        <pt x="427" y="922" on="1"/>
        <pt x="416" y="915" on="0"/>
        <pt x="359" y="871" on="0"/>
        <pt x="319" y="852" on="1"/>
        <pt x="311" y="845" on="0"/>
        <pt x="300" y="845" on="1"/>
        <pt x="289" y="845" on="0"/>
        <pt x="275" y="860" on="0"/>
        <pt x="275" y="871" on="1"/>
        <pt x="275" y="875" on="0"/>
        <pt x="276" y="884" on="0"/>
        <pt x="281" y="887" on="1"/>
        <pt x="312" y="902" on="0"/>
        <pt x="342" y="932" on="0"/>
        <pt x="360" y="958" on="0"/>
        <pt x="375" y="974" on="0"/>
        <pt x="392" y="974" on="1"/>
        <pt x="397" y="974" on="0"/>
        <pt x="401" y="972" on="1"/>
        <pt x="403" y="980" on="0"/>
        <pt x="417" y="990" on="0"/>
        <pt x="426" y="990" on="1"/>
        <pt x="436" y="990" on="0"/>
        <pt x="452" y="980" on="0"/>
      </contour>
    </TTGlyph>
    <TTGlyph name="Cdotaccent" xMin="57" yMin="-14" xMax="695" yMax="990">
      <contour>
        <pt x="428" y="820" on="1"/>
        <pt x="445" y="820" on="0"/>
        <pt x="498" y="818" on="0"/>
        <pt x="547" y="808" on="0"/>
        <pt x="583" y="786" on="0"/>
        <pt x="583" y="765" on="1"/>
        <pt x="605" y="765" on="0"/>
        <pt x="645" y="753" on="0"/>
        <pt x="676" y="725" on="0"/>
        <pt x="695" y="679" on="0"/>
        <pt x="695" y="645" on="1"/>
        <pt x="695" y="581" on="0"/>
        <pt x="630" y="519" on="0"/>
        <pt x="580" y="519" on="1"/>
        <pt x="569" y="519" on="0"/>
        <pt x="541" y="522" on="0"/>
        <pt x="530" y="524" on="1"/>
        <pt x="530" y="531" on="1"/>
        <pt x="553" y="539" on="0"/>
        <pt x="582" y="582" on="0"/>
        <pt x="582" y="624" on="1"/>
        <pt x="582" y="694" on="0"/>
        <pt x="497" y="770" on="0"/>
        <pt x="428" y="770" on="1"/>
        <pt x="372" y="770" on="0"/>
        <pt x="274" y="718" on="0"/>
        <pt x="200" y="620" on="0"/>
        <pt x="157" y="478" on="0"/>
        <pt x="157" y="387" on="1"/>
        <pt x="157" y="300" on="0"/>
        <pt x="197" y="169" on="0"/>
        <pt x="267" y="81" on="0"/>
        <pt x="364" y="36" on="0"/>
        <pt x="421" y="36" on="1"/>
        <pt x="471" y="36" on="0"/>
        <pt x="537" y="69" on="0"/>
        <pt x="576" y="126" on="0"/>
        <pt x="592" y="203" on="0"/>
        <pt x="594" y="247" on="1"/>
        <pt x="607" y="247" on="0"/>
        <pt x="640" y="239" on="0"/>
        <pt x="668" y="219" on="0"/>
        <pt x="688" y="186" on="0"/>
        <pt x="688" y="161" on="1"/>
        <pt x="688" y="147" on="0"/>
        <pt x="681" y="117" on="0"/>
        <pt x="663" y="93" on="0"/>
        <pt x="634" y="78" on="0"/>
        <pt x="613" y="78" on="1"/>
        <pt x="613" y="52" on="0"/>
        <pt x="577" y="17" on="0"/>
        <pt x="519" y="-4" on="0"/>
        <pt x="448" y="-14" on="0"/>
        <pt x="413" y="-14" on="1"/>
        <pt x="337" y="-14" on="0"/>
        <pt x="207" y="31" on="0"/>
        <pt x="111" y="127" on="0"/>
        <pt x="57" y="280" on="0"/>
        <pt x="57" y="388" on="1"/>
        <pt x="57" y="499" on="0"/>
        <pt x="114" y="662" on="0"/>
        <pt x="215" y="768" on="0"/>
        <pt x="350" y="820" on="0"/>
      </contour>
      <contour>
        <pt x="357" y="919" on="1"/>
        <pt x="357" y="949" on="0"/>
        <pt x="399" y="990" on="0"/>
        <pt x="428" y="990" on="1"/>
        <pt x="457" y="990" on="0"/>
        <pt x="498" y="949" on="0"/>
        <pt x="498" y="919" on="1"/>
        <pt x="498" y="889" on="0"/>
        <pt x="457" y="848" on="0"/>
        <pt x="428" y="848" on="1"/>
        <pt x="399" y="848" on="0"/>
        <pt x="357" y="889" on="0"/>
      </contour>
    </TTGlyph>
    <TTGlyph name="D" xMin="47" yMin="-149" xMax="812" yMax="820">
      <contour>
        <pt x="389" y="111" on="1"/>
        <pt x="389" y="87" on="0"/>
        <pt x="408" y="59" on="0"/>
        <pt x="435" y="46" on="0"/>
        <pt x="466" y="42" on="0"/>
        <pt x="478" y="42" on="1"/>
        <pt x="478" y="0" on="1"/>
        <pt x="466" y="0" on="0"/>
        <pt x="430" y="3" on="0"/>
        <pt x="392" y="7" on="0"/>
        <pt x="356" y="10" on="0"/>
        <pt x="344" y="10" on="1"/>
        <pt x="332" y="10" on="0"/>
        <pt x="296" y="7" on="0"/>
        <pt x="258" y="3" on="0"/>
        <pt x="222" y="0" on="0"/>
        <pt x="210" y="0" on="1"/>
        <pt x="210" y="42" on="1"/>
        <pt x="223" y="42" on="0"/>
        <pt x="255" y="46" on="0"/>
        <pt x="281" y="59" on="0"/>
        <pt x="299" y="87" on="0"/>
        <pt x="299" y="111" on="1"/>
        <pt x="299" y="507" on="1"/>
        <pt x="299" y="544" on="0"/>
        <pt x="296" y="593" on="0"/>
        <pt x="282" y="620" on="0"/>
        <pt x="256" y="631" on="0"/>
        <pt x="233" y="631" on="1"/>
        <pt x="233" y="666" on="1"/>
        <pt x="258" y="666" on="0"/>
        <pt x="295" y="672" on="0"/>
        <pt x="325" y="684" on="0"/>
        <pt x="350" y="700" on="0"/>
        <pt x="364" y="709" on="1"/>
        <pt x="389" y="709" on="1"/>
      </contour>
      <contour>
        <pt x="404" y="820" on="1"/>
        <pt x="516" y="820" on="0"/>
        <pt x="672" y="746" on="0"/>
        <pt x="769" y="617" on="0"/>
        <pt x="812" y="442" on="0"/>
        <pt x="812" y="341" on="1"/>
        <pt x="812" y="216" on="0"/>
        <pt x="752" y="32" on="0"/>
        <pt x="636" y="-90" on="0"/>
        <pt x="469" y="-149" on="0"/>
        <pt x="363" y="-149" on="1"/>
        <pt x="306" y="-149" on="0"/>
        <pt x="199" y="-131" on="0"/>
        <pt x="117" y="-95" on="0"/>
        <pt x="67" y="-42" on="0"/>
        <pt x="67" y="-8" on="1"/>
        <pt x="67" y="16" on="0"/>
        <pt x="82" y="21" on="1"/>
        <pt x="77" y="24" on="0"/>
        <pt x="65" y="44" on="0"/>
        <pt x="55" y="73" on="0"/>
        <pt x="47" y="110" on="0"/>
        <pt x="47" y="129" on="1"/>
        <pt x="47" y="144" on="0"/>
        <pt x="54" y="183" on="0"/>
        <pt x="75" y="220" on="0"/>
        <pt x="114" y="250" on="0"/>
        <pt x="146" y="256" on="1"/>
        <pt x="152" y="251" on="1"/>
        <pt x="141" y="226" on="0"/>
        <pt x="134" y="169" on="0"/>
        <pt x="134" y="143" on="1"/>
        <pt x="134" y="87" on="0"/>
        <pt x="159" y="7" on="0"/>
        <pt x="199" y="-47" on="0"/>
        <pt x="250" y="-79" on="0"/>
        <pt x="303" y="-96" on="0"/>
        <pt x="354" y="-101" on="0"/>
        <pt x="373" y="-101" on="1"/>
        <pt x="463" y="-101" on="0"/>
        <pt x="590" y="-42" on="0"/>
        <pt x="670" y="71" on="0"/>
        <pt x="707" y="235" on="0"/>
        <pt x="707" y="340" on="1"/>
        <pt x="707" y="423" on="0"/>
        <pt x="675" y="579" on="0"/>
        <pt x="601" y="699" on="0"/>
        <pt x="480" y="772" on="0"/>
        <pt x="392" y="772" on="1"/>
        <pt x="317" y="772" on="0"/>
        <pt x="221" y="727" on="0"/>
        <pt x="164" y="652" on="0"/>
        <pt x="142" y="557" on="0"/>
        <pt x="142" y="506" on="1"/>
        <pt x="95" y="506" on="0"/>
        <pt x="55" y="549" on="0"/>
        <pt x="55" y="580" on="1"/>
        <pt x="55" y="609" on="0"/>
        <pt x="84" y="648" on="0"/>
        <pt x="103" y="648" on="1"/>
        <pt x="95" y="656" on="0"/>
        <pt x="91" y="683" on="0"/>
        <pt x="91" y="691" on="1"/>
        <pt x="91" y="725" on="0"/>
        <pt x="148" y="774" on="0"/>
        <pt x="239" y="805" on="0"/>
        <pt x="350" y="820" on="0"/>
      </contour>
    </TTGlyph>
    <TTGlyph name="Dcaron" xMin="47" yMin="-149" xMax="812" yMax="990">
      <contour>
        <pt x="389" y="111" on="1"/>
        <pt x="389" y="87" on="0"/>
        <pt x="408" y="59" on="0"/>
        <pt x="435" y="46" on="0"/>
        <pt x="466" y="42" on="0"/>
        <pt x="478" y="42" on="1"/>
        <pt x="478" y="0" on="1"/>
        <pt x="466" y="0" on="0"/>
        <pt x="430" y="3" on="0"/>
        <pt x="392" y="7" on="0"/>
        <pt x="356" y="10" on="0"/>
        <pt x="344" y="10" on="1"/>
        <pt x="332" y="10" on="0"/>
        <pt x="296" y="7" on="0"/>
        <pt x="258" y="3" on="0"/>
        <pt x="222" y="0" on="0"/>
        <pt x="210" y="0" on="1"/>
        <pt x="210" y="42" on="1"/>
        <pt x="223" y="42" on="0"/>
        <pt x="255" y="46" on="0"/>
        <pt x="281" y="59" on="0"/>
        <pt x="299" y="87" on="0"/>
        <pt x="299" y="111" on="1"/>
        <pt x="299" y="507" on="1"/>
        <pt x="299" y="544" on="0"/>
        <pt x="296" y="593" on="0"/>
        <pt x="282" y="620" on="0"/>
        <pt x="256" y="631" on="0"/>
        <pt x="233" y="631" on="1"/>
        <pt x="233" y="666" on="1"/>
        <pt x="258" y="666" on="0"/>
        <pt x="295" y="672" on="0"/>
        <pt x="325" y="684" on="0"/>
        <pt x="350" y="700" on="0"/>
        <pt x="364" y="709" on="1"/>
        <pt x="389" y="709" on="1"/>
      </contour>
      <contour>
        <pt x="404" y="820" on="1"/>
        <pt x="516" y="820" on="0"/>
        <pt x="672" y="746" on="0"/>
        <pt x="769" y="617" on="0"/>
        <pt x="812" y="442" on="0"/>
        <pt x="812" y="341" on="1"/>
        <pt x="812" y="216" on="0"/>
        <pt x="752" y="32" on="0"/>
        <pt x="636" y="-90" on="0"/>
        <pt x="469" y="-149" on="0"/>
        <pt x="363" y="-149" on="1"/>
        <pt x="306" y="-149" on="0"/>
        <pt x="199" y="-131" on="0"/>
        <pt x="117" y="-95" on="0"/>
        <pt x="67" y="-42" on="0"/>
        <pt x="67" y="-8" on="1"/>
        <pt x="67" y="16" on="0"/>
        <pt x="82" y="21" on="1"/>
        <pt x="77" y="24" on="0"/>
        <pt x="65" y="44" on="0"/>
        <pt x="55" y="73" on="0"/>
        <pt x="47" y="110" on="0"/>
        <pt x="47" y="129" on="1"/>
        <pt x="47" y="144" on="0"/>
        <pt x="54" y="183" on="0"/>
        <pt x="75" y="220" on="0"/>
        <pt x="114" y="250" on="0"/>
        <pt x="146" y="256" on="1"/>
        <pt x="152" y="251" on="1"/>
        <pt x="141" y="226" on="0"/>
        <pt x="134" y="169" on="0"/>
        <pt x="134" y="143" on="1"/>
        <pt x="134" y="87" on="0"/>
        <pt x="159" y="7" on="0"/>
        <pt x="199" y="-47" on="0"/>
        <pt x="250" y="-79" on="0"/>
        <pt x="303" y="-96" on="0"/>
        <pt x="354" y="-101" on="0"/>
        <pt x="373" y="-101" on="1"/>
        <pt x="463" y="-101" on="0"/>
        <pt x="590" y="-42" on="0"/>
        <pt x="670" y="71" on="0"/>
        <pt x="707" y="235" on="0"/>
        <pt x="707" y="340" on="1"/>
        <pt x="707" y="423" on="0"/>
        <pt x="675" y="579" on="0"/>
        <pt x="601" y="699" on="0"/>
        <pt x="480" y="772" on="0"/>
        <pt x="392" y="772" on="1"/>
        <pt x="317" y="772" on="0"/>
        <pt x="221" y="727" on="0"/>
        <pt x="164" y="652" on="0"/>
        <pt x="142" y="557" on="0"/>
        <pt x="142" y="506" on="1"/>
        <pt x="95" y="506" on="0"/>
        <pt x="55" y="549" on="0"/>
        <pt x="55" y="580" on="1"/>
        <pt x="55" y="609" on="0"/>
        <pt x="84" y="648" on="0"/>
        <pt x="103" y="648" on="1"/>
        <pt x="95" y="656" on="0"/>
        <pt x="91" y="683" on="0"/>
        <pt x="91" y="691" on="1"/>
        <pt x="91" y="725" on="0"/>
        <pt x="148" y="774" on="0"/>
        <pt x="239" y="805" on="0"/>
        <pt x="350" y="820" on="0"/>
      </contour>
      <contour>
        <pt x="431" y="863" on="1"/>
        <pt x="429" y="855" on="0"/>
        <pt x="413" y="845" on="0"/>
        <pt x="403" y="845" on="1"/>
        <pt x="394" y="845" on="0"/>
        <pt x="380" y="855" on="0"/>
        <pt x="378" y="863" on="1"/>
        <pt x="374" y="861" on="0"/>
        <pt x="369" y="861" on="1"/>
        <pt x="352" y="861" on="0"/>
        <pt x="337" y="877" on="0"/>
        <pt x="319" y="903" on="0"/>
        <pt x="289" y="933" on="0"/>
        <pt x="258" y="948" on="1"/>
        <pt x="253" y="951" on="0"/>
        <pt x="252" y="960" on="0"/>
        <pt x="252" y="964" on="1"/>
        <pt x="252" y="975" on="0"/>
        <pt x="266" y="990" on="0"/>
        <pt x="277" y="990" on="1"/>
        <pt x="288" y="990" on="0"/>
        <pt x="296" y="983" on="1"/>
        <pt x="336" y="964" on="0"/>
        <pt x="393" y="920" on="0"/>
        <pt x="404" y="913" on="1"/>
        <pt x="415" y="920" on="0"/>
        <pt x="473" y="964" on="0"/>
        <pt x="513" y="983" on="1"/>
        <pt x="521" y="990" on="0"/>
        <pt x="529" y="990" on="1"/>
        <pt x="539" y="990" on="0"/>
        <pt x="557" y="979" on="0"/>
        <pt x="557" y="965" on="1"/>
        <pt x="557" y="960" on="0"/>
        <pt x="554" y="950" on="0"/>
        <pt x="551" y="948" on="1"/>
        <pt x="520" y="933" on="0"/>
        <pt x="490" y="903" on="0"/>
        <pt x="472" y="877" on="0"/>
        <pt x="456" y="861" on="0"/>
        <pt x="440" y="861" on="1"/>
        <pt x="435" y="861" on="0"/>
      </contour>
    </TTGlyph>
    <TTGlyph name="Dcroat" xMin="47" yMin="-179" xMax="812" yMax="820">
      <contour>
        <pt x="404" y="820" on="1"/>
        <pt x="516" y="820" on="0"/>
        <pt x="672" y="746" on="0"/>
        <pt x="769" y="617" on="0"/>
        <pt x="812" y="442" on="0"/>
        <pt x="812" y="341" on="1"/>
        <pt x="812" y="208" on="0"/>
        <pt x="752" y="13" on="0"/>
        <pt x="636" y="-116" on="0"/>
        <pt x="469" y="-179" on="0"/>
        <pt x="363" y="-179" on="1"/>
        <pt x="306" y="-179" on="0"/>
        <pt x="199" y="-161" on="0"/>
        <pt x="117" y="-125" on="0"/>
        <pt x="67" y="-73" on="0"/>
        <pt x="67" y="-38" on="1"/>
        <pt x="67" y="-14" on="0"/>
        <pt x="82" y="-9" on="1"/>
        <pt x="77" y="-6" on="0"/>
        <pt x="65" y="14" on="0"/>
        <pt x="55" y="43" on="0"/>
        <pt x="47" y="80" on="0"/>
        <pt x="47" y="99" on="1"/>
        <pt x="47" y="114" on="0"/>
        <pt x="54" y="153" on="0"/>
        <pt x="75" y="190" on="0"/>
        <pt x="114" y="220" on="0"/>
        <pt x="146" y="226" on="1"/>
        <pt x="152" y="221" on="1"/>
        <pt x="141" y="196" on="0"/>
        <pt x="134" y="139" on="0"/>
        <pt x="134" y="113" on="1"/>
        <pt x="134" y="57" on="0"/>
        <pt x="159" y="-23" on="0"/>
        <pt x="199" y="-77" on="0"/>
        <pt x="250" y="-109" on="0"/>
        <pt x="303" y="-126" on="0"/>
        <pt x="354" y="-131" on="0"/>
        <pt x="373" y="-131" on="1"/>
        <pt x="463" y="-131" on="0"/>
        <pt x="590" y="-67" on="0"/>
        <pt x="670" y="54" on="0"/>
        <pt x="707" y="229" on="0"/>
        <pt x="707" y="340" on="1"/>
        <pt x="707" y="423" on="0"/>
        <pt x="675" y="579" on="0"/>
        <pt x="601" y="699" on="0"/>
        <pt x="480" y="772" on="0"/>
        <pt x="392" y="772" on="1"/>
        <pt x="317" y="772" on="0"/>
        <pt x="221" y="727" on="0"/>
        <pt x="164" y="652" on="0"/>
        <pt x="142" y="557" on="0"/>
        <pt x="142" y="506" on="1"/>
        <pt x="95" y="506" on="0"/>
        <pt x="55" y="549" on="0"/>
        <pt x="55" y="580" on="1"/>
        <pt x="55" y="609" on="0"/>
        <pt x="84" y="648" on="0"/>
        <pt x="103" y="648" on="1"/>
        <pt x="95" y="656" on="0"/>
        <pt x="91" y="683" on="0"/>
        <pt x="91" y="691" on="1"/>
        <pt x="91" y="725" on="0"/>
        <pt x="148" y="774" on="0"/>
        <pt x="239" y="805" on="0"/>
        <pt x="350" y="820" on="0"/>
      </contour>
      <contour>
        <pt x="299" y="312" on="1"/>
        <pt x="282" y="312" on="0"/>
        <pt x="225" y="310" on="0"/>
        <pt x="202" y="305" on="1"/>
        <pt x="197" y="311" on="0"/>
        <pt x="188" y="335" on="0"/>
        <pt x="188" y="346" on="1"/>
        <pt x="188" y="365" on="0"/>
        <pt x="228" y="380" on="0"/>
        <pt x="278" y="380" on="1"/>
        <pt x="299" y="380" on="1"/>
        <pt x="299" y="507" on="1"/>
        <pt x="299" y="544" on="0"/>
        <pt x="296" y="593" on="0"/>
        <pt x="282" y="620" on="0"/>
        <pt x="256" y="631" on="0"/>
        <pt x="233" y="631" on="1"/>
        <pt x="233" y="666" on="1"/>
        <pt x="258" y="666" on="0"/>
        <pt x="295" y="672" on="0"/>
        <pt x="325" y="684" on="0"/>
        <pt x="350" y="700" on="0"/>
        <pt x="364" y="709" on="1"/>
        <pt x="389" y="709" on="1"/>
        <pt x="389" y="371" on="1"/>
        <pt x="413" y="368" on="0"/>
        <pt x="438" y="368" on="1"/>
        <pt x="465" y="368" on="0"/>
        <pt x="517" y="371" on="0"/>
        <pt x="539" y="375" on="1"/>
        <pt x="544" y="369" on="0"/>
        <pt x="553" y="346" on="0"/>
        <pt x="553" y="335" on="1"/>
        <pt x="553" y="314" on="0"/>
        <pt x="502" y="300" on="0"/>
        <pt x="447" y="300" on="1"/>
        <pt x="432" y="300" on="0"/>
        <pt x="403" y="302" on="0"/>
        <pt x="389" y="304" on="1"/>
        <pt x="389" y="111" on="1"/>
        <pt x="389" y="87" on="0"/>
        <pt x="408" y="59" on="0"/>
        <pt x="435" y="46" on="0"/>
        <pt x="466" y="42" on="0"/>
        <pt x="478" y="42" on="1"/>
        <pt x="478" y="0" on="1"/>
        <pt x="466" y="0" on="0"/>
        <pt x="430" y="3" on="0"/>
        <pt x="392" y="7" on="0"/>
        <pt x="356" y="10" on="0"/>
        <pt x="344" y="10" on="1"/>
        <pt x="332" y="10" on="0"/>
        <pt x="296" y="7" on="0"/>
        <pt x="258" y="3" on="0"/>
        <pt x="222" y="0" on="0"/>
        <pt x="210" y="0" on="1"/>
        <pt x="210" y="42" on="1"/>
        <pt x="223" y="42" on="0"/>
        <pt x="255" y="46" on="0"/>
        <pt x="281" y="59" on="0"/>
        <pt x="299" y="87" on="0"/>
        <pt x="299" y="111" on="1"/>
      </contour>
    </TTGlyph>
    <TTGlyph name="Ddotbelow" xMin="48" yMin="-229" xMax="813" yMax="820">
      <contour>
        <pt x="298" y="-171" on="1"/>
        <pt x="298" y="-146" on="0"/>
        <pt x="332" y="-112" on="0"/>
        <pt x="356" y="-112" on="1"/>
        <pt x="380" y="-112" on="0"/>
        <pt x="414" y="-146" on="0"/>
        <pt x="414" y="-171" on="1"/>
        <pt x="414" y="-195" on="0"/>
        <pt x="380" y="-229" on="0"/>
        <pt x="356" y="-229" on="1"/>
        <pt x="332" y="-229" on="0"/>
        <pt x="298" y="-195" on="0"/>
      </contour>
      <contour>
        <pt x="390" y="171" on="1"/>
        <pt x="390" y="147" on="0"/>
        <pt x="409" y="119" on="0"/>
        <pt x="436" y="106" on="0"/>
        <pt x="467" y="102" on="0"/>
        <pt x="479" y="102" on="1"/>
        <pt x="479" y="60" on="1"/>
        <pt x="467" y="60" on="0"/>
        <pt x="431" y="63" on="0"/>
        <pt x="393" y="67" on="0"/>
        <pt x="357" y="70" on="0"/>
        <pt x="345" y="70" on="1"/>
        <pt x="333" y="70" on="0"/>
        <pt x="297" y="67" on="0"/>
        <pt x="259" y="63" on="0"/>
        <pt x="223" y="60" on="0"/>
        <pt x="211" y="60" on="1"/>
        <pt x="211" y="102" on="1"/>
        <pt x="224" y="102" on="0"/>
        <pt x="256" y="106" on="0"/>
        <pt x="282" y="119" on="0"/>
        <pt x="300" y="147" on="0"/>
        <pt x="300" y="171" on="1"/>
        <pt x="300" y="507" on="1"/>
        <pt x="300" y="544" on="0"/>
        <pt x="297" y="593" on="0"/>
        <pt x="283" y="620" on="0"/>
        <pt x="257" y="631" on="0"/>
        <pt x="234" y="631" on="1"/>
        <pt x="234" y="666" on="1"/>
        <pt x="259" y="666" on="0"/>
        <pt x="296" y="672" on="0"/>
        <pt x="326" y="684" on="0"/>
        <pt x="351" y="700" on="0"/>
        <pt x="365" y="709" on="1"/>
        <pt x="390" y="709" on="1"/>
      </contour>
      <contour>
        <pt x="405" y="820" on="1"/>
        <pt x="517" y="820" on="0"/>
        <pt x="673" y="751" on="0"/>
        <pt x="770" y="629" on="0"/>
        <pt x="813" y="465" on="0"/>
        <pt x="813" y="371" on="1"/>
        <pt x="813" y="254" on="0"/>
        <pt x="753" y="81" on="0"/>
        <pt x="637" y="-33" on="0"/>
        <pt x="470" y="-89" on="0"/>
        <pt x="364" y="-89" on="1"/>
        <pt x="307" y="-89" on="0"/>
        <pt x="200" y="-71" on="0"/>
        <pt x="118" y="-35" on="0"/>
        <pt x="68" y="18" on="0"/>
        <pt x="68" y="52" on="1"/>
        <pt x="68" y="74" on="0"/>
        <pt x="75" y="81" on="0"/>
        <pt x="83" y="81" on="1"/>
        <pt x="78" y="84" on="0"/>
        <pt x="66" y="104" on="0"/>
        <pt x="56" y="133" on="0"/>
        <pt x="48" y="170" on="0"/>
        <pt x="48" y="189" on="1"/>
        <pt x="48" y="204" on="0"/>
        <pt x="55" y="243" on="0"/>
        <pt x="76" y="281" on="0"/>
        <pt x="115" y="311" on="0"/>
        <pt x="147" y="316" on="1"/>
        <pt x="153" y="311" on="1"/>
        <pt x="142" y="286" on="0"/>
        <pt x="135" y="229" on="0"/>
        <pt x="135" y="203" on="1"/>
        <pt x="135" y="147" on="0"/>
        <pt x="160" y="67" on="0"/>
        <pt x="200" y="13" on="0"/>
        <pt x="251" y="-19" on="0"/>
        <pt x="304" y="-36" on="0"/>
        <pt x="355" y="-41" on="0"/>
        <pt x="374" y="-41" on="1"/>
        <pt x="464" y="-41" on="0"/>
        <pt x="591" y="14" on="0"/>
        <pt x="671" y="120" on="0"/>
        <pt x="708" y="272" on="0"/>
        <pt x="708" y="370" on="1"/>
        <pt x="708" y="447" on="0"/>
        <pt x="676" y="592" on="0"/>
        <pt x="602" y="704" on="0"/>
        <pt x="481" y="772" on="0"/>
        <pt x="393" y="772" on="1"/>
        <pt x="318" y="772" on="0"/>
        <pt x="222" y="727" on="0"/>
        <pt x="165" y="652" on="0"/>
        <pt x="143" y="557" on="0"/>
        <pt x="143" y="506" on="1"/>
        <pt x="96" y="506" on="0"/>
        <pt x="56" y="549" on="0"/>
        <pt x="56" y="580" on="1"/>
        <pt x="56" y="609" on="0"/>
        <pt x="85" y="648" on="0"/>
        <pt x="104" y="648" on="1"/>
        <pt x="96" y="656" on="0"/>
        <pt x="92" y="683" on="0"/>
        <pt x="92" y="691" on="1"/>
        <pt x="92" y="725" on="0"/>
        <pt x="149" y="774" on="0"/>
        <pt x="240" y="805" on="0"/>
        <pt x="351" y="820" on="0"/>
      </contour>
    </TTGlyph>
    <TTGlyph name="E" xMin="48" yMin="-85" xMax="578" yMax="809">
      <contour>
        <pt x="227" y="799" on="1"/>
        <pt x="267" y="799" on="0"/>
        <pt x="358" y="802" on="0"/>
        <pt x="438" y="806" on="0"/>
        <pt x="495" y="809" on="0"/>
        <pt x="502" y="809" on="1"/>
        <pt x="526" y="809" on="0"/>
        <pt x="526" y="783" on="1"/>
        <pt x="526" y="772" on="0"/>
        <pt x="520" y="703" on="0"/>
        <pt x="520" y="654" on="1"/>
        <pt x="480" y="654" on="1"/>
        <pt x="480" y="675" on="0"/>
        <pt x="475" y="712" on="0"/>
        <pt x="460" y="740" on="0"/>
        <pt x="432" y="757" on="0"/>
        <pt x="408" y="757" on="1"/>
        <pt x="227" y="757" on="1"/>
        <pt x="227" y="440" on="1"/>
        <pt x="260" y="435" on="0"/>
        <pt x="327" y="430" on="0"/>
        <pt x="361" y="430" on="1"/>
        <pt x="396" y="430" on="0"/>
        <pt x="466" y="445" on="0"/>
        <pt x="491" y="467" on="1"/>
        <pt x="496" y="462" on="0"/>
        <pt x="505" y="444" on="0"/>
        <pt x="505" y="433" on="1"/>
        <pt x="505" y="407" on="0"/>
        <pt x="447" y="372" on="0"/>
        <pt x="385" y="372" on="1"/>
        <pt x="344" y="372" on="0"/>
        <pt x="266" y="384" on="0"/>
        <pt x="227" y="394" on="1"/>
        <pt x="227" y="111" on="1"/>
        <pt x="227" y="71" on="0"/>
        <pt x="262" y="16" on="0"/>
        <pt x="312" y="-19" on="0"/>
        <pt x="368" y="-34" on="0"/>
        <pt x="389" y="-34" on="1"/>
        <pt x="418" y="-34" on="0"/>
        <pt x="455" y="-19" on="0"/>
        <pt x="477" y="5" on="0"/>
        <pt x="486" y="36" on="0"/>
        <pt x="486" y="53" on="1"/>
        <pt x="486" y="79" on="0"/>
        <pt x="469" y="112" on="0"/>
        <pt x="451" y="126" on="1"/>
        <pt x="451" y="130" on="1"/>
        <pt x="469" y="133" on="0"/>
        <pt x="483" y="133" on="1"/>
        <pt x="505" y="133" on="0"/>
        <pt x="532" y="118" on="0"/>
        <pt x="547" y="94" on="0"/>
        <pt x="552" y="64" on="0"/>
        <pt x="552" y="49" on="1"/>
        <pt x="564" y="49" on="0"/>
        <pt x="578" y="26" on="0"/>
        <pt x="578" y="6" on="1"/>
        <pt x="578" y="-12" on="0"/>
        <pt x="562" y="-45" on="0"/>
        <pt x="527" y="-70" on="0"/>
        <pt x="470" y="-85" on="0"/>
        <pt x="429" y="-85" on="1"/>
        <pt x="369" y="-85" on="0"/>
        <pt x="276" y="-55" on="0"/>
        <pt x="196" y="-20" on="0"/>
        <pt x="121" y="10" on="0"/>
        <pt x="79" y="10" on="1"/>
        <pt x="48" y="10" on="1"/>
        <pt x="48" y="52" on="1"/>
        <pt x="61" y="52" on="0"/>
        <pt x="93" y="55" on="0"/>
        <pt x="119" y="71" on="0"/>
        <pt x="137" y="106" on="0"/>
        <pt x="137" y="138" on="1"/>
        <pt x="137" y="698" on="1"/>
        <pt x="137" y="722" on="0"/>
        <pt x="119" y="750" on="0"/>
        <pt x="93" y="763" on="0"/>
        <pt x="61" y="767" on="0"/>
        <pt x="48" y="767" on="1"/>
        <pt x="48" y="809" on="1"/>
        <pt x="60" y="809" on="0"/>
        <pt x="110" y="806" on="0"/>
        <pt x="165" y="802" on="0"/>
        <pt x="215" y="799" on="0"/>
      </contour>
    </TTGlyph>
    <TTGlyph name="Eacute" xMin="48" yMin="-85" xMax="578" yMax="990">
      <contour>
        <pt x="227" y="799" on="1"/>
        <pt x="267" y="799" on="0"/>
        <pt x="358" y="802" on="0"/>
        <pt x="438" y="806" on="0"/>
        <pt x="495" y="809" on="0"/>
        <pt x="502" y="809" on="1"/>
        <pt x="526" y="809" on="0"/>
        <pt x="526" y="783" on="1"/>
        <pt x="526" y="772" on="0"/>
        <pt x="520" y="703" on="0"/>
        <pt x="520" y="654" on="1"/>
        <pt x="480" y="654" on="1"/>
        <pt x="480" y="675" on="0"/>
        <pt x="475" y="712" on="0"/>
        <pt x="460" y="740" on="0"/>
        <pt x="432" y="757" on="0"/>
        <pt x="408" y="757" on="1"/>
        <pt x="227" y="757" on="1"/>
        <pt x="227" y="440" on="1"/>
        <pt x="260" y="435" on="0"/>
        <pt x="327" y="430" on="0"/>
        <pt x="361" y="430" on="1"/>
        <pt x="396" y="430" on="0"/>
        <pt x="466" y="445" on="0"/>
        <pt x="491" y="467" on="1"/>
        <pt x="496" y="462" on="0"/>
        <pt x="505" y="444" on="0"/>
        <pt x="505" y="433" on="1"/>
        <pt x="505" y="407" on="0"/>
        <pt x="447" y="372" on="0"/>
        <pt x="385" y="372" on="1"/>
        <pt x="344" y="372" on="0"/>
        <pt x="266" y="384" on="0"/>
        <pt x="227" y="394" on="1"/>
        <pt x="227" y="111" on="1"/>
        <pt x="227" y="71" on="0"/>
        <pt x="262" y="16" on="0"/>
        <pt x="312" y="-19" on="0"/>
        <pt x="368" y="-34" on="0"/>
        <pt x="389" y="-34" on="1"/>
        <pt x="418" y="-34" on="0"/>
        <pt x="455" y="-19" on="0"/>
        <pt x="477" y="5" on="0"/>
        <pt x="486" y="36" on="0"/>
        <pt x="486" y="53" on="1"/>
        <pt x="486" y="79" on="0"/>
        <pt x="469" y="112" on="0"/>
        <pt x="451" y="126" on="1"/>
        <pt x="451" y="130" on="1"/>
        <pt x="469" y="133" on="0"/>
        <pt x="483" y="133" on="1"/>
        <pt x="505" y="133" on="0"/>
        <pt x="532" y="118" on="0"/>
        <pt x="547" y="94" on="0"/>
        <pt x="552" y="64" on="0"/>
        <pt x="552" y="49" on="1"/>
        <pt x="564" y="49" on="0"/>
        <pt x="578" y="26" on="0"/>
        <pt x="578" y="6" on="1"/>
        <pt x="578" y="-12" on="0"/>
        <pt x="562" y="-45" on="0"/>
        <pt x="527" y="-70" on="0"/>
        <pt x="470" y="-85" on="0"/>
        <pt x="429" y="-85" on="1"/>
        <pt x="369" y="-85" on="0"/>
        <pt x="276" y="-55" on="0"/>
        <pt x="196" y="-20" on="0"/>
        <pt x="121" y="10" on="0"/>
        <pt x="79" y="10" on="1"/>
        <pt x="48" y="10" on="1"/>
        <pt x="48" y="52" on="1"/>
        <pt x="61" y="52" on="0"/>
        <pt x="93" y="55" on="0"/>
        <pt x="119" y="71" on="0"/>
        <pt x="137" y="106" on="0"/>
        <pt x="137" y="138" on="1"/>
        <pt x="137" y="698" on="1"/>
        <pt x="137" y="722" on="0"/>
        <pt x="119" y="750" on="0"/>
        <pt x="93" y="763" on="0"/>
        <pt x="61" y="767" on="0"/>
        <pt x="48" y="767" on="1"/>
        <pt x="48" y="809" on="1"/>
        <pt x="60" y="809" on="0"/>
        <pt x="110" y="806" on="0"/>
        <pt x="165" y="802" on="0"/>
        <pt x="215" y="799" on="0"/>
      </contour>
      <contour>
        <pt x="364" y="981" on="1"/>
        <pt x="371" y="985" on="0"/>
        <pt x="380" y="985" on="1"/>
        <pt x="391" y="985" on="0"/>
        <pt x="412" y="970" on="0"/>
        <pt x="412" y="958" on="1"/>
        <pt x="412" y="949" on="0"/>
        <pt x="400" y="932" on="0"/>
        <pt x="391" y="928" on="1"/>
        <pt x="392" y="926" on="0"/>
        <pt x="392" y="921" on="1"/>
        <pt x="392" y="904" on="0"/>
        <pt x="374" y="892" on="0"/>
        <pt x="337" y="884" on="0"/>
        <pt x="278" y="874" on="0"/>
        <pt x="237" y="861" on="1"/>
        <pt x="231" y="859" on="0"/>
        <pt x="227" y="859" on="1"/>
        <pt x="213" y="859" on="0"/>
        <pt x="201" y="877" on="0"/>
        <pt x="201" y="885" on="1"/>
        <pt x="201" y="899" on="0"/>
        <pt x="215" y="907" on="1"/>
        <pt x="243" y="922" on="0"/>
        <pt x="282" y="951" on="0"/>
        <pt x="311" y="975" on="0"/>
        <pt x="333" y="990" on="0"/>
        <pt x="344" y="990" on="1"/>
        <pt x="349" y="990" on="0"/>
        <pt x="360" y="986" on="0"/>
      </contour>
    </TTGlyph>
    <TTGlyph name="Ebreve" xMin="48" yMin="-85" xMax="578" yMax="990">
      <contour>
        <pt x="227" y="799" on="1"/>
        <pt x="267" y="799" on="0"/>
        <pt x="358" y="802" on="0"/>
        <pt x="438" y="806" on="0"/>
        <pt x="495" y="809" on="0"/>
        <pt x="502" y="809" on="1"/>
        <pt x="526" y="809" on="0"/>
        <pt x="526" y="783" on="1"/>
        <pt x="526" y="772" on="0"/>
        <pt x="520" y="703" on="0"/>
        <pt x="520" y="654" on="1"/>
        <pt x="480" y="654" on="1"/>
        <pt x="480" y="675" on="0"/>
        <pt x="475" y="712" on="0"/>
        <pt x="460" y="740" on="0"/>
        <pt x="432" y="757" on="0"/>
        <pt x="408" y="757" on="1"/>
        <pt x="227" y="757" on="1"/>
        <pt x="227" y="440" on="1"/>
        <pt x="260" y="435" on="0"/>
        <pt x="327" y="430" on="0"/>
        <pt x="361" y="430" on="1"/>
        <pt x="396" y="430" on="0"/>
        <pt x="466" y="445" on="0"/>
        <pt x="491" y="467" on="1"/>
        <pt x="496" y="462" on="0"/>
        <pt x="505" y="444" on="0"/>
        <pt x="505" y="433" on="1"/>
        <pt x="505" y="407" on="0"/>
        <pt x="447" y="372" on="0"/>
        <pt x="385" y="372" on="1"/>
        <pt x="344" y="372" on="0"/>
        <pt x="266" y="384" on="0"/>
        <pt x="227" y="394" on="1"/>
        <pt x="227" y="111" on="1"/>
        <pt x="227" y="71" on="0"/>
        <pt x="262" y="16" on="0"/>
        <pt x="312" y="-19" on="0"/>
        <pt x="368" y="-34" on="0"/>
        <pt x="389" y="-34" on="1"/>
        <pt x="418" y="-34" on="0"/>
        <pt x="455" y="-19" on="0"/>
        <pt x="477" y="5" on="0"/>
        <pt x="486" y="36" on="0"/>
        <pt x="486" y="53" on="1"/>
        <pt x="486" y="79" on="0"/>
        <pt x="469" y="112" on="0"/>
        <pt x="451" y="126" on="1"/>
        <pt x="451" y="130" on="1"/>
        <pt x="469" y="133" on="0"/>
        <pt x="483" y="133" on="1"/>
        <pt x="505" y="133" on="0"/>
        <pt x="532" y="118" on="0"/>
        <pt x="547" y="94" on="0"/>
        <pt x="552" y="64" on="0"/>
        <pt x="552" y="49" on="1"/>
        <pt x="564" y="49" on="0"/>
        <pt x="578" y="26" on="0"/>
        <pt x="578" y="6" on="1"/>
        <pt x="578" y="-12" on="0"/>
        <pt x="562" y="-45" on="0"/>
        <pt x="527" y="-70" on="0"/>
        <pt x="470" y="-85" on="0"/>
        <pt x="429" y="-85" on="1"/>
        <pt x="369" y="-85" on="0"/>
        <pt x="276" y="-55" on="0"/>
        <pt x="196" y="-20" on="0"/>
        <pt x="121" y="10" on="0"/>
        <pt x="79" y="10" on="1"/>
        <pt x="48" y="10" on="1"/>
        <pt x="48" y="52" on="1"/>
        <pt x="61" y="52" on="0"/>
        <pt x="93" y="55" on="0"/>
        <pt x="119" y="71" on="0"/>
        <pt x="137" y="106" on="0"/>
        <pt x="137" y="138" on="1"/>
        <pt x="137" y="698" on="1"/>
        <pt x="137" y="722" on="0"/>
        <pt x="119" y="750" on="0"/>
        <pt x="93" y="763" on="0"/>
        <pt x="61" y="767" on="0"/>
        <pt x="48" y="767" on="1"/>
        <pt x="48" y="809" on="1"/>
        <pt x="60" y="809" on="0"/>
        <pt x="110" y="806" on="0"/>
        <pt x="165" y="802" on="0"/>
        <pt x="215" y="799" on="0"/>
      </contour>
      <contour>
        <pt x="445" y="990" on="1"/>
        <pt x="445" y="956" on="0"/>
        <pt x="425" y="910" on="0"/>
        <pt x="389" y="881" on="0"/>
        <pt x="337" y="869" on="0"/>
        <pt x="306" y="869" on="1"/>
        <pt x="274" y="869" on="0"/>
        <pt x="223" y="881" on="0"/>
        <pt x="187" y="910" on="0"/>
        <pt x="168" y="956" on="0"/>
        <pt x="168" y="990" on="1"/>
        <pt x="251" y="990" on="1"/>
        <pt x="249" y="980" on="0"/>
        <pt x="249" y="973" on="1"/>
        <pt x="249" y="956" on="0"/>
        <pt x="273" y="921" on="0"/>
        <pt x="306" y="921" on="1"/>
        <pt x="323" y="921" on="0"/>
        <pt x="345" y="931" on="0"/>
        <pt x="357" y="946" on="0"/>
        <pt x="362" y="964" on="0"/>
        <pt x="362" y="973" on="1"/>
        <pt x="362" y="980" on="0"/>
        <pt x="360" y="990" on="1"/>
      </contour>
    </TTGlyph>
    <TTGlyph name="Ecaron" xMin="48" yMin="-85" xMax="578" yMax="990">
      <contour>
        <pt x="227" y="799" on="1"/>
        <pt x="267" y="799" on="0"/>
        <pt x="358" y="802" on="0"/>
        <pt x="438" y="806" on="0"/>
        <pt x="495" y="809" on="0"/>
        <pt x="502" y="809" on="1"/>
        <pt x="526" y="809" on="0"/>
        <pt x="526" y="783" on="1"/>
        <pt x="526" y="772" on="0"/>
        <pt x="520" y="703" on="0"/>
        <pt x="520" y="654" on="1"/>
        <pt x="480" y="654" on="1"/>
        <pt x="480" y="675" on="0"/>
        <pt x="475" y="712" on="0"/>
        <pt x="460" y="740" on="0"/>
        <pt x="432" y="757" on="0"/>
        <pt x="408" y="757" on="1"/>
        <pt x="227" y="757" on="1"/>
        <pt x="227" y="440" on="1"/>
        <pt x="260" y="435" on="0"/>
        <pt x="327" y="430" on="0"/>
        <pt x="361" y="430" on="1"/>
        <pt x="396" y="430" on="0"/>
        <pt x="466" y="445" on="0"/>
        <pt x="491" y="467" on="1"/>
        <pt x="496" y="462" on="0"/>
        <pt x="505" y="444" on="0"/>
        <pt x="505" y="433" on="1"/>
        <pt x="505" y="407" on="0"/>
        <pt x="447" y="372" on="0"/>
        <pt x="385" y="372" on="1"/>
        <pt x="344" y="372" on="0"/>
        <pt x="266" y="384" on="0"/>
        <pt x="227" y="394" on="1"/>
        <pt x="227" y="111" on="1"/>
        <pt x="227" y="71" on="0"/>
        <pt x="262" y="16" on="0"/>
        <pt x="312" y="-19" on="0"/>
        <pt x="368" y="-34" on="0"/>
        <pt x="389" y="-34" on="1"/>
        <pt x="418" y="-34" on="0"/>
        <pt x="455" y="-19" on="0"/>
        <pt x="477" y="5" on="0"/>
        <pt x="486" y="36" on="0"/>
        <pt x="486" y="53" on="1"/>
        <pt x="486" y="79" on="0"/>
        <pt x="469" y="112" on="0"/>
        <pt x="451" y="126" on="1"/>
        <pt x="451" y="130" on="1"/>
        <pt x="469" y="133" on="0"/>
        <pt x="483" y="133" on="1"/>
        <pt x="505" y="133" on="0"/>
        <pt x="532" y="118" on="0"/>
        <pt x="547" y="94" on="0"/>
        <pt x="552" y="64" on="0"/>
        <pt x="552" y="49" on="1"/>
        <pt x="564" y="49" on="0"/>
        <pt x="578" y="26" on="0"/>
        <pt x="578" y="6" on="1"/>
        <pt x="578" y="-12" on="0"/>
        <pt x="562" y="-45" on="0"/>
        <pt x="527" y="-70" on="0"/>
        <pt x="470" y="-85" on="0"/>
        <pt x="429" y="-85" on="1"/>
        <pt x="369" y="-85" on="0"/>
        <pt x="276" y="-55" on="0"/>
        <pt x="196" y="-20" on="0"/>
        <pt x="121" y="10" on="0"/>
        <pt x="79" y="10" on="1"/>
        <pt x="48" y="10" on="1"/>
        <pt x="48" y="52" on="1"/>
        <pt x="61" y="52" on="0"/>
        <pt x="93" y="55" on="0"/>
        <pt x="119" y="71" on="0"/>
        <pt x="137" y="106" on="0"/>
        <pt x="137" y="138" on="1"/>
        <pt x="137" y="698" on="1"/>
        <pt x="137" y="722" on="0"/>
        <pt x="119" y="750" on="0"/>
        <pt x="93" y="763" on="0"/>
        <pt x="61" y="767" on="0"/>
        <pt x="48" y="767" on="1"/>
        <pt x="48" y="809" on="1"/>
        <pt x="60" y="809" on="0"/>
        <pt x="110" y="806" on="0"/>
        <pt x="165" y="802" on="0"/>
        <pt x="215" y="799" on="0"/>
      </contour>
      <contour>
        <pt x="334" y="863" on="1"/>
        <pt x="332" y="855" on="0"/>
        <pt x="316" y="845" on="0"/>
        <pt x="306" y="845" on="1"/>
        <pt x="297" y="845" on="0"/>
        <pt x="283" y="855" on="0"/>
        <pt x="281" y="863" on="1"/>
        <pt x="277" y="861" on="0"/>
        <pt x="272" y="861" on="1"/>
        <pt x="255" y="861" on="0"/>
        <pt x="240" y="877" on="0"/>
        <pt x="222" y="903" on="0"/>
        <pt x="192" y="933" on="0"/>
        <pt x="161" y="948" on="1"/>
        <pt x="156" y="951" on="0"/>
        <pt x="155" y="960" on="0"/>
        <pt x="155" y="964" on="1"/>
        <pt x="155" y="975" on="0"/>
        <pt x="169" y="990" on="0"/>
        <pt x="180" y="990" on="1"/>
        <pt x="191" y="990" on="0"/>
        <pt x="199" y="983" on="1"/>
        <pt x="239" y="964" on="0"/>
        <pt x="296" y="920" on="0"/>
        <pt x="307" y="913" on="1"/>
        <pt x="318" y="920" on="0"/>
        <pt x="376" y="964" on="0"/>
        <pt x="416" y="983" on="1"/>
        <pt x="424" y="990" on="0"/>
        <pt x="432" y="990" on="1"/>
        <pt x="442" y="990" on="0"/>
        <pt x="460" y="979" on="0"/>
        <pt x="460" y="965" on="1"/>
        <pt x="460" y="960" on="0"/>
        <pt x="457" y="950" on="0"/>
        <pt x="454" y="948" on="1"/>
        <pt x="423" y="933" on="0"/>
        <pt x="393" y="903" on="0"/>
        <pt x="375" y="877" on="0"/>
        <pt x="359" y="861" on="0"/>
        <pt x="343" y="861" on="1"/>
        <pt x="338" y="861" on="0"/>
      </contour>
    </TTGlyph>
    <TTGlyph name="Ecircumflex" xMin="48" yMin="-85" xMax="578" yMax="990">
      <contour>
        <pt x="227" y="799" on="1"/>
        <pt x="267" y="799" on="0"/>
        <pt x="358" y="802" on="0"/>
        <pt x="438" y="806" on="0"/>
        <pt x="495" y="809" on="0"/>
        <pt x="502" y="809" on="1"/>
        <pt x="526" y="809" on="0"/>
        <pt x="526" y="783" on="1"/>
        <pt x="526" y="772" on="0"/>
        <pt x="520" y="703" on="0"/>
        <pt x="520" y="654" on="1"/>
        <pt x="480" y="654" on="1"/>
        <pt x="480" y="675" on="0"/>
        <pt x="475" y="712" on="0"/>
        <pt x="460" y="740" on="0"/>
        <pt x="432" y="757" on="0"/>
        <pt x="408" y="757" on="1"/>
        <pt x="227" y="757" on="1"/>
        <pt x="227" y="440" on="1"/>
        <pt x="260" y="435" on="0"/>
        <pt x="327" y="430" on="0"/>
        <pt x="361" y="430" on="1"/>
        <pt x="396" y="430" on="0"/>
        <pt x="466" y="445" on="0"/>
        <pt x="491" y="467" on="1"/>
        <pt x="496" y="462" on="0"/>
        <pt x="505" y="444" on="0"/>
        <pt x="505" y="433" on="1"/>
        <pt x="505" y="407" on="0"/>
        <pt x="447" y="372" on="0"/>
        <pt x="385" y="372" on="1"/>
        <pt x="344" y="372" on="0"/>
        <pt x="266" y="384" on="0"/>
        <pt x="227" y="394" on="1"/>
        <pt x="227" y="111" on="1"/>
        <pt x="227" y="71" on="0"/>
        <pt x="262" y="16" on="0"/>
        <pt x="312" y="-19" on="0"/>
        <pt x="368" y="-34" on="0"/>
        <pt x="389" y="-34" on="1"/>
        <pt x="418" y="-34" on="0"/>
        <pt x="455" y="-19" on="0"/>
        <pt x="477" y="5" on="0"/>
        <pt x="486" y="36" on="0"/>
        <pt x="486" y="53" on="1"/>
        <pt x="486" y="79" on="0"/>
        <pt x="469" y="112" on="0"/>
        <pt x="451" y="126" on="1"/>
        <pt x="451" y="130" on="1"/>
        <pt x="469" y="133" on="0"/>
        <pt x="483" y="133" on="1"/>
        <pt x="505" y="133" on="0"/>
        <pt x="532" y="118" on="0"/>
        <pt x="547" y="94" on="0"/>
        <pt x="552" y="64" on="0"/>
        <pt x="552" y="49" on="1"/>
        <pt x="564" y="49" on="0"/>
        <pt x="578" y="26" on="0"/>
        <pt x="578" y="6" on="1"/>
        <pt x="578" y="-12" on="0"/>
        <pt x="562" y="-45" on="0"/>
        <pt x="527" y="-70" on="0"/>
        <pt x="470" y="-85" on="0"/>
        <pt x="429" y="-85" on="1"/>
        <pt x="369" y="-85" on="0"/>
        <pt x="276" y="-55" on="0"/>
        <pt x="196" y="-20" on="0"/>
        <pt x="121" y="10" on="0"/>
        <pt x="79" y="10" on="1"/>
        <pt x="48" y="10" on="1"/>
        <pt x="48" y="52" on="1"/>
        <pt x="61" y="52" on="0"/>
        <pt x="93" y="55" on="0"/>
        <pt x="119" y="71" on="0"/>
        <pt x="137" y="106" on="0"/>
        <pt x="137" y="138" on="1"/>
        <pt x="137" y="698" on="1"/>
        <pt x="137" y="722" on="0"/>
        <pt x="119" y="750" on="0"/>
        <pt x="93" y="763" on="0"/>
        <pt x="61" y="767" on="0"/>
        <pt x="48" y="767" on="1"/>
        <pt x="48" y="809" on="1"/>
        <pt x="60" y="809" on="0"/>
        <pt x="110" y="806" on="0"/>
        <pt x="165" y="802" on="0"/>
        <pt x="215" y="799" on="0"/>
      </contour>
      <contour>
        <pt x="333" y="972" on="1"/>
        <pt x="337" y="974" on="0"/>
        <pt x="342" y="974" on="1"/>
        <pt x="358" y="974" on="0"/>
        <pt x="374" y="958" on="0"/>
        <pt x="392" y="932" on="0"/>
        <pt x="422" y="902" on="0"/>
        <pt x="453" y="887" on="1"/>
        <pt x="456" y="885" on="0"/>
        <pt x="459" y="875" on="0"/>
        <pt x="459" y="870" on="1"/>
        <pt x="459" y="856" on="0"/>
        <pt x="441" y="845" on="0"/>
        <pt x="431" y="845" on="1"/>
        <pt x="423" y="845" on="0"/>
        <pt x="415" y="852" on="1"/>
        <pt x="375" y="871" on="0"/>
        <pt x="317" y="915" on="0"/>
        <pt x="306" y="922" on="1"/>
        <pt x="295" y="915" on="0"/>
        <pt x="238" y="871" on="0"/>
        <pt x="198" y="852" on="1"/>
        <pt x="190" y="845" on="0"/>
        <pt x="179" y="845" on="1"/>
        <pt x="168" y="845" on="0"/>
        <pt x="154" y="860" on="0"/>
        <pt x="154" y="871" on="1"/>
        <pt x="154" y="875" on="0"/>
        <pt x="155" y="884" on="0"/>
        <pt x="160" y="887" on="1"/>
        <pt x="191" y="902" on="0"/>
        <pt x="221" y="932" on="0"/>
        <pt x="239" y="958" on="0"/>
        <pt x="254" y="974" on="0"/>
        <pt x="271" y="974" on="1"/>
        <pt x="276" y="974" on="0"/>
        <pt x="280" y="972" on="1"/>
        <pt x="282" y="980" on="0"/>
        <pt x="296" y="990" on="0"/>
        <pt x="305" y="990" on="1"/>
        <pt x="315" y="990" on="0"/>
        <pt x="331" y="980" on="0"/>
      </contour>
    </TTGlyph>
    <TTGlyph name="Edieresis" xMin="48" yMin="-85" xMax="578" yMax="990">
      <contour>
        <pt x="227" y="799" on="1"/>
        <pt x="267" y="799" on="0"/>
        <pt x="358" y="802" on="0"/>
        <pt x="438" y="806" on="0"/>
        <pt x="495" y="809" on="0"/>
        <pt x="502" y="809" on="1"/>
        <pt x="526" y="809" on="0"/>
        <pt x="526" y="783" on="1"/>
        <pt x="526" y="772" on="0"/>
        <pt x="520" y="703" on="0"/>
        <pt x="520" y="654" on="1"/>
        <pt x="480" y="654" on="1"/>
        <pt x="480" y="675" on="0"/>
        <pt x="475" y="712" on="0"/>
        <pt x="460" y="740" on="0"/>
        <pt x="432" y="757" on="0"/>
        <pt x="408" y="757" on="1"/>
        <pt x="227" y="757" on="1"/>
        <pt x="227" y="440" on="1"/>
        <pt x="260" y="435" on="0"/>
        <pt x="327" y="430" on="0"/>
        <pt x="361" y="430" on="1"/>
        <pt x="396" y="430" on="0"/>
        <pt x="466" y="445" on="0"/>
        <pt x="491" y="467" on="1"/>
        <pt x="496" y="462" on="0"/>
        <pt x="505" y="444" on="0"/>
        <pt x="505" y="433" on="1"/>
        <pt x="505" y="407" on="0"/>
        <pt x="447" y="372" on="0"/>
        <pt x="385" y="372" on="1"/>
        <pt x="344" y="372" on="0"/>
        <pt x="266" y="384" on="0"/>
        <pt x="227" y="394" on="1"/>
        <pt x="227" y="111" on="1"/>
        <pt x="227" y="71" on="0"/>
        <pt x="262" y="16" on="0"/>
        <pt x="312" y="-19" on="0"/>
        <pt x="368" y="-34" on="0"/>
        <pt x="389" y="-34" on="1"/>
        <pt x="418" y="-34" on="0"/>
        <pt x="455" y="-19" on="0"/>
        <pt x="477" y="5" on="0"/>
        <pt x="486" y="36" on="0"/>
        <pt x="486" y="53" on="1"/>
        <pt x="486" y="79" on="0"/>
        <pt x="469" y="112" on="0"/>
        <pt x="451" y="126" on="1"/>
        <pt x="451" y="130" on="1"/>
        <pt x="469" y="133" on="0"/>
        <pt x="483" y="133" on="1"/>
        <pt x="505" y="133" on="0"/>
        <pt x="532" y="118" on="0"/>
        <pt x="547" y="94" on="0"/>
        <pt x="552" y="64" on="0"/>
        <pt x="552" y="49" on="1"/>
        <pt x="564" y="49" on="0"/>
        <pt x="578" y="26" on="0"/>
        <pt x="578" y="6" on="1"/>
        <pt x="578" y="-12" on="0"/>
        <pt x="562" y="-45" on="0"/>
        <pt x="527" y="-70" on="0"/>
        <pt x="470" y="-85" on="0"/>
        <pt x="429" y="-85" on="1"/>
        <pt x="369" y="-85" on="0"/>
        <pt x="276" y="-55" on="0"/>
        <pt x="196" y="-20" on="0"/>
        <pt x="121" y="10" on="0"/>
        <pt x="79" y="10" on="1"/>
        <pt x="48" y="10" on="1"/>
        <pt x="48" y="52" on="1"/>
        <pt x="61" y="52" on="0"/>
        <pt x="93" y="55" on="0"/>
        <pt x="119" y="71" on="0"/>
        <pt x="137" y="106" on="0"/>
        <pt x="137" y="138" on="1"/>
        <pt x="137" y="698" on="1"/>
        <pt x="137" y="722" on="0"/>
        <pt x="119" y="750" on="0"/>
        <pt x="93" y="763" on="0"/>
        <pt x="61" y="767" on="0"/>
        <pt x="48" y="767" on="1"/>
        <pt x="48" y="809" on="1"/>
        <pt x="60" y="809" on="0"/>
        <pt x="110" y="806" on="0"/>
        <pt x="165" y="802" on="0"/>
        <pt x="215" y="799" on="0"/>
      </contour>
      <contour>
        <pt x="134" y="925" on="1"/>
        <pt x="134" y="953" on="0"/>
        <pt x="172" y="990" on="0"/>
        <pt x="198" y="990" on="1"/>
        <pt x="224" y="990" on="0"/>
        <pt x="262" y="953" on="0"/>
        <pt x="262" y="925" on="1"/>
        <pt x="262" y="898" on="0"/>
        <pt x="224" y="861" on="0"/>
        <pt x="198" y="861" on="1"/>
        <pt x="172" y="861" on="0"/>
        <pt x="134" y="898" on="0"/>
      </contour>
      <contour>
        <pt x="352" y="925" on="1"/>
        <pt x="352" y="953" on="0"/>
        <pt x="390" y="990" on="0"/>
        <pt x="416" y="990" on="1"/>
        <pt x="442" y="990" on="0"/>
        <pt x="480" y="953" on="0"/>
        <pt x="480" y="925" on="1"/>
        <pt x="480" y="898" on="0"/>
        <pt x="442" y="861" on="0"/>
        <pt x="416" y="861" on="1"/>
        <pt x="390" y="861" on="0"/>
        <pt x="352" y="898" on="0"/>
      </contour>
    </TTGlyph>
    <TTGlyph name="Edotaccent" xMin="48" yMin="-85" xMax="578" yMax="990">
      <contour>
        <pt x="227" y="799" on="1"/>
        <pt x="267" y="799" on="0"/>
        <pt x="358" y="802" on="0"/>
        <pt x="438" y="806" on="0"/>
        <pt x="495" y="809" on="0"/>
        <pt x="502" y="809" on="1"/>
        <pt x="526" y="809" on="0"/>
        <pt x="526" y="783" on="1"/>
        <pt x="526" y="772" on="0"/>
        <pt x="520" y="703" on="0"/>
        <pt x="520" y="654" on="1"/>
        <pt x="480" y="654" on="1"/>
        <pt x="480" y="675" on="0"/>
        <pt x="475" y="712" on="0"/>
        <pt x="460" y="740" on="0"/>
        <pt x="432" y="757" on="0"/>
        <pt x="408" y="757" on="1"/>
        <pt x="227" y="757" on="1"/>
        <pt x="227" y="440" on="1"/>
        <pt x="260" y="435" on="0"/>
        <pt x="327" y="430" on="0"/>
        <pt x="361" y="430" on="1"/>
        <pt x="396" y="430" on="0"/>
        <pt x="466" y="445" on="0"/>
        <pt x="491" y="467" on="1"/>
        <pt x="496" y="462" on="0"/>
        <pt x="505" y="444" on="0"/>
        <pt x="505" y="433" on="1"/>
        <pt x="505" y="407" on="0"/>
        <pt x="447" y="372" on="0"/>
        <pt x="385" y="372" on="1"/>
        <pt x="344" y="372" on="0"/>
        <pt x="266" y="384" on="0"/>
        <pt x="227" y="394" on="1"/>
        <pt x="227" y="111" on="1"/>
        <pt x="227" y="71" on="0"/>
        <pt x="262" y="16" on="0"/>
        <pt x="312" y="-19" on="0"/>
        <pt x="368" y="-34" on="0"/>
        <pt x="389" y="-34" on="1"/>
        <pt x="418" y="-34" on="0"/>
        <pt x="455" y="-19" on="0"/>
        <pt x="477" y="5" on="0"/>
        <pt x="486" y="36" on="0"/>
        <pt x="486" y="53" on="1"/>
        <pt x="486" y="79" on="0"/>
        <pt x="469" y="112" on="0"/>
        <pt x="451" y="126" on="1"/>
        <pt x="451" y="130" on="1"/>
        <pt x="469" y="133" on="0"/>
        <pt x="483" y="133" on="1"/>
        <pt x="505" y="133" on="0"/>
        <pt x="532" y="118" on="0"/>
        <pt x="547" y="94" on="0"/>
        <pt x="552" y="64" on="0"/>
        <pt x="552" y="49" on="1"/>
        <pt x="564" y="49" on="0"/>
        <pt x="578" y="26" on="0"/>
        <pt x="578" y="6" on="1"/>
        <pt x="578" y="-12" on="0"/>
        <pt x="562" y="-45" on="0"/>
        <pt x="527" y="-70" on="0"/>
        <pt x="470" y="-85" on="0"/>
        <pt x="429" y="-85" on="1"/>
        <pt x="369" y="-85" on="0"/>
        <pt x="276" y="-55" on="0"/>
        <pt x="196" y="-20" on="0"/>
        <pt x="121" y="10" on="0"/>
        <pt x="79" y="10" on="1"/>
        <pt x="48" y="10" on="1"/>
        <pt x="48" y="52" on="1"/>
        <pt x="61" y="52" on="0"/>
        <pt x="93" y="55" on="0"/>
        <pt x="119" y="71" on="0"/>
        <pt x="137" y="106" on="0"/>
        <pt x="137" y="138" on="1"/>
        <pt x="137" y="698" on="1"/>
        <pt x="137" y="722" on="0"/>
        <pt x="119" y="750" on="0"/>
        <pt x="93" y="763" on="0"/>
        <pt x="61" y="767" on="0"/>
        <pt x="48" y="767" on="1"/>
        <pt x="48" y="809" on="1"/>
        <pt x="60" y="809" on="0"/>
        <pt x="110" y="806" on="0"/>
        <pt x="165" y="802" on="0"/>
        <pt x="215" y="799" on="0"/>
      </contour>
      <contour>
        <pt x="236" y="919" on="1"/>
        <pt x="236" y="949" on="0"/>
        <pt x="278" y="990" on="0"/>
        <pt x="307" y="990" on="1"/>
        <pt x="336" y="990" on="0"/>
        <pt x="377" y="949" on="0"/>
        <pt x="377" y="919" on="1"/>
        <pt x="377" y="889" on="0"/>
        <pt x="336" y="848" on="0"/>
        <pt x="307" y="848" on="1"/>
        <pt x="278" y="848" on="0"/>
        <pt x="236" y="889" on="0"/>
      </contour>
    </TTGlyph>
    <TTGlyph name="Edotbelow" xMin="48" yMin="-229" xMax="578" yMax="809">
      <contour>
        <pt x="227" y="799" on="1"/>
        <pt x="267" y="799" on="0"/>
        <pt x="358" y="802" on="0"/>
        <pt x="438" y="806" on="0"/>
        <pt x="495" y="809" on="0"/>
        <pt x="502" y="809" on="1"/>
        <pt x="526" y="809" on="0"/>
        <pt x="526" y="783" on="1"/>
        <pt x="526" y="772" on="0"/>
        <pt x="520" y="703" on="0"/>
        <pt x="520" y="654" on="1"/>
        <pt x="480" y="654" on="1"/>
        <pt x="480" y="675" on="0"/>
        <pt x="475" y="712" on="0"/>
        <pt x="460" y="740" on="0"/>
        <pt x="432" y="757" on="0"/>
        <pt x="408" y="757" on="1"/>
        <pt x="227" y="757" on="1"/>
        <pt x="227" y="440" on="1"/>
        <pt x="260" y="435" on="0"/>
        <pt x="327" y="430" on="0"/>
        <pt x="361" y="430" on="1"/>
        <pt x="396" y="430" on="0"/>
        <pt x="466" y="445" on="0"/>
        <pt x="491" y="467" on="1"/>
        <pt x="496" y="462" on="0"/>
        <pt x="505" y="444" on="0"/>
        <pt x="505" y="433" on="1"/>
        <pt x="505" y="407" on="0"/>
        <pt x="447" y="372" on="0"/>
        <pt x="385" y="372" on="1"/>
        <pt x="344" y="372" on="0"/>
        <pt x="266" y="384" on="0"/>
        <pt x="227" y="394" on="1"/>
        <pt x="227" y="111" on="1"/>
        <pt x="227" y="71" on="0"/>
        <pt x="262" y="16" on="0"/>
        <pt x="312" y="-19" on="0"/>
        <pt x="368" y="-34" on="0"/>
        <pt x="389" y="-34" on="1"/>
        <pt x="418" y="-34" on="0"/>
        <pt x="455" y="-19" on="0"/>
        <pt x="477" y="5" on="0"/>
        <pt x="486" y="36" on="0"/>
        <pt x="486" y="53" on="1"/>
        <pt x="486" y="79" on="0"/>
        <pt x="469" y="112" on="0"/>
        <pt x="451" y="126" on="1"/>
        <pt x="451" y="130" on="1"/>
        <pt x="469" y="133" on="0"/>
        <pt x="483" y="133" on="1"/>
        <pt x="505" y="133" on="0"/>
        <pt x="532" y="118" on="0"/>
        <pt x="547" y="94" on="0"/>
        <pt x="552" y="64" on="0"/>
        <pt x="552" y="49" on="1"/>
        <pt x="564" y="49" on="0"/>
        <pt x="578" y="26" on="0"/>
        <pt x="578" y="6" on="1"/>
        <pt x="578" y="-12" on="0"/>
        <pt x="562" y="-45" on="0"/>
        <pt x="527" y="-70" on="0"/>
        <pt x="470" y="-85" on="0"/>
        <pt x="429" y="-85" on="1"/>
        <pt x="369" y="-85" on="0"/>
        <pt x="276" y="-55" on="0"/>
        <pt x="196" y="-20" on="0"/>
        <pt x="121" y="10" on="0"/>
        <pt x="79" y="10" on="1"/>
        <pt x="48" y="10" on="1"/>
        <pt x="48" y="52" on="1"/>
        <pt x="61" y="52" on="0"/>
        <pt x="93" y="55" on="0"/>
        <pt x="119" y="71" on="0"/>
        <pt x="137" y="106" on="0"/>
        <pt x="137" y="138" on="1"/>
        <pt x="137" y="698" on="1"/>
        <pt x="137" y="722" on="0"/>
        <pt x="119" y="750" on="0"/>
        <pt x="93" y="763" on="0"/>
        <pt x="61" y="767" on="0"/>
        <pt x="48" y="767" on="1"/>
        <pt x="48" y="809" on="1"/>
        <pt x="60" y="809" on="0"/>
        <pt x="110" y="806" on="0"/>
        <pt x="165" y="802" on="0"/>
        <pt x="215" y="799" on="0"/>
      </contour>
      <contour>
        <pt x="274" y="-171" on="1"/>
        <pt x="274" y="-146" on="0"/>
        <pt x="308" y="-112" on="0"/>
        <pt x="332" y="-112" on="1"/>
        <pt x="356" y="-112" on="0"/>
        <pt x="390" y="-146" on="0"/>
        <pt x="390" y="-171" on="1"/>
        <pt x="390" y="-195" on="0"/>
        <pt x="356" y="-229" on="0"/>
        <pt x="332" y="-229" on="1"/>
        <pt x="308" y="-229" on="0"/>
        <pt x="274" y="-195" on="0"/>
      </contour>
    </TTGlyph>
    <TTGlyph name="Egrave" xMin="48" yMin="-85" xMax="578" yMax="990">
      <contour>
        <pt x="227" y="799" on="1"/>
        <pt x="267" y="799" on="0"/>
        <pt x="358" y="802" on="0"/>
        <pt x="438" y="806" on="0"/>
        <pt x="495" y="809" on="0"/>
        <pt x="502" y="809" on="1"/>
        <pt x="526" y="809" on="0"/>
        <pt x="526" y="783" on="1"/>
        <pt x="526" y="772" on="0"/>
        <pt x="520" y="703" on="0"/>
        <pt x="520" y="654" on="1"/>
        <pt x="480" y="654" on="1"/>
        <pt x="480" y="675" on="0"/>
        <pt x="475" y="712" on="0"/>
        <pt x="460" y="740" on="0"/>
        <pt x="432" y="757" on="0"/>
        <pt x="408" y="757" on="1"/>
        <pt x="227" y="757" on="1"/>
        <pt x="227" y="440" on="1"/>
        <pt x="260" y="435" on="0"/>
        <pt x="327" y="430" on="0"/>
        <pt x="361" y="430" on="1"/>
        <pt x="396" y="430" on="0"/>
        <pt x="466" y="445" on="0"/>
        <pt x="491" y="467" on="1"/>
        <pt x="496" y="462" on="0"/>
        <pt x="505" y="444" on="0"/>
        <pt x="505" y="433" on="1"/>
        <pt x="505" y="407" on="0"/>
        <pt x="447" y="372" on="0"/>
        <pt x="385" y="372" on="1"/>
        <pt x="344" y="372" on="0"/>
        <pt x="266" y="384" on="0"/>
        <pt x="227" y="394" on="1"/>
        <pt x="227" y="111" on="1"/>
        <pt x="227" y="71" on="0"/>
        <pt x="262" y="16" on="0"/>
        <pt x="312" y="-19" on="0"/>
        <pt x="368" y="-34" on="0"/>
        <pt x="389" y="-34" on="1"/>
        <pt x="418" y="-34" on="0"/>
        <pt x="455" y="-19" on="0"/>
        <pt x="477" y="5" on="0"/>
        <pt x="486" y="36" on="0"/>
        <pt x="486" y="53" on="1"/>
        <pt x="486" y="79" on="0"/>
        <pt x="469" y="112" on="0"/>
        <pt x="451" y="126" on="1"/>
        <pt x="451" y="130" on="1"/>
        <pt x="469" y="133" on="0"/>
        <pt x="483" y="133" on="1"/>
        <pt x="505" y="133" on="0"/>
        <pt x="532" y="118" on="0"/>
        <pt x="547" y="94" on="0"/>
        <pt x="552" y="64" on="0"/>
        <pt x="552" y="49" on="1"/>
        <pt x="564" y="49" on="0"/>
        <pt x="578" y="26" on="0"/>
        <pt x="578" y="6" on="1"/>
        <pt x="578" y="-12" on="0"/>
        <pt x="562" y="-45" on="0"/>
        <pt x="527" y="-70" on="0"/>
        <pt x="470" y="-85" on="0"/>
        <pt x="429" y="-85" on="1"/>
        <pt x="369" y="-85" on="0"/>
        <pt x="276" y="-55" on="0"/>
        <pt x="196" y="-20" on="0"/>
        <pt x="121" y="10" on="0"/>
        <pt x="79" y="10" on="1"/>
        <pt x="48" y="10" on="1"/>
        <pt x="48" y="52" on="1"/>
        <pt x="61" y="52" on="0"/>
        <pt x="93" y="55" on="0"/>
        <pt x="119" y="71" on="0"/>
        <pt x="137" y="106" on="0"/>
        <pt x="137" y="138" on="1"/>
        <pt x="137" y="698" on="1"/>
        <pt x="137" y="722" on="0"/>
        <pt x="119" y="750" on="0"/>
        <pt x="93" y="763" on="0"/>
        <pt x="61" y="767" on="0"/>
        <pt x="48" y="767" on="1"/>
        <pt x="48" y="809" on="1"/>
        <pt x="60" y="809" on="0"/>
        <pt x="110" y="806" on="0"/>
        <pt x="165" y="802" on="0"/>
        <pt x="215" y="799" on="0"/>
      </contour>
      <contour>
        <pt x="249" y="981" on="1"/>
        <pt x="253" y="986" on="0"/>
        <pt x="264" y="990" on="0"/>
        <pt x="269" y="990" on="1"/>
        <pt x="280" y="990" on="0"/>
        <pt x="302" y="975" on="0"/>
        <pt x="331" y="951" on="0"/>
        <pt x="370" y="922" on="0"/>
        <pt x="398" y="907" on="1"/>
        <pt x="412" y="899" on="0"/>
        <pt x="412" y="885" on="1"/>
        <pt x="412" y="877" on="0"/>
        <pt x="400" y="859" on="0"/>
        <pt x="386" y="859" on="1"/>
        <pt x="382" y="859" on="0"/>
        <pt x="376" y="861" on="1"/>
        <pt x="335" y="874" on="0"/>
        <pt x="276" y="884" on="0"/>
        <pt x="239" y="892" on="0"/>
        <pt x="221" y="904" on="0"/>
        <pt x="221" y="921" on="1"/>
        <pt x="221" y="926" on="0"/>
        <pt x="222" y="928" on="1"/>
        <pt x="213" y="932" on="0"/>
        <pt x="201" y="949" on="0"/>
        <pt x="201" y="958" on="1"/>
        <pt x="201" y="970" on="0"/>
        <pt x="222" y="985" on="0"/>
        <pt x="233" y="985" on="1"/>
        <pt x="242" y="985" on="0"/>
      </contour>
    </TTGlyph>
    <TTGlyph name="Emacron" xMin="48" yMin="-85" xMax="578" yMax="970">
      <contour>
        <pt x="227" y="799" on="1"/>
        <pt x="267" y="799" on="0"/>
        <pt x="358" y="802" on="0"/>
        <pt x="438" y="806" on="0"/>
        <pt x="495" y="809" on="0"/>
        <pt x="502" y="809" on="1"/>
        <pt x="526" y="809" on="0"/>
        <pt x="526" y="783" on="1"/>
        <pt x="526" y="772" on="0"/>
        <pt x="520" y="703" on="0"/>
        <pt x="520" y="654" on="1"/>
        <pt x="480" y="654" on="1"/>
        <pt x="480" y="675" on="0"/>
        <pt x="475" y="712" on="0"/>
        <pt x="460" y="740" on="0"/>
        <pt x="432" y="757" on="0"/>
        <pt x="408" y="757" on="1"/>
        <pt x="227" y="757" on="1"/>
        <pt x="227" y="440" on="1"/>
        <pt x="260" y="435" on="0"/>
        <pt x="327" y="430" on="0"/>
        <pt x="361" y="430" on="1"/>
        <pt x="396" y="430" on="0"/>
        <pt x="466" y="445" on="0"/>
        <pt x="491" y="467" on="1"/>
        <pt x="496" y="462" on="0"/>
        <pt x="505" y="444" on="0"/>
        <pt x="505" y="433" on="1"/>
        <pt x="505" y="407" on="0"/>
        <pt x="447" y="372" on="0"/>
        <pt x="385" y="372" on="1"/>
        <pt x="344" y="372" on="0"/>
        <pt x="266" y="384" on="0"/>
        <pt x="227" y="394" on="1"/>
        <pt x="227" y="111" on="1"/>
        <pt x="227" y="71" on="0"/>
        <pt x="262" y="16" on="0"/>
        <pt x="312" y="-19" on="0"/>
        <pt x="368" y="-34" on="0"/>
        <pt x="389" y="-34" on="1"/>
        <pt x="418" y="-34" on="0"/>
        <pt x="455" y="-19" on="0"/>
        <pt x="477" y="5" on="0"/>
        <pt x="486" y="36" on="0"/>
        <pt x="486" y="53" on="1"/>
        <pt x="486" y="79" on="0"/>
        <pt x="469" y="112" on="0"/>
        <pt x="451" y="126" on="1"/>
        <pt x="451" y="130" on="1"/>
        <pt x="469" y="133" on="0"/>
        <pt x="483" y="133" on="1"/>
        <pt x="505" y="133" on="0"/>
        <pt x="532" y="118" on="0"/>
        <pt x="547" y="94" on="0"/>
        <pt x="552" y="64" on="0"/>
        <pt x="552" y="49" on="1"/>
        <pt x="564" y="49" on="0"/>
        <pt x="578" y="26" on="0"/>
        <pt x="578" y="6" on="1"/>
        <pt x="578" y="-12" on="0"/>
        <pt x="562" y="-45" on="0"/>
        <pt x="527" y="-70" on="0"/>
        <pt x="470" y="-85" on="0"/>
        <pt x="429" y="-85" on="1"/>
        <pt x="369" y="-85" on="0"/>
        <pt x="276" y="-55" on="0"/>
        <pt x="196" y="-20" on="0"/>
        <pt x="121" y="10" on="0"/>
        <pt x="79" y="10" on="1"/>
        <pt x="48" y="10" on="1"/>
        <pt x="48" y="52" on="1"/>
        <pt x="61" y="52" on="0"/>
        <pt x="93" y="55" on="0"/>
        <pt x="119" y="71" on="0"/>
        <pt x="137" y="106" on="0"/>
        <pt x="137" y="138" on="1"/>
        <pt x="137" y="698" on="1"/>
        <pt x="137" y="722" on="0"/>
        <pt x="119" y="750" on="0"/>
        <pt x="93" y="763" on="0"/>
        <pt x="61" y="767" on="0"/>
        <pt x="48" y="767" on="1"/>
        <pt x="48" y="809" on="1"/>
        <pt x="60" y="809" on="0"/>
        <pt x="110" y="806" on="0"/>
        <pt x="165" y="802" on="0"/>
        <pt x="215" y="799" on="0"/>
      </contour>
      <contour>
        <pt x="234" y="902" on="1"/>
        <pt x="219" y="902" on="0"/>
        <pt x="200" y="901" on="0"/>
        <pt x="184" y="899" on="0"/>
        <pt x="166" y="896" on="0"/>
        <pt x="153" y="895" on="1"/>
        <pt x="148" y="901" on="0"/>
        <pt x="139" y="925" on="0"/>
        <pt x="139" y="936" on="1"/>
        <pt x="139" y="970" on="0"/>
        <pt x="214" y="970" on="1"/>
        <pt x="256" y="970" on="0"/>
        <pt x="340" y="958" on="0"/>
        <pt x="368" y="958" on="1"/>
        <pt x="385" y="958" on="0"/>
        <pt x="428" y="961" on="0"/>
        <pt x="450" y="965" on="1"/>
        <pt x="455" y="959" on="0"/>
        <pt x="464" y="936" on="0"/>
        <pt x="464" y="926" on="1"/>
        <pt x="464" y="906" on="0"/>
        <pt x="422" y="890" on="0"/>
        <pt x="380" y="890" on="1"/>
        <pt x="357" y="890" on="0"/>
        <pt x="322" y="894" on="0"/>
        <pt x="289" y="898" on="0"/>
        <pt x="256" y="902" on="0"/>
      </contour>
    </TTGlyph>
    <TTGlyph name="Eng" xMin="2" yMin="-250" xMax="822" yMax="820">
      <contour>
        <pt x="734" y="121" on="1"/>
        <pt x="734" y="23" on="0"/>
        <pt x="725" y="-117" on="0"/>
        <pt x="690" y="-207" on="0"/>
        <pt x="619" y="-250" on="0"/>
        <pt x="557" y="-250" on="1"/>
        <pt x="526" y="-250" on="0"/>
        <pt x="465" y="-241" on="0"/>
        <pt x="417" y="-223" on="0"/>
        <pt x="388" y="-195" on="0"/>
        <pt x="388" y="-176" on="1"/>
        <pt x="367" y="-168" on="0"/>
        <pt x="338" y="-126" on="0"/>
        <pt x="338" y="-94" on="1"/>
        <pt x="338" y="-55" on="0"/>
        <pt x="380" y="-19" on="0"/>
        <pt x="406" y="-19" on="1"/>
        <pt x="417" y="-19" on="0"/>
        <pt x="441" y="-25" on="0"/>
        <pt x="448" y="-30" on="1"/>
        <pt x="440" y="-42" on="0"/>
        <pt x="438" y="-82" on="0"/>
        <pt x="438" y="-94" on="1"/>
        <pt x="438" y="-108" on="0"/>
        <pt x="453" y="-143" on="0"/>
        <pt x="484" y="-174" on="0"/>
        <pt x="531" y="-195" on="0"/>
        <pt x="563" y="-195" on="1"/>
        <pt x="585" y="-195" on="0"/>
        <pt x="624" y="-181" on="0"/>
        <pt x="654" y="-148" on="0"/>
        <pt x="672" y="-92" on="0"/>
        <pt x="672" y="-51" on="1"/>
        <pt x="672" y="-18" on="0"/>
        <pt x="638" y="49" on="0"/>
        <pt x="617" y="77" on="1"/>
        <pt x="264" y="544" on="1"/>
        <pt x="256" y="554" on="0"/>
        <pt x="242" y="572" on="0"/>
        <pt x="235" y="582" on="1"/>
        <pt x="235" y="111" on="1"/>
        <pt x="235" y="87" on="0"/>
        <pt x="257" y="59" on="0"/>
        <pt x="288" y="46" on="0"/>
        <pt x="322" y="42" on="0"/>
        <pt x="334" y="42" on="1"/>
        <pt x="334" y="0" on="1"/>
        <pt x="324" y="0" on="0"/>
        <pt x="290" y="3" on="0"/>
        <pt x="252" y="7" on="0"/>
        <pt x="218" y="10" on="0"/>
        <pt x="208" y="10" on="1"/>
        <pt x="198" y="10" on="0"/>
        <pt x="164" y="7" on="0"/>
        <pt x="126" y="3" on="0"/>
        <pt x="92" y="0" on="0"/>
        <pt x="82" y="0" on="1"/>
        <pt x="82" y="42" on="1"/>
        <pt x="95" y="42" on="0"/>
        <pt x="130" y="46" on="0"/>
        <pt x="160" y="59" on="0"/>
        <pt x="181" y="87" on="0"/>
        <pt x="181" y="111" on="1"/>
        <pt x="181" y="649" on="1"/>
        <pt x="138" y="698" on="0"/>
        <pt x="51" y="760" on="0"/>
        <pt x="2" y="760" on="1"/>
        <pt x="2" y="783" on="0"/>
        <pt x="38" y="820" on="0"/>
        <pt x="76" y="820" on="1"/>
        <pt x="111" y="820" on="0"/>
        <pt x="159" y="787" on="0"/>
        <pt x="159" y="757" on="1"/>
        <pt x="178" y="757" on="0"/>
        <pt x="210" y="749" on="0"/>
        <pt x="252" y="714" on="0"/>
        <pt x="312" y="645" on="0"/>
        <pt x="357" y="585" on="1"/>
        <pt x="679" y="157" on="1"/>
        <pt x="679" y="714" on="1"/>
        <pt x="679" y="745" on="0"/>
        <pt x="632" y="778" on="0"/>
        <pt x="590" y="778" on="1"/>
        <pt x="590" y="795" on="0"/>
        <pt x="614" y="820" on="0"/>
        <pt x="643" y="820" on="1"/>
        <pt x="681" y="820" on="0"/>
        <pt x="706" y="789" on="1"/>
        <pt x="731" y="820" on="0"/>
        <pt x="769" y="820" on="1"/>
        <pt x="798" y="820" on="0"/>
        <pt x="822" y="795" on="0"/>
        <pt x="822" y="778" on="1"/>
        <pt x="781" y="778" on="0"/>
        <pt x="733" y="745" on="0"/>
        <pt x="733" y="714" on="1"/>
      </contour>
    </TTGlyph>
    <TTGlyph name="Eogonek" xMin="48" yMin="-242" xMax="578" yMax="809">
      <contour>
        <pt x="227" y="799" on="1"/>
        <pt x="267" y="799" on="0"/>
        <pt x="358" y="802" on="0"/>
        <pt x="438" y="806" on="0"/>
        <pt x="495" y="809" on="0"/>
        <pt x="502" y="809" on="1"/>
        <pt x="526" y="809" on="0"/>
        <pt x="526" y="783" on="1"/>
        <pt x="526" y="772" on="0"/>
        <pt x="520" y="703" on="0"/>
        <pt x="520" y="654" on="1"/>
        <pt x="480" y="654" on="1"/>
        <pt x="480" y="675" on="0"/>
        <pt x="475" y="712" on="0"/>
        <pt x="460" y="740" on="0"/>
        <pt x="432" y="757" on="0"/>
        <pt x="408" y="757" on="1"/>
        <pt x="227" y="757" on="1"/>
        <pt x="227" y="440" on="1"/>
        <pt x="260" y="435" on="0"/>
        <pt x="327" y="430" on="0"/>
        <pt x="361" y="430" on="1"/>
        <pt x="396" y="430" on="0"/>
        <pt x="466" y="445" on="0"/>
        <pt x="491" y="467" on="1"/>
        <pt x="496" y="462" on="0"/>
        <pt x="505" y="444" on="0"/>
        <pt x="505" y="433" on="1"/>
        <pt x="505" y="407" on="0"/>
        <pt x="447" y="372" on="0"/>
        <pt x="385" y="372" on="1"/>
        <pt x="344" y="372" on="0"/>
        <pt x="266" y="384" on="0"/>
        <pt x="227" y="394" on="1"/>
        <pt x="227" y="111" on="1"/>
        <pt x="227" y="71" on="0"/>
        <pt x="262" y="16" on="0"/>
        <pt x="312" y="-19" on="0"/>
        <pt x="368" y="-34" on="0"/>
        <pt x="389" y="-34" on="1"/>
        <pt x="418" y="-34" on="0"/>
        <pt x="455" y="-19" on="0"/>
        <pt x="477" y="5" on="0"/>
        <pt x="486" y="36" on="0"/>
        <pt x="486" y="53" on="1"/>
        <pt x="486" y="79" on="0"/>
        <pt x="469" y="112" on="0"/>
        <pt x="451" y="126" on="1"/>
        <pt x="451" y="130" on="1"/>
        <pt x="469" y="133" on="0"/>
        <pt x="483" y="133" on="1"/>
        <pt x="505" y="133" on="0"/>
        <pt x="532" y="118" on="0"/>
        <pt x="547" y="94" on="0"/>
        <pt x="552" y="64" on="0"/>
        <pt x="552" y="49" on="1"/>
        <pt x="564" y="49" on="0"/>
        <pt x="578" y="26" on="0"/>
        <pt x="578" y="6" on="1"/>
        <pt x="578" y="-12" on="0"/>
        <pt x="562" y="-45" on="0"/>
        <pt x="527" y="-70" on="0"/>
        <pt x="470" y="-85" on="0"/>
        <pt x="429" y="-85" on="1"/>
        <pt x="403" y="-85" on="0"/>
        <pt x="358" y="-79" on="0"/>
        <pt x="338" y="-74" on="1"/>
        <pt x="320" y="-88" on="0"/>
        <pt x="302" y="-128" on="0"/>
        <pt x="302" y="-147" on="1"/>
        <pt x="302" y="-171" on="0"/>
        <pt x="331" y="-206" on="0"/>
        <pt x="363" y="-206" on="1"/>
        <pt x="371" y="-206" on="0"/>
        <pt x="404" y="-200" on="0"/>
        <pt x="410" y="-192" on="1"/>
        <pt x="413" y="-197" on="1"/>
        <pt x="406" y="-211" on="0"/>
        <pt x="383" y="-228" on="0"/>
        <pt x="357" y="-238" on="0"/>
        <pt x="331" y="-242" on="0"/>
        <pt x="321" y="-242" on="1"/>
        <pt x="288" y="-242" on="0"/>
        <pt x="248" y="-207" on="0"/>
        <pt x="248" y="-182" on="1"/>
        <pt x="223" y="-176" on="0"/>
        <pt x="223" y="-155" on="1"/>
        <pt x="223" y="-134" on="0"/>
        <pt x="266" y="-82" on="0"/>
        <pt x="301" y="-63" on="1"/>
        <pt x="270" y="-53" on="0"/>
        <pt x="215" y="-27" on="0"/>
        <pt x="162" y="-5" on="0"/>
        <pt x="108" y="10" on="0"/>
        <pt x="79" y="10" on="1"/>
        <pt x="48" y="10" on="1"/>
        <pt x="48" y="52" on="1"/>
        <pt x="61" y="52" on="0"/>
        <pt x="93" y="55" on="0"/>
        <pt x="119" y="71" on="0"/>
        <pt x="137" y="106" on="0"/>
        <pt x="137" y="138" on="1"/>
        <pt x="137" y="698" on="1"/>
        <pt x="137" y="722" on="0"/>
        <pt x="119" y="750" on="0"/>
        <pt x="93" y="763" on="0"/>
        <pt x="61" y="767" on="0"/>
        <pt x="48" y="767" on="1"/>
        <pt x="48" y="809" on="1"/>
        <pt x="60" y="809" on="0"/>
        <pt x="110" y="806" on="0"/>
        <pt x="165" y="802" on="0"/>
        <pt x="215" y="799" on="0"/>
      </contour>
    </TTGlyph>
    <TTGlyph name="Eth" xMin="47" yMin="-179" xMax="812" yMax="820">
      <contour>
        <pt x="404" y="820" on="1"/>
        <pt x="516" y="820" on="0"/>
        <pt x="672" y="746" on="0"/>
        <pt x="769" y="617" on="0"/>
        <pt x="812" y="442" on="0"/>
        <pt x="812" y="341" on="1"/>
        <pt x="812" y="208" on="0"/>
        <pt x="752" y="13" on="0"/>
        <pt x="636" y="-116" on="0"/>
        <pt x="469" y="-179" on="0"/>
        <pt x="363" y="-179" on="1"/>
        <pt x="306" y="-179" on="0"/>
        <pt x="199" y="-161" on="0"/>
        <pt x="117" y="-125" on="0"/>
        <pt x="67" y="-73" on="0"/>
        <pt x="67" y="-38" on="1"/>
        <pt x="67" y="-14" on="0"/>
        <pt x="82" y="-9" on="1"/>
        <pt x="77" y="-6" on="0"/>
        <pt x="65" y="14" on="0"/>
        <pt x="55" y="43" on="0"/>
        <pt x="47" y="80" on="0"/>
        <pt x="47" y="99" on="1"/>
        <pt x="47" y="114" on="0"/>
        <pt x="54" y="153" on="0"/>
        <pt x="75" y="190" on="0"/>
        <pt x="114" y="220" on="0"/>
        <pt x="146" y="226" on="1"/>
        <pt x="152" y="221" on="1"/>
        <pt x="141" y="196" on="0"/>
        <pt x="134" y="139" on="0"/>
        <pt x="134" y="113" on="1"/>
        <pt x="134" y="57" on="0"/>
        <pt x="159" y="-23" on="0"/>
        <pt x="199" y="-77" on="0"/>
        <pt x="250" y="-109" on="0"/>
        <pt x="303" y="-126" on="0"/>
        <pt x="354" y="-131" on="0"/>
        <pt x="373" y="-131" on="1"/>
        <pt x="463" y="-131" on="0"/>
        <pt x="590" y="-67" on="0"/>
        <pt x="670" y="54" on="0"/>
        <pt x="707" y="229" on="0"/>
        <pt x="707" y="340" on="1"/>
        <pt x="707" y="423" on="0"/>
        <pt x="675" y="579" on="0"/>
        <pt x="601" y="699" on="0"/>
        <pt x="480" y="772" on="0"/>
        <pt x="392" y="772" on="1"/>
        <pt x="317" y="772" on="0"/>
        <pt x="221" y="727" on="0"/>
        <pt x="164" y="652" on="0"/>
        <pt x="142" y="557" on="0"/>
        <pt x="142" y="506" on="1"/>
        <pt x="95" y="506" on="0"/>
        <pt x="55" y="549" on="0"/>
        <pt x="55" y="580" on="1"/>
        <pt x="55" y="609" on="0"/>
        <pt x="84" y="648" on="0"/>
        <pt x="103" y="648" on="1"/>
        <pt x="95" y="656" on="0"/>
        <pt x="91" y="683" on="0"/>
        <pt x="91" y="691" on="1"/>
        <pt x="91" y="725" on="0"/>
        <pt x="148" y="774" on="0"/>
        <pt x="239" y="805" on="0"/>
        <pt x="350" y="820" on="0"/>
      </contour>
      <contour>
        <pt x="299" y="312" on="1"/>
        <pt x="282" y="312" on="0"/>
        <pt x="225" y="310" on="0"/>
        <pt x="202" y="305" on="1"/>
        <pt x="197" y="311" on="0"/>
        <pt x="188" y="335" on="0"/>
        <pt x="188" y="346" on="1"/>
        <pt x="188" y="365" on="0"/>
        <pt x="228" y="380" on="0"/>
        <pt x="278" y="380" on="1"/>
        <pt x="299" y="380" on="1"/>
        <pt x="299" y="507" on="1"/>
        <pt x="299" y="544" on="0"/>
        <pt x="296" y="593" on="0"/>
        <pt x="282" y="620" on="0"/>
        <pt x="256" y="631" on="0"/>
        <pt x="233" y="631" on="1"/>
        <pt x="233" y="666" on="1"/>
        <pt x="258" y="666" on="0"/>
        <pt x="295" y="672" on="0"/>
        <pt x="325" y="684" on="0"/>
        <pt x="350" y="700" on="0"/>
        <pt x="364" y="709" on="1"/>
        <pt x="389" y="709" on="1"/>
        <pt x="389" y="371" on="1"/>
        <pt x="413" y="368" on="0"/>
        <pt x="438" y="368" on="1"/>
        <pt x="465" y="368" on="0"/>
        <pt x="517" y="371" on="0"/>
        <pt x="539" y="375" on="1"/>
        <pt x="544" y="369" on="0"/>
        <pt x="553" y="346" on="0"/>
        <pt x="553" y="335" on="1"/>
        <pt x="553" y="314" on="0"/>
        <pt x="502" y="300" on="0"/>
        <pt x="447" y="300" on="1"/>
        <pt x="432" y="300" on="0"/>
        <pt x="403" y="302" on="0"/>
        <pt x="389" y="304" on="1"/>
        <pt x="389" y="111" on="1"/>
        <pt x="389" y="87" on="0"/>
        <pt x="408" y="59" on="0"/>
        <pt x="435" y="46" on="0"/>
        <pt x="466" y="42" on="0"/>
        <pt x="478" y="42" on="1"/>
        <pt x="478" y="0" on="1"/>
        <pt x="466" y="0" on="0"/>
        <pt x="430" y="3" on="0"/>
        <pt x="392" y="7" on="0"/>
        <pt x="356" y="10" on="0"/>
        <pt x="344" y="10" on="1"/>
        <pt x="332" y="10" on="0"/>
        <pt x="296" y="7" on="0"/>
        <pt x="258" y="3" on="0"/>
        <pt x="222" y="0" on="0"/>
        <pt x="210" y="0" on="1"/>
        <pt x="210" y="42" on="1"/>
        <pt x="223" y="42" on="0"/>
        <pt x="255" y="46" on="0"/>
        <pt x="281" y="59" on="0"/>
        <pt x="299" y="87" on="0"/>
        <pt x="299" y="111" on="1"/>
      </contour>
    </TTGlyph>
    <TTGlyph name="Etilde" xMin="48" yMin="-85" xMax="578" yMax="990">
      <contour>
        <pt x="227" y="799" on="1"/>
        <pt x="267" y="799" on="0"/>
        <pt x="358" y="802" on="0"/>
        <pt x="438" y="806" on="0"/>
        <pt x="495" y="809" on="0"/>
        <pt x="502" y="809" on="1"/>
        <pt x="526" y="809" on="0"/>
        <pt x="526" y="783" on="1"/>
        <pt x="526" y="772" on="0"/>
        <pt x="520" y="703" on="0"/>
        <pt x="520" y="654" on="1"/>
        <pt x="480" y="654" on="1"/>
        <pt x="480" y="675" on="0"/>
        <pt x="475" y="712" on="0"/>
        <pt x="460" y="740" on="0"/>
        <pt x="432" y="757" on="0"/>
        <pt x="408" y="757" on="1"/>
        <pt x="227" y="757" on="1"/>
        <pt x="227" y="440" on="1"/>
        <pt x="260" y="435" on="0"/>
        <pt x="327" y="430" on="0"/>
        <pt x="361" y="430" on="1"/>
        <pt x="396" y="430" on="0"/>
        <pt x="466" y="445" on="0"/>
        <pt x="491" y="467" on="1"/>
        <pt x="496" y="462" on="0"/>
        <pt x="505" y="444" on="0"/>
        <pt x="505" y="433" on="1"/>
        <pt x="505" y="407" on="0"/>
        <pt x="447" y="372" on="0"/>
        <pt x="385" y="372" on="1"/>
        <pt x="344" y="372" on="0"/>
        <pt x="266" y="384" on="0"/>
        <pt x="227" y="394" on="1"/>
        <pt x="227" y="111" on="1"/>
        <pt x="227" y="71" on="0"/>
        <pt x="262" y="16" on="0"/>
        <pt x="312" y="-19" on="0"/>
        <pt x="368" y="-34" on="0"/>
        <pt x="389" y="-34" on="1"/>
        <pt x="418" y="-34" on="0"/>
        <pt x="455" y="-19" on="0"/>
        <pt x="477" y="5" on="0"/>
        <pt x="486" y="36" on="0"/>
        <pt x="486" y="53" on="1"/>
        <pt x="486" y="79" on="0"/>
        <pt x="469" y="112" on="0"/>
        <pt x="451" y="126" on="1"/>
        <pt x="451" y="130" on="1"/>
        <pt x="469" y="133" on="0"/>
        <pt x="483" y="133" on="1"/>
        <pt x="505" y="133" on="0"/>
        <pt x="532" y="118" on="0"/>
        <pt x="547" y="94" on="0"/>
        <pt x="552" y="64" on="0"/>
        <pt x="552" y="49" on="1"/>
        <pt x="564" y="49" on="0"/>
        <pt x="578" y="26" on="0"/>
        <pt x="578" y="6" on="1"/>
        <pt x="578" y="-12" on="0"/>
        <pt x="562" y="-45" on="0"/>
        <pt x="527" y="-70" on="0"/>
        <pt x="470" y="-85" on="0"/>
        <pt x="429" y="-85" on="1"/>
        <pt x="369" y="-85" on="0"/>
        <pt x="276" y="-55" on="0"/>
        <pt x="196" y="-20" on="0"/>
        <pt x="121" y="10" on="0"/>
        <pt x="79" y="10" on="1"/>
        <pt x="48" y="10" on="1"/>
        <pt x="48" y="52" on="1"/>
        <pt x="61" y="52" on="0"/>
        <pt x="93" y="55" on="0"/>
        <pt x="119" y="71" on="0"/>
        <pt x="137" y="106" on="0"/>
        <pt x="137" y="138" on="1"/>
        <pt x="137" y="698" on="1"/>
        <pt x="137" y="722" on="0"/>
        <pt x="119" y="750" on="0"/>
        <pt x="93" y="763" on="0"/>
        <pt x="61" y="767" on="0"/>
        <pt x="48" y="767" on="1"/>
        <pt x="48" y="809" on="1"/>
        <pt x="60" y="809" on="0"/>
        <pt x="110" y="806" on="0"/>
        <pt x="165" y="802" on="0"/>
        <pt x="215" y="799" on="0"/>
      </contour>
      <contour>
        <pt x="177" y="885" on="1"/>
        <pt x="138" y="891" on="0"/>
        <pt x="138" y="927" on="1"/>
        <pt x="138" y="935" on="0"/>
        <pt x="145" y="946" on="0"/>
        <pt x="150" y="954" on="1"/>
        <pt x="150" y="971" on="0"/>
        <pt x="184" y="990" on="0"/>
        <pt x="213" y="990" on="1"/>
        <pt x="232" y="990" on="0"/>
        <pt x="275" y="976" on="0"/>
        <pt x="318" y="959" on="0"/>
        <pt x="361" y="945" on="0"/>
        <pt x="379" y="945" on="1"/>
        <pt x="402" y="945" on="0"/>
        <pt x="436" y="961" on="0"/>
        <pt x="444" y="983" on="1"/>
        <pt x="459" y="975" on="0"/>
        <pt x="476" y="947" on="0"/>
        <pt x="476" y="932" on="1"/>
        <pt x="476" y="922" on="0"/>
        <pt x="470" y="904" on="0"/>
        <pt x="462" y="899" on="1"/>
        <pt x="462" y="883" on="0"/>
        <pt x="416" y="871" on="0"/>
        <pt x="389" y="871" on="1"/>
        <pt x="366" y="871" on="0"/>
        <pt x="320" y="885" on="0"/>
        <pt x="277" y="902" on="0"/>
        <pt x="238" y="916" on="0"/>
        <pt x="222" y="916" on="1"/>
        <pt x="202" y="916" on="0"/>
        <pt x="178" y="902" on="0"/>
      </contour>
    </TTGlyph>
    <TTGlyph name="Euro" xMin="53" yMin="-14" xMax="661" yMax="820">
      <contour>
        <pt x="422" y="820" on="1"/>
        <pt x="439" y="820" on="0"/>
        <pt x="492" y="818" on="0"/>
        <pt x="541" y="808" on="0"/>
        <pt x="577" y="786" on="0"/>
        <pt x="577" y="765" on="1"/>
        <pt x="596" y="764" on="0"/>
        <pt x="627" y="745" on="0"/>
        <pt x="649" y="715" on="0"/>
        <pt x="661" y="679" on="0"/>
        <pt x="661" y="661" on="1"/>
        <pt x="661" y="631" on="0"/>
        <pt x="626" y="592" on="0"/>
        <pt x="586" y="592" on="1"/>
        <pt x="586" y="594" on="0"/>
        <pt x="587" y="598" on="0"/>
        <pt x="587" y="601" on="1"/>
        <pt x="587" y="618" on="0"/>
        <pt x="571" y="675" on="0"/>
        <pt x="534" y="730" on="0"/>
        <pt x="470" y="770" on="0"/>
        <pt x="422" y="770" on="1"/>
        <pt x="328" y="770" on="0"/>
        <pt x="220" y="630" on="0"/>
        <pt x="204" y="499" on="1"/>
        <pt x="239" y="497" on="0"/>
        <pt x="306" y="490" on="0"/>
        <pt x="353" y="490" on="1"/>
        <pt x="380" y="490" on="0"/>
        <pt x="432" y="493" on="0"/>
        <pt x="454" y="497" on="1"/>
        <pt x="459" y="491" on="0"/>
        <pt x="468" y="468" on="0"/>
        <pt x="468" y="457" on="1"/>
        <pt x="468" y="436" on="0"/>
        <pt x="417" y="422" on="0"/>
        <pt x="362" y="422" on="1"/>
        <pt x="332" y="422" on="0"/>
        <pt x="289" y="425" on="0"/>
        <pt x="253" y="429" on="0"/>
        <pt x="220" y="432" on="0"/>
        <pt x="199" y="433" on="1"/>
        <pt x="198" y="422" on="0"/>
        <pt x="198" y="399" on="0"/>
        <pt x="198" y="387" on="1"/>
        <pt x="198" y="373" on="0"/>
        <pt x="198" y="347" on="0"/>
        <pt x="199" y="334" on="1"/>
        <pt x="235" y="331" on="0"/>
        <pt x="305" y="324" on="0"/>
        <pt x="353" y="324" on="1"/>
        <pt x="380" y="324" on="0"/>
        <pt x="432" y="327" on="0"/>
        <pt x="454" y="331" on="1"/>
        <pt x="459" y="325" on="0"/>
        <pt x="468" y="302" on="0"/>
        <pt x="468" y="291" on="1"/>
        <pt x="468" y="270" on="0"/>
        <pt x="417" y="256" on="0"/>
        <pt x="362" y="256" on="1"/>
        <pt x="333" y="256" on="0"/>
        <pt x="291" y="259" on="0"/>
        <pt x="257" y="262" on="0"/>
        <pt x="225" y="266" on="0"/>
        <pt x="207" y="267" on="1"/>
        <pt x="245" y="36" on="0"/>
        <pt x="432" y="36" on="1"/>
        <pt x="482" y="36" on="0"/>
        <pt x="541" y="73" on="0"/>
        <pt x="573" y="127" on="0"/>
        <pt x="583" y="186" on="0"/>
        <pt x="585" y="207" on="1"/>
        <pt x="625" y="205" on="0"/>
        <pt x="656" y="162" on="0"/>
        <pt x="656" y="137" on="1"/>
        <pt x="656" y="114" on="0"/>
        <pt x="637" y="79" on="0"/>
        <pt x="624" y="78" on="1"/>
        <pt x="624" y="52" on="0"/>
        <pt x="588" y="17" on="0"/>
        <pt x="530" y="-4" on="0"/>
        <pt x="459" y="-14" on="0"/>
        <pt x="424" y="-14" on="1"/>
        <pt x="360" y="-14" on="0"/>
        <pt x="253" y="18" on="0"/>
        <pt x="172" y="85" on="0"/>
        <pt x="118" y="191" on="0"/>
        <pt x="106" y="266" on="1"/>
        <pt x="96" y="265" on="0"/>
        <pt x="76" y="263" on="0"/>
        <pt x="67" y="261" on="1"/>
        <pt x="62" y="267" on="0"/>
        <pt x="53" y="291" on="0"/>
        <pt x="53" y="302" on="1"/>
        <pt x="53" y="316" on="0"/>
        <pt x="74" y="331" on="0"/>
        <pt x="99" y="334" on="1"/>
        <pt x="98" y="347" on="0"/>
        <pt x="98" y="374" on="0"/>
        <pt x="98" y="388" on="1"/>
        <pt x="98" y="399" on="0"/>
        <pt x="98" y="420" on="0"/>
        <pt x="99" y="431" on="1"/>
        <pt x="91" y="430" on="0"/>
        <pt x="75" y="429" on="0"/>
        <pt x="67" y="427" on="1"/>
        <pt x="62" y="433" on="0"/>
        <pt x="53" y="457" on="0"/>
        <pt x="53" y="468" on="1"/>
        <pt x="53" y="482" on="0"/>
        <pt x="76" y="498" on="0"/>
        <pt x="104" y="500" on="1"/>
        <pt x="124" y="663" on="0"/>
        <pt x="287" y="820" on="0"/>
      </contour>
    </TTGlyph>
    <TTGlyph name="F" xMin="4" yMin="0" xMax="640" yMax="841">
      <contour>
        <pt x="420" y="435" on="1"/>
        <pt x="463" y="435" on="0"/>
        <pt x="532" y="452" on="0"/>
        <pt x="557" y="467" on="1"/>
        <pt x="562" y="462" on="0"/>
        <pt x="571" y="444" on="0"/>
        <pt x="571" y="433" on="1"/>
        <pt x="571" y="407" on="0"/>
        <pt x="513" y="372" on="0"/>
        <pt x="451" y="372" on="1"/>
        <pt x="419" y="372" on="0"/>
        <pt x="357" y="379" on="0"/>
        <pt x="326" y="385" on="1"/>
        <pt x="326" y="111" on="1"/>
        <pt x="326" y="87" on="0"/>
        <pt x="345" y="59" on="0"/>
        <pt x="372" y="46" on="0"/>
        <pt x="403" y="42" on="0"/>
        <pt x="415" y="42" on="1"/>
        <pt x="415" y="0" on="1"/>
        <pt x="403" y="0" on="0"/>
        <pt x="367" y="3" on="0"/>
        <pt x="329" y="7" on="0"/>
        <pt x="293" y="10" on="0"/>
        <pt x="281" y="10" on="1"/>
        <pt x="269" y="10" on="0"/>
        <pt x="233" y="7" on="0"/>
        <pt x="195" y="3" on="0"/>
        <pt x="159" y="0" on="0"/>
        <pt x="147" y="0" on="1"/>
        <pt x="147" y="42" on="1"/>
        <pt x="160" y="42" on="0"/>
        <pt x="192" y="46" on="0"/>
        <pt x="218" y="59" on="0"/>
        <pt x="236" y="87" on="0"/>
        <pt x="236" y="111" on="1"/>
        <pt x="236" y="487" on="1"/>
        <pt x="236" y="524" on="0"/>
        <pt x="233" y="573" on="0"/>
        <pt x="219" y="600" on="0"/>
        <pt x="193" y="611" on="0"/>
        <pt x="170" y="611" on="1"/>
        <pt x="170" y="646" on="1"/>
        <pt x="195" y="646" on="0"/>
        <pt x="232" y="652" on="0"/>
        <pt x="262" y="664" on="0"/>
        <pt x="287" y="680" on="0"/>
        <pt x="301" y="689" on="1"/>
        <pt x="326" y="689" on="1"/>
        <pt x="326" y="438" on="1"/>
        <pt x="349" y="436" on="0"/>
        <pt x="397" y="435" on="0"/>
      </contour>
      <contour>
        <pt x="232" y="762" on="1"/>
        <pt x="204" y="762" on="0"/>
        <pt x="152" y="744" on="0"/>
        <pt x="112" y="705" on="0"/>
        <pt x="88" y="640" on="0"/>
        <pt x="88" y="594" on="1"/>
        <pt x="88" y="569" on="0"/>
        <pt x="94" y="530" on="0"/>
        <pt x="96" y="508" on="1"/>
        <pt x="50" y="508" on="0"/>
        <pt x="4" y="550" on="0"/>
        <pt x="4" y="582" on="1"/>
        <pt x="4" y="605" on="0"/>
        <pt x="25" y="632" on="0"/>
        <pt x="42" y="640" on="1"/>
        <pt x="31" y="646" on="0"/>
        <pt x="23" y="684" on="0"/>
        <pt x="23" y="697" on="1"/>
        <pt x="23" y="725" on="0"/>
        <pt x="51" y="771" on="0"/>
        <pt x="100" y="803" on="0"/>
        <pt x="166" y="820" on="0"/>
        <pt x="205" y="820" on="1"/>
        <pt x="241" y="820" on="0"/>
        <pt x="311" y="807" on="0"/>
        <pt x="377" y="790" on="0"/>
        <pt x="438" y="777" on="0"/>
        <pt x="467" y="777" on="1"/>
        <pt x="502" y="777" on="0"/>
        <pt x="567" y="804" on="0"/>
        <pt x="601" y="841" on="1"/>
        <pt x="613" y="838" on="0"/>
        <pt x="640" y="808" on="0"/>
        <pt x="640" y="785" on="1"/>
        <pt x="640" y="765" on="0"/>
        <pt x="610" y="732" on="0"/>
        <pt x="572" y="732" on="1"/>
        <pt x="572" y="725" on="0"/>
        <pt x="566" y="706" on="0"/>
        <pt x="551" y="689" on="0"/>
        <pt x="526" y="677" on="0"/>
        <pt x="507" y="677" on="1"/>
        <pt x="478" y="677" on="0"/>
        <pt x="413" y="704" on="0"/>
        <pt x="344" y="735" on="0"/>
        <pt x="270" y="762" on="0"/>
      </contour>
    </TTGlyph>
    <TTGlyph name="G" xMin="57" yMin="-179" xMax="689" yMax="820">
      <contour>
        <pt x="689" y="3" on="1"/>
        <pt x="689" y="-58" on="0"/>
        <pt x="668" y="-120" on="0"/>
        <pt x="633" y="-120" on="1"/>
        <pt x="633" y="-145" on="0"/>
        <pt x="590" y="-179" on="0"/>
        <pt x="551" y="-179" on="1"/>
        <pt x="531" y="-179" on="0"/>
        <pt x="486" y="-165" on="0"/>
        <pt x="473" y="-144" on="1"/>
        <pt x="476" y="-139" on="1"/>
        <pt x="481" y="-141" on="0"/>
        <pt x="500" y="-143" on="0"/>
        <pt x="507" y="-143" on="1"/>
        <pt x="563" y="-143" on="0"/>
        <pt x="599" y="-48" on="0"/>
        <pt x="599" y="44" on="1"/>
        <pt x="599" y="68" on="1"/>
        <pt x="576" y="33" on="0"/>
        <pt x="471" y="-14" on="0"/>
        <pt x="395" y="-14" on="1"/>
        <pt x="328" y="-14" on="0"/>
        <pt x="206" y="31" on="0"/>
        <pt x="113" y="128" on="0"/>
        <pt x="57" y="283" on="0"/>
        <pt x="57" y="394" on="1"/>
        <pt x="57" y="502" on="0"/>
        <pt x="112" y="663" on="0"/>
        <pt x="211" y="768" on="0"/>
        <pt x="351" y="820" on="0"/>
        <pt x="435" y="820" on="1"/>
        <pt x="478" y="820" on="0"/>
        <pt x="567" y="805" on="0"/>
        <pt x="639" y="767" on="0"/>
        <pt x="685" y="702" on="0"/>
        <pt x="685" y="652" on="1"/>
        <pt x="685" y="621" on="0"/>
        <pt x="666" y="575" on="0"/>
        <pt x="634" y="544" on="0"/>
        <pt x="592" y="529" on="0"/>
        <pt x="569" y="529" on="1"/>
        <pt x="559" y="529" on="0"/>
        <pt x="531" y="532" on="0"/>
        <pt x="520" y="534" on="1"/>
        <pt x="520" y="541" on="1"/>
        <pt x="543" y="545" on="0"/>
        <pt x="572" y="589" on="0"/>
        <pt x="572" y="631" on="1"/>
        <pt x="572" y="697" on="0"/>
        <pt x="494" y="770" on="0"/>
        <pt x="425" y="770" on="1"/>
        <pt x="369" y="770" on="0"/>
        <pt x="271" y="718" on="0"/>
        <pt x="199" y="621" on="0"/>
        <pt x="157" y="479" on="0"/>
        <pt x="157" y="389" on="1"/>
        <pt x="157" y="301" on="0"/>
        <pt x="197" y="169" on="0"/>
        <pt x="267" y="80" on="0"/>
        <pt x="362" y="36" on="0"/>
        <pt x="418" y="36" on="1"/>
        <pt x="469" y="36" on="0"/>
        <pt x="538" y="71" on="0"/>
        <pt x="580" y="125" on="0"/>
        <pt x="599" y="190" on="0"/>
        <pt x="599" y="219" on="1"/>
        <pt x="599" y="251" on="0"/>
        <pt x="592" y="288" on="0"/>
        <pt x="583" y="299" on="1"/>
        <pt x="566" y="296" on="0"/>
        <pt x="529" y="292" on="0"/>
        <pt x="509" y="292" on="1"/>
        <pt x="447" y="292" on="0"/>
        <pt x="389" y="327" on="0"/>
        <pt x="389" y="353" on="1"/>
        <pt x="389" y="364" on="0"/>
        <pt x="398" y="382" on="0"/>
        <pt x="403" y="387" on="1"/>
        <pt x="428" y="371" on="0"/>
        <pt x="498" y="355" on="0"/>
        <pt x="533" y="355" on="1"/>
        <pt x="559" y="355" on="0"/>
        <pt x="597" y="362" on="0"/>
        <pt x="627" y="373" on="0"/>
        <pt x="651" y="386" on="0"/>
        <pt x="664" y="393" on="1"/>
        <pt x="689" y="393" on="1"/>
      </contour>
    </TTGlyph>
    <TTGlyph name="Gbreve" xMin="57" yMin="-179" xMax="689" yMax="990">
      <contour>
        <pt x="689" y="3" on="1"/>
        <pt x="689" y="-58" on="0"/>
        <pt x="668" y="-120" on="0"/>
        <pt x="633" y="-120" on="1"/>
        <pt x="633" y="-145" on="0"/>
        <pt x="590" y="-179" on="0"/>
        <pt x="551" y="-179" on="1"/>
        <pt x="531" y="-179" on="0"/>
        <pt x="486" y="-165" on="0"/>
        <pt x="473" y="-144" on="1"/>
        <pt x="476" y="-139" on="1"/>
        <pt x="481" y="-141" on="0"/>
        <pt x="500" y="-143" on="0"/>
        <pt x="507" y="-143" on="1"/>
        <pt x="563" y="-143" on="0"/>
        <pt x="599" y="-48" on="0"/>
        <pt x="599" y="44" on="1"/>
        <pt x="599" y="68" on="1"/>
        <pt x="576" y="33" on="0"/>
        <pt x="471" y="-14" on="0"/>
        <pt x="395" y="-14" on="1"/>
        <pt x="328" y="-14" on="0"/>
        <pt x="206" y="31" on="0"/>
        <pt x="113" y="128" on="0"/>
        <pt x="57" y="283" on="0"/>
        <pt x="57" y="394" on="1"/>
        <pt x="57" y="502" on="0"/>
        <pt x="112" y="663" on="0"/>
        <pt x="211" y="768" on="0"/>
        <pt x="351" y="820" on="0"/>
        <pt x="435" y="820" on="1"/>
        <pt x="478" y="820" on="0"/>
        <pt x="567" y="805" on="0"/>
        <pt x="639" y="767" on="0"/>
        <pt x="685" y="702" on="0"/>
        <pt x="685" y="652" on="1"/>
        <pt x="685" y="621" on="0"/>
        <pt x="666" y="575" on="0"/>
        <pt x="634" y="544" on="0"/>
        <pt x="592" y="529" on="0"/>
        <pt x="569" y="529" on="1"/>
        <pt x="559" y="529" on="0"/>
        <pt x="531" y="532" on="0"/>
        <pt x="520" y="534" on="1"/>
        <pt x="520" y="541" on="1"/>
        <pt x="543" y="545" on="0"/>
        <pt x="572" y="589" on="0"/>
        <pt x="572" y="631" on="1"/>
        <pt x="572" y="697" on="0"/>
        <pt x="494" y="770" on="0"/>
        <pt x="425" y="770" on="1"/>
        <pt x="369" y="770" on="0"/>
        <pt x="271" y="718" on="0"/>
        <pt x="199" y="621" on="0"/>
        <pt x="157" y="479" on="0"/>
        <pt x="157" y="389" on="1"/>
        <pt x="157" y="301" on="0"/>
        <pt x="197" y="169" on="0"/>
        <pt x="267" y="80" on="0"/>
        <pt x="362" y="36" on="0"/>
        <pt x="418" y="36" on="1"/>
        <pt x="469" y="36" on="0"/>
        <pt x="538" y="71" on="0"/>
        <pt x="580" y="125" on="0"/>
        <pt x="599" y="190" on="0"/>
        <pt x="599" y="219" on="1"/>
        <pt x="599" y="251" on="0"/>
        <pt x="592" y="288" on="0"/>
        <pt x="583" y="299" on="1"/>
        <pt x="566" y="296" on="0"/>
        <pt x="529" y="292" on="0"/>
        <pt x="509" y="292" on="1"/>
        <pt x="447" y="292" on="0"/>
        <pt x="389" y="327" on="0"/>
        <pt x="389" y="353" on="1"/>
        <pt x="389" y="364" on="0"/>
        <pt x="398" y="382" on="0"/>
        <pt x="403" y="387" on="1"/>
        <pt x="428" y="371" on="0"/>
        <pt x="498" y="355" on="0"/>
        <pt x="533" y="355" on="1"/>
        <pt x="559" y="355" on="0"/>
        <pt x="597" y="362" on="0"/>
        <pt x="627" y="373" on="0"/>
        <pt x="651" y="386" on="0"/>
        <pt x="664" y="393" on="1"/>
        <pt x="689" y="393" on="1"/>
      </contour>
      <contour>
        <pt x="573" y="990" on="1"/>
        <pt x="573" y="956" on="0"/>
        <pt x="553" y="910" on="0"/>
        <pt x="517" y="881" on="0"/>
        <pt x="465" y="869" on="0"/>
        <pt x="434" y="869" on="1"/>
        <pt x="402" y="869" on="0"/>
        <pt x="351" y="881" on="0"/>
        <pt x="315" y="910" on="0"/>
        <pt x="296" y="956" on="0"/>
        <pt x="296" y="990" on="1"/>
        <pt x="379" y="990" on="1"/>
        <pt x="377" y="980" on="0"/>
        <pt x="377" y="973" on="1"/>
        <pt x="377" y="956" on="0"/>
        <pt x="401" y="921" on="0"/>
        <pt x="434" y="921" on="1"/>
        <pt x="451" y="921" on="0"/>
        <pt x="473" y="931" on="0"/>
        <pt x="485" y="946" on="0"/>
        <pt x="490" y="964" on="0"/>
        <pt x="490" y="973" on="1"/>
        <pt x="490" y="980" on="0"/>
        <pt x="488" y="990" on="1"/>
      </contour>
    </TTGlyph>
    <TTGlyph name="Gcircumflex" xMin="57" yMin="-179" xMax="689" yMax="990">
      <contour>
        <pt x="689" y="3" on="1"/>
        <pt x="689" y="-58" on="0"/>
        <pt x="668" y="-120" on="0"/>
        <pt x="633" y="-120" on="1"/>
        <pt x="633" y="-145" on="0"/>
        <pt x="590" y="-179" on="0"/>
        <pt x="551" y="-179" on="1"/>
        <pt x="531" y="-179" on="0"/>
        <pt x="486" y="-165" on="0"/>
        <pt x="473" y="-144" on="1"/>
        <pt x="476" y="-139" on="1"/>
        <pt x="481" y="-141" on="0"/>
        <pt x="500" y="-143" on="0"/>
        <pt x="507" y="-143" on="1"/>
        <pt x="563" y="-143" on="0"/>
        <pt x="599" y="-48" on="0"/>
        <pt x="599" y="44" on="1"/>
        <pt x="599" y="68" on="1"/>
        <pt x="576" y="33" on="0"/>
        <pt x="471" y="-14" on="0"/>
        <pt x="395" y="-14" on="1"/>
        <pt x="328" y="-14" on="0"/>
        <pt x="206" y="31" on="0"/>
        <pt x="113" y="128" on="0"/>
        <pt x="57" y="283" on="0"/>
        <pt x="57" y="394" on="1"/>
        <pt x="57" y="502" on="0"/>
        <pt x="112" y="663" on="0"/>
        <pt x="211" y="768" on="0"/>
        <pt x="351" y="820" on="0"/>
        <pt x="435" y="820" on="1"/>
        <pt x="478" y="820" on="0"/>
        <pt x="567" y="805" on="0"/>
        <pt x="639" y="767" on="0"/>
        <pt x="685" y="702" on="0"/>
        <pt x="685" y="652" on="1"/>
        <pt x="685" y="621" on="0"/>
        <pt x="666" y="575" on="0"/>
        <pt x="634" y="544" on="0"/>
        <pt x="592" y="529" on="0"/>
        <pt x="569" y="529" on="1"/>
        <pt x="559" y="529" on="0"/>
        <pt x="531" y="532" on="0"/>
        <pt x="520" y="534" on="1"/>
        <pt x="520" y="541" on="1"/>
        <pt x="543" y="545" on="0"/>
        <pt x="572" y="589" on="0"/>
        <pt x="572" y="631" on="1"/>
        <pt x="572" y="697" on="0"/>
        <pt x="494" y="770" on="0"/>
        <pt x="425" y="770" on="1"/>
        <pt x="369" y="770" on="0"/>
        <pt x="271" y="718" on="0"/>
        <pt x="199" y="621" on="0"/>
        <pt x="157" y="479" on="0"/>
        <pt x="157" y="389" on="1"/>
        <pt x="157" y="301" on="0"/>
        <pt x="197" y="169" on="0"/>
        <pt x="267" y="80" on="0"/>
        <pt x="362" y="36" on="0"/>
        <pt x="418" y="36" on="1"/>
        <pt x="469" y="36" on="0"/>
        <pt x="538" y="71" on="0"/>
        <pt x="580" y="125" on="0"/>
        <pt x="599" y="190" on="0"/>
        <pt x="599" y="219" on="1"/>
        <pt x="599" y="251" on="0"/>
        <pt x="592" y="288" on="0"/>
        <pt x="583" y="299" on="1"/>
        <pt x="566" y="296" on="0"/>
        <pt x="529" y="292" on="0"/>
        <pt x="509" y="292" on="1"/>
        <pt x="447" y="292" on="0"/>
        <pt x="389" y="327" on="0"/>
        <pt x="389" y="353" on="1"/>
        <pt x="389" y="364" on="0"/>
        <pt x="398" y="382" on="0"/>
        <pt x="403" y="387" on="1"/>
        <pt x="428" y="371" on="0"/>
        <pt x="498" y="355" on="0"/>
        <pt x="533" y="355" on="1"/>
        <pt x="559" y="355" on="0"/>
        <pt x="597" y="362" on="0"/>
        <pt x="627" y="373" on="0"/>
        <pt x="651" y="386" on="0"/>
        <pt x="664" y="393" on="1"/>
        <pt x="689" y="393" on="1"/>
      </contour>
      <contour>
        <pt x="461" y="972" on="1"/>
        <pt x="465" y="974" on="0"/>
        <pt x="470" y="974" on="1"/>
        <pt x="486" y="974" on="0"/>
        <pt x="502" y="958" on="0"/>
        <pt x="520" y="932" on="0"/>
        <pt x="550" y="902" on="0"/>
        <pt x="581" y="887" on="1"/>
        <pt x="584" y="885" on="0"/>
        <pt x="587" y="875" on="0"/>
        <pt x="587" y="870" on="1"/>
        <pt x="587" y="856" on="0"/>
        <pt x="569" y="845" on="0"/>
        <pt x="559" y="845" on="1"/>
        <pt x="551" y="845" on="0"/>
        <pt x="543" y="852" on="1"/>
        <pt x="503" y="871" on="0"/>
        <pt x="445" y="915" on="0"/>
        <pt x="434" y="922" on="1"/>
        <pt x="423" y="915" on="0"/>
        <pt x="366" y="871" on="0"/>
        <pt x="326" y="852" on="1"/>
        <pt x="318" y="845" on="0"/>
        <pt x="307" y="845" on="1"/>
        <pt x="296" y="845" on="0"/>
        <pt x="282" y="860" on="0"/>
        <pt x="282" y="871" on="1"/>
        <pt x="282" y="875" on="0"/>
        <pt x="283" y="884" on="0"/>
        <pt x="288" y="887" on="1"/>
        <pt x="319" y="902" on="0"/>
        <pt x="349" y="932" on="0"/>
        <pt x="367" y="958" on="0"/>
        <pt x="382" y="974" on="0"/>
        <pt x="399" y="974" on="1"/>
        <pt x="404" y="974" on="0"/>
        <pt x="408" y="972" on="1"/>
        <pt x="410" y="980" on="0"/>
        <pt x="424" y="990" on="0"/>
        <pt x="433" y="990" on="1"/>
        <pt x="443" y="990" on="0"/>
        <pt x="459" y="980" on="0"/>
      </contour>
    </TTGlyph>
    <TTGlyph name="Gcommaaccent" xMin="57" yMin="-260" xMax="689" yMax="820">
      <contour>
        <pt x="689" y="3" on="1"/>
        <pt x="689" y="-58" on="0"/>
        <pt x="668" y="-120" on="0"/>
        <pt x="633" y="-120" on="1"/>
        <pt x="633" y="-145" on="0"/>
        <pt x="590" y="-179" on="0"/>
        <pt x="551" y="-179" on="1"/>
        <pt x="531" y="-179" on="0"/>
        <pt x="486" y="-165" on="0"/>
        <pt x="473" y="-144" on="1"/>
        <pt x="476" y="-139" on="1"/>
        <pt x="481" y="-141" on="0"/>
        <pt x="500" y="-143" on="0"/>
        <pt x="507" y="-143" on="1"/>
        <pt x="563" y="-143" on="0"/>
        <pt x="599" y="-48" on="0"/>
        <pt x="599" y="44" on="1"/>
        <pt x="599" y="68" on="1"/>
        <pt x="576" y="33" on="0"/>
        <pt x="471" y="-14" on="0"/>
        <pt x="395" y="-14" on="1"/>
        <pt x="328" y="-14" on="0"/>
        <pt x="206" y="31" on="0"/>
        <pt x="113" y="128" on="0"/>
        <pt x="57" y="283" on="0"/>
        <pt x="57" y="394" on="1"/>
        <pt x="57" y="502" on="0"/>
        <pt x="112" y="663" on="0"/>
        <pt x="211" y="768" on="0"/>
        <pt x="351" y="820" on="0"/>
        <pt x="435" y="820" on="1"/>
        <pt x="478" y="820" on="0"/>
        <pt x="567" y="805" on="0"/>
        <pt x="639" y="767" on="0"/>
        <pt x="685" y="702" on="0"/>
        <pt x="685" y="652" on="1"/>
        <pt x="685" y="621" on="0"/>
        <pt x="666" y="575" on="0"/>
        <pt x="634" y="544" on="0"/>
        <pt x="592" y="529" on="0"/>
        <pt x="569" y="529" on="1"/>
        <pt x="559" y="529" on="0"/>
        <pt x="531" y="532" on="0"/>
        <pt x="520" y="534" on="1"/>
        <pt x="520" y="541" on="1"/>
        <pt x="543" y="545" on="0"/>
        <pt x="572" y="589" on="0"/>
        <pt x="572" y="631" on="1"/>
        <pt x="572" y="697" on="0"/>
        <pt x="494" y="770" on="0"/>
        <pt x="425" y="770" on="1"/>
        <pt x="369" y="770" on="0"/>
        <pt x="271" y="718" on="0"/>
        <pt x="199" y="621" on="0"/>
        <pt x="157" y="479" on="0"/>
        <pt x="157" y="389" on="1"/>
        <pt x="157" y="301" on="0"/>
        <pt x="197" y="169" on="0"/>
        <pt x="267" y="80" on="0"/>
        <pt x="362" y="36" on="0"/>
        <pt x="418" y="36" on="1"/>
        <pt x="469" y="36" on="0"/>
        <pt x="538" y="71" on="0"/>
        <pt x="580" y="125" on="0"/>
        <pt x="599" y="190" on="0"/>
        <pt x="599" y="219" on="1"/>
        <pt x="599" y="251" on="0"/>
        <pt x="592" y="288" on="0"/>
        <pt x="583" y="299" on="1"/>
        <pt x="566" y="296" on="0"/>
        <pt x="529" y="292" on="0"/>
        <pt x="509" y="292" on="1"/>
        <pt x="447" y="292" on="0"/>
        <pt x="389" y="327" on="0"/>
        <pt x="389" y="353" on="1"/>
        <pt x="389" y="364" on="0"/>
        <pt x="398" y="382" on="0"/>
        <pt x="403" y="387" on="1"/>
        <pt x="428" y="371" on="0"/>
        <pt x="498" y="355" on="0"/>
        <pt x="533" y="355" on="1"/>
        <pt x="559" y="355" on="0"/>
        <pt x="597" y="362" on="0"/>
        <pt x="627" y="373" on="0"/>
        <pt x="651" y="386" on="0"/>
        <pt x="664" y="393" on="1"/>
        <pt x="689" y="393" on="1"/>
      </contour>
      <contour>
        <pt x="274" y="-120" on="1"/>
        <pt x="274" y="-95" on="0"/>
        <pt x="309" y="-64" on="0"/>
        <pt x="337" y="-64" on="1"/>
        <pt x="365" y="-64" on="0"/>
        <pt x="399" y="-96" on="0"/>
        <pt x="399" y="-122" on="1"/>
        <pt x="399" y="-177" on="0"/>
        <pt x="313" y="-260" on="1"/>
        <pt x="290" y="-241" on="1"/>
        <pt x="316" y="-208" on="0"/>
        <pt x="323" y="-177" on="1"/>
        <pt x="301" y="-174" on="0"/>
        <pt x="274" y="-143" on="0"/>
      </contour>
    </TTGlyph>
</ttFont>
